{"glyphs":{"0":{"ha":1142,"x_min":14,"x_max":1128,"o":"m 186 0 q 136 9 165 0 q 80 38 107 18 q 33 92 53 58 q 14 176 14 126 q 15 192 14 183 q 17 207 15 200 l 122 829 q 149 899 129 871 q 193 943 168 926 q 244 967 218 960 q 292 975 271 975 l 956 975 q 1006 966 976 975 q 1063 937 1036 957 q 1109 883 1090 917 q 1128 799 1128 849 q 1127 783 1128 792 q 1125 768 1126 775 l 1019 146 q 992 76 1013 104 q 947 32 972 49 q 896 8 922 15 q 849 0 869 0 l 186 0 m 456 260 l 650 260 q 667 265 660 260 q 675 276 674 269 l 736 560 l 456 260 m 703 715 l 492 715 q 475 710 482 715 q 467 699 468 706 l 406 399 l 703 715 z "},"1":{"ha":635,"x_min":14,"x_max":621,"o":"m 444 0 l 78 0 l 207 715 l 14 715 l 58 975 l 621 975 l 444 0 z "},"2":{"ha":1079,"x_min":14,"x_max":1065,"o":"m 14 0 l 97 488 q 124 557 104 529 q 168 601 143 585 q 219 626 193 618 q 267 633 246 633 l 639 633 q 656 638 650 633 q 664 650 663 643 q 667 663 665 657 q 669 676 668 669 q 672 689 672 683 q 672 697 672 694 q 672 703 672 700 q 665 708 671 706 q 656 714 661 713 q 646 715 650 715 l 136 715 l 179 975 l 892 975 q 942 966 913 975 q 999 937 972 957 q 1046 883 1026 917 q 1065 799 1065 849 q 1065 783 1065 792 q 1063 768 1064 775 l 1019 519 q 993 450 1013 478 q 949 406 974 422 q 897 381 924 389 q 850 374 871 374 l 478 374 q 460 368 467 374 q 453 357 453 363 l 436 260 l 975 260 l 932 0 l 14 0 z "},"3":{"ha":1082,"x_min":14,"x_max":1067,"o":"m 14 0 l 58 260 l 604 260 q 622 265 615 260 q 631 276 629 269 q 634 298 632 283 q 639 328 636 313 q 642 342 642 335 q 644 357 643 350 q 645 362 644 360 q 646 367 646 364 l 646 371 q 645 376 646 374 q 639 382 644 379 q 629 388 635 386 q 619 389 624 389 l 239 389 l 278 617 l 636 617 q 653 622 647 617 q 663 635 660 628 q 665 650 664 642 q 668 669 667 658 q 672 697 672 690 q 672 703 672 700 q 665 708 671 706 q 656 714 661 713 q 646 715 650 715 l 136 715 l 179 975 l 894 975 q 945 966 915 975 q 1002 937 975 957 q 1048 883 1029 917 q 1067 799 1067 849 q 1065 761 1067 783 q 1060 718 1063 739 q 1054 675 1057 696 q 1049 639 1051 654 q 1006 547 1040 579 q 931 499 971 514 q 941 492 936 496 q 950 485 946 489 q 992 440 974 468 q 1011 369 1011 413 q 1007 324 1011 354 q 997 261 1003 293 q 988 199 993 229 q 981 153 983 168 q 956 81 975 110 q 911 33 936 51 q 859 8 886 15 q 810 0 832 0 l 14 0 z "},"4":{"ha":1111,"x_min":14,"x_max":1096,"o":"m 17 488 l 100 975 l 478 975 l 472 949 q 467 922 471 942 q 459 873 464 901 q 449 810 454 844 q 438 742 443 776 q 426 673 432 706 q 416 615 421 640 q 408 575 411 590 q 406 557 406 560 q 413 546 406 553 q 432 539 424 539 l 619 539 l 699 975 l 1072 975 l 994 539 l 1096 539 l 1053 281 l 949 281 l 899 0 l 521 0 l 572 281 l 186 281 q 136 290 165 281 q 80 319 107 299 q 33 372 53 339 q 14 456 14 406 q 15 472 14 464 q 17 488 15 481 z "},"5":{"ha":1079,"x_min":14,"x_max":1065,"o":"m 801 633 q 852 624 822 633 q 909 594 882 615 q 956 540 936 574 q 975 457 975 507 q 974 441 975 449 q 972 426 974 433 l 925 146 q 898 76 918 104 q 853 32 878 49 q 801 8 828 15 q 754 0 775 0 l 14 0 l 58 260 l 543 260 q 561 265 554 260 q 569 276 568 269 q 573 295 571 283 q 578 319 575 307 q 580 332 579 326 q 581 343 581 338 q 582 356 582 350 q 581 361 582 358 q 575 367 581 364 q 557 374 565 374 l 78 374 l 179 975 l 1065 975 l 1021 715 l 514 715 l 500 633 l 801 633 z "},"6":{"ha":1079,"x_min":14,"x_max":1065,"o":"m 186 0 q 136 9 165 0 q 80 38 107 18 q 33 92 53 58 q 14 176 14 126 q 15 192 14 183 q 17 207 15 200 l 122 829 q 149 899 129 871 q 193 943 168 926 q 244 967 218 960 q 292 975 271 975 l 1065 975 l 1021 715 l 504 715 q 486 710 493 715 q 478 699 479 706 l 467 633 l 828 633 q 878 624 849 633 q 935 594 908 615 q 981 540 963 574 q 1000 457 1000 507 q 1000 441 1000 449 q 997 426 1000 433 l 950 146 q 924 76 943 104 q 879 32 904 49 q 828 8 854 15 q 781 0 801 0 l 186 0 m 422 374 l 403 260 l 569 260 q 587 265 581 260 q 594 276 593 269 l 607 343 q 608 356 608 350 q 608 361 608 358 q 601 367 607 364 q 582 374 592 374 l 422 374 z "},"7":{"ha":921,"x_min":14,"x_max":907,"o":"m 124 0 l 194 318 q 219 391 203 358 q 256 450 236 424 l 463 715 l 14 715 l 58 975 l 907 975 l 853 669 l 613 388 q 576 334 592 364 q 551 269 560 304 l 486 0 l 124 0 z "},"8":{"ha":1043,"x_min":14,"x_max":1028,"o":"m 235 0 q 153 12 193 0 q 82 47 113 24 q 33 106 51 71 q 14 188 14 142 q 17 229 14 204 q 25 279 21 254 q 33 328 29 304 q 39 368 36 353 q 79 457 49 425 q 146 504 110 489 q 140 508 143 507 q 135 511 138 508 q 92 552 111 526 q 74 622 74 578 q 76 663 74 638 q 82 713 79 688 q 88 763 85 739 q 94 803 92 788 q 122 885 101 851 q 175 938 143 918 q 247 967 207 958 q 331 975 286 975 l 807 975 q 892 965 851 975 q 962 931 932 954 q 1010 874 992 908 q 1028 789 1028 839 q 1028 776 1028 782 q 1026 764 1028 771 q 1019 701 1022 732 q 1011 639 1015 671 q 978 560 1004 590 q 919 515 951 531 q 905 508 913 511 q 890 501 897 504 q 896 499 893 500 q 901 496 899 497 q 950 456 926 482 q 974 382 974 429 q 969 335 974 367 q 960 268 965 303 q 949 200 953 232 q 942 153 944 168 q 915 84 935 113 q 865 37 894 56 q 801 9 836 18 q 728 0 765 0 l 235 0 m 451 624 q 471 617 461 617 l 613 617 q 631 622 624 617 q 639 635 638 628 q 642 651 640 642 q 646 669 643 660 q 648 686 647 679 q 649 697 649 693 q 648 703 649 700 q 642 708 647 706 q 632 714 638 713 q 622 715 626 715 l 481 715 q 463 710 469 715 q 456 699 457 706 q 449 664 450 681 q 444 635 444 646 q 451 624 444 631 m 419 260 l 564 260 q 582 265 575 260 q 590 276 589 269 q 594 298 592 283 q 600 328 597 313 q 602 342 601 335 q 604 357 603 350 q 606 367 606 360 l 606 371 q 605 376 606 374 q 599 382 604 379 q 581 389 592 389 l 436 389 q 418 383 425 389 q 410 372 411 378 q 406 351 408 365 q 400 321 403 336 q 396 292 399 304 q 394 282 394 288 l 394 279 q 393 278 393 278 q 403 265 393 269 q 419 260 413 260 z "},"9":{"ha":1079,"x_min":14,"x_max":1065,"o":"m 14 0 l 58 260 l 575 260 q 593 265 586 260 q 601 276 600 269 l 613 343 l 250 343 q 200 352 229 343 q 144 381 171 361 q 97 435 117 401 q 78 518 78 468 q 78 534 78 526 q 81 549 79 542 l 128 829 q 155 899 135 871 q 200 943 175 926 q 251 967 225 960 q 299 975 278 975 l 892 975 q 942 966 913 975 q 999 937 972 957 q 1046 883 1026 917 q 1065 799 1065 849 q 1065 783 1065 792 q 1063 768 1064 775 l 956 146 q 929 76 949 104 q 885 32 910 49 q 833 8 860 15 q 786 0 807 0 l 14 0 m 478 608 q 496 601 488 601 l 657 601 l 675 715 l 510 715 q 492 710 499 715 q 483 699 485 706 q 480 680 482 692 q 475 656 478 668 q 473 643 474 649 q 472 632 472 638 q 471 619 471 625 q 472 614 471 617 q 478 608 472 611 z "},"\u0000":{"ha":0,"x_min":0,"x_max":0,"o":""},"\r":{"ha":347,"x_min":0,"x_max":0,"o":""}," ":{"ha":278,"x_min":0,"x_max":0,"o":""},"\n":{"ha":0,"x_min":0,"x_max":0,"o":""},"!":{"ha":524,"x_min":29,"x_max":496,"o":"m 275 260 q 307 249 289 260 q 325 222 322 236 q 328 188 328 207 q 326 179 326 183 q 325 169 326 175 q 313 110 318 140 q 304 49 308 79 q 281 9 299 18 q 251 0 263 0 l 82 0 q 44 19 58 0 q 29 60 29 38 q 29 65 29 61 q 31 72 29 68 q 33 89 31 78 q 36 111 35 100 q 40 135 38 122 q 48 182 44 160 q 53 211 51 204 q 76 250 58 240 q 106 260 94 260 l 275 260 m 125 311 q 87 329 101 311 q 72 369 72 347 l 72 375 l 83 535 q 85 576 85 558 q 89 617 86 593 q 98 674 93 650 q 108 732 103 697 l 150 975 l 496 975 l 453 721 q 443 663 446 688 q 433 606 440 638 q 426 581 429 592 q 419 560 422 571 q 413 540 417 550 q 406 519 410 531 l 353 350 q 330 319 346 326 q 303 311 314 311 l 125 311 z "},"\"":{"ha":629,"x_min":28,"x_max":601,"o":"m 300 975 l 239 529 l 89 529 l 28 975 l 300 975 m 601 975 l 540 529 l 393 529 l 329 975 l 601 975 z "},"#":{"ha":1079,"x_min":14,"x_max":1065,"o":"m 14 186 l 58 446 l 193 446 l 207 529 l 71 529 l 115 789 l 251 789 l 283 975 l 565 975 l 533 789 l 664 789 l 696 975 l 978 975 l 946 789 l 1065 789 l 1021 529 l 903 529 l 889 446 l 1008 446 l 964 186 l 844 186 l 813 0 l 531 0 l 563 186 l 431 186 l 400 0 l 117 0 l 149 186 l 14 186 m 475 446 l 606 446 l 619 529 l 489 529 l 475 446 z "},"$":{"ha":1079,"x_min":14,"x_max":1065,"o":"m 58 260 l 533 260 q 560 276 553 260 q 563 290 561 282 q 567 307 564 297 q 569 319 568 313 q 571 331 571 325 q 567 339 571 333 q 556 347 564 344 l 236 468 q 200 488 219 475 q 164 522 181 501 q 136 569 147 542 q 125 633 125 597 q 128 678 125 650 q 138 733 132 706 q 148 788 143 761 q 156 829 153 814 q 182 899 163 871 q 226 943 201 926 q 278 967 251 960 q 325 975 304 975 l 493 975 l 504 1131 l 794 1131 l 753 975 l 1065 975 l 1021 715 l 543 715 q 514 675 514 715 q 528 660 514 665 l 846 538 q 882 519 863 532 q 918 485 901 506 q 946 436 935 464 q 957 372 957 408 q 953 325 957 357 q 942 260 949 293 q 931 195 936 226 q 924 147 926 164 q 897 77 917 106 q 853 32 878 49 q 801 8 828 15 q 753 0 774 0 l 586 0 l 576 -156 l 285 -156 l 328 0 l 14 0 l 58 260 z "},"%":{"ha":1326,"x_min":14,"x_max":1311,"o":"m 14 581 q 21 639 14 596 q 36 729 28 682 q 53 822 44 778 q 64 882 61 865 q 81 927 68 910 q 109 956 93 944 q 142 971 125 967 q 171 975 158 975 l 501 975 q 580 941 550 975 q 610 861 610 907 q 603 804 610 847 q 589 714 596 761 q 572 621 579 665 q 561 560 564 576 l 557 543 l 718 975 l 972 975 l 774 444 q 819 494 789 481 q 872 508 850 508 l 1203 508 q 1281 474 1251 508 q 1311 394 1311 440 q 1304 337 1311 381 q 1289 247 1297 293 q 1273 154 1281 199 q 1263 93 1265 110 q 1246 49 1258 67 q 1217 19 1233 31 q 1185 4 1201 8 q 1156 0 1168 0 l 824 0 q 746 34 776 0 q 715 114 715 68 q 722 172 715 128 q 738 261 729 215 q 754 354 746 310 q 765 415 763 399 q 768 432 765 418 l 607 0 l 354 0 l 553 531 q 506 481 536 494 q 454 467 475 467 l 122 467 q 44 501 75 467 q 14 581 14 535 m 942 161 q 944 158 943 160 q 946 156 944 157 q 960 150 953 150 l 1036 150 q 1049 154 1044 150 q 1054 161 1053 158 q 1060 198 1056 168 q 1071 261 1065 228 q 1076 293 1074 278 q 1081 321 1078 308 q 1085 342 1083 333 l 1085 347 q 1081 353 1085 351 q 1067 358 1074 358 l 992 358 q 978 354 983 358 q 974 347 974 350 q 967 310 971 340 q 956 247 963 281 q 951 215 953 231 q 946 188 949 200 q 944 176 944 181 q 943 167 943 171 q 942 163 943 164 q 942 161 942 163 m 240 628 q 242 625 242 626 q 244 622 243 624 q 258 617 251 617 l 335 617 q 347 621 343 617 q 353 628 351 625 q 358 665 356 643 q 365 708 361 686 q 372 752 368 731 q 379 788 375 774 q 383 808 382 800 l 383 814 q 379 819 383 818 q 365 825 374 825 l 290 825 q 277 821 282 825 q 272 814 272 817 q 265 777 269 807 q 254 714 261 747 q 249 682 251 697 q 244 654 247 667 q 242 642 243 647 q 242 633 242 638 q 241 630 242 631 q 240 628 240 629 z "},"&":{"ha":1076,"x_min":14,"x_max":1061,"o":"m 14 176 q 18 219 14 193 q 28 274 22 246 q 38 327 33 301 q 46 368 43 353 q 89 459 57 426 q 158 507 121 492 q 94 560 119 526 q 69 639 69 593 q 74 680 69 654 q 82 732 78 706 q 92 784 88 760 q 100 824 97 808 q 127 896 108 867 q 170 942 146 925 q 221 967 194 960 q 271 975 247 975 l 933 975 l 890 715 l 440 715 q 415 699 418 715 q 412 684 414 693 q 408 664 410 675 q 404 644 407 651 q 408 624 404 632 q 429 617 413 617 l 597 617 l 608 679 l 881 679 l 869 617 l 1061 617 l 1022 389 l 911 389 q 926 358 921 375 q 932 318 932 340 q 928 280 932 303 q 922 233 925 257 q 914 188 918 210 q 907 151 910 167 q 881 79 900 108 q 838 33 863 50 q 786 8 813 15 q 736 0 760 0 l 186 0 q 136 9 165 0 q 80 38 107 18 q 33 92 53 58 q 14 176 14 126 m 372 278 q 382 265 372 269 q 399 260 392 260 l 567 260 q 585 265 579 260 q 593 275 593 272 q 596 299 594 286 q 600 325 597 311 q 604 371 604 353 q 603 376 604 374 q 597 382 603 379 q 588 388 593 386 q 578 389 582 389 l 414 389 q 396 383 403 389 q 388 372 389 378 q 384 351 386 365 q 379 321 382 336 q 372 278 372 296 z "},"'":{"ha":328,"x_min":28,"x_max":300,"o":"m 89 529 l 28 975 l 300 975 l 239 529 l 89 529 z "},"(":{"ha":678,"x_min":14,"x_max":663,"o":"m 413 514 q 392 257 392 389 q 401 62 392 165 q 433 -128 411 -42 l 440 -156 l 58 -156 l 54 -142 q 24 65 33 -43 q 14 275 14 174 q 18 399 14 338 q 33 524 22 461 q 71 685 46 603 q 127 845 96 767 q 194 995 158 924 q 268 1125 231 1067 l 272 1131 l 663 1131 l 640 1096 q 570 969 606 1039 q 504 822 535 899 q 449 667 474 746 q 413 514 425 589 z "},")":{"ha":678,"x_min":14,"x_max":663,"o":"m 14 -156 l 36 -121 q 220 282 156 72 q 285 718 285 492 q 275 913 285 810 q 243 1103 265 1017 l 236 1131 l 619 1131 l 622 1117 q 653 910 643 1018 q 663 701 663 803 q 659 576 663 639 q 644 451 656 514 q 607 290 632 372 q 551 130 582 208 q 483 -20 519 51 q 408 -150 446 -92 l 404 -156 l 14 -156 z "},"*":{"ha":572,"x_min":14,"x_max":558,"o":"m 222 463 l 44 585 l 135 679 l 14 699 l 92 907 l 197 847 l 181 975 l 392 975 l 375 846 l 482 906 l 558 699 l 439 679 l 528 585 l 350 463 l 286 589 l 222 463 z "},"+":{"ha":763,"x_min":14,"x_max":747,"o":"m 14 358 l 58 617 l 254 617 l 279 757 l 569 757 l 547 617 l 747 617 l 704 358 l 506 358 l 483 218 l 185 218 l 210 358 l 14 358 z "},",":{"ha":421,"x_min":14,"x_max":407,"o":"m 407 260 l 214 -186 l 14 -186 l 101 260 l 407 260 z "},"-":{"ha":731,"x_min":14,"x_max":717,"o":"m 717 617 l 672 358 l 14 358 l 58 617 l 717 617 z "},".":{"ha":328,"x_min":14,"x_max":313,"o":"m 67 0 q 28 19 43 0 q 14 60 14 38 q 14 65 14 61 q 15 72 14 68 q 18 89 15 78 q 21 111 19 100 q 25 135 22 122 q 33 182 29 160 q 38 211 36 204 q 61 250 43 240 q 90 260 79 260 l 260 260 q 292 249 274 260 q 310 222 307 236 q 313 188 313 207 q 311 179 311 183 q 310 169 311 175 q 298 110 303 140 q 289 49 293 79 q 265 9 283 18 q 236 0 247 0 l 67 0 z "},"/":{"ha":676,"x_min":14,"x_max":663,"o":"m 663 975 l 331 0 l 14 0 l 346 975 l 663 975 z "},":":{"ha":392,"x_min":14,"x_max":376,"o":"m 67 0 q 28 19 43 0 q 14 60 14 38 q 14 65 14 61 q 15 72 14 68 q 18 89 15 78 q 21 111 19 100 q 25 135 22 122 q 33 182 29 160 q 38 211 36 204 q 61 250 43 240 q 90 260 79 260 l 260 260 q 292 249 274 260 q 310 222 307 236 q 313 188 313 207 q 311 179 311 183 q 310 169 311 175 q 298 110 303 140 q 289 49 293 79 q 265 9 283 18 q 236 0 247 0 l 67 0 m 324 757 q 339 755 331 757 q 354 746 347 753 q 369 728 363 740 q 376 697 376 717 q 375 685 376 692 q 374 678 375 682 q 374 668 374 674 q 362 607 367 638 q 353 546 357 576 q 329 508 347 517 q 300 499 311 499 l 131 499 q 115 501 124 499 q 100 510 107 503 q 85 526 92 515 q 78 557 78 538 q 79 571 78 564 q 80 578 79 574 q 81 588 81 582 q 92 647 88 617 q 101 708 97 678 q 125 748 107 739 q 154 757 143 757 l 324 757 z "},";":{"ha":478,"x_min":14,"x_max":463,"o":"m 419 499 l 142 499 l 185 757 l 463 757 l 419 499 m 14 -186 l 101 260 l 407 260 l 214 -186 l 14 -186 z "},"<":{"ha":676,"x_min":14,"x_max":661,"o":"m 492 0 l 114 0 l 14 492 l 276 975 l 661 975 l 393 483 l 492 0 z "},"=":{"ha":825,"x_min":14,"x_max":811,"o":"m 767 529 l 78 529 l 122 789 l 811 789 l 767 529 m 58 446 l 747 446 l 704 186 l 14 186 l 58 446 z "},">":{"ha":676,"x_min":14,"x_max":661,"o":"m 661 483 l 399 0 l 14 0 l 282 492 l 183 975 l 561 975 l 661 483 z "},"?":{"ha":854,"x_min":56,"x_max":826,"o":"m 114 11 q 99 29 106 18 q 92 60 92 40 q 92 65 92 61 q 93 72 92 68 q 94 80 93 75 q 94 89 94 85 q 115 211 107 147 q 139 251 121 242 q 168 260 157 260 l 338 260 q 369 249 351 260 q 388 222 385 236 q 390 188 390 207 q 388 169 388 176 q 376 110 381 140 q 367 49 371 79 q 343 9 361 18 q 314 0 325 0 l 144 0 q 129 2 138 0 q 114 11 121 4 m 100 975 l 653 975 q 703 966 674 975 q 760 937 733 957 q 807 883 788 917 q 826 799 826 849 q 822 753 826 782 q 813 693 818 724 q 801 634 806 663 q 793 589 796 606 q 772 528 788 554 q 735 486 756 503 q 694 460 715 469 q 654 447 672 450 l 451 410 q 440 403 443 407 q 433 397 436 400 q 429 386 432 394 l 425 369 q 408 331 419 350 q 369 311 397 311 l 190 311 q 151 329 167 311 q 136 371 136 347 q 140 429 136 399 q 150 488 144 460 q 169 551 154 525 q 206 597 185 578 q 249 625 226 615 q 289 639 271 635 l 475 674 q 492 683 486 676 q 497 697 497 690 q 488 710 497 706 q 471 715 478 715 l 56 715 l 100 975 z "},"@":{"ha":749,"x_min":28,"x_max":719,"o":"m 543 674 l 281 674 q 267 670 272 674 q 263 664 263 667 q 258 640 261 658 q 251 595 256 621 q 241 539 246 569 q 231 476 236 508 q 211 363 219 411 q 203 311 203 314 q 207 306 203 308 q 221 301 214 301 l 653 301 l 628 156 l 136 156 q 58 190 89 156 q 28 269 28 224 q 31 298 28 276 q 39 350 33 319 q 51 417 44 381 q 63 492 57 454 q 76 567 69 529 q 88 636 82 604 q 98 692 93 668 q 104 726 103 717 q 122 772 108 754 q 150 800 135 789 q 182 815 165 811 q 211 819 199 819 l 611 819 q 689 785 658 819 q 719 706 719 751 q 717 684 719 699 q 713 650 715 669 q 706 608 710 631 q 699 563 703 585 q 683 474 690 515 q 672 415 675 432 q 655 371 668 389 q 626 342 642 353 q 594 326 611 331 q 565 322 578 322 l 349 322 q 325 326 338 322 q 301 339 313 329 q 281 363 290 347 q 271 404 271 379 q 272 413 271 408 q 272 421 272 417 q 274 430 274 425 q 275 442 274 435 q 280 467 278 453 q 285 494 282 481 q 294 549 290 524 q 301 586 299 575 q 313 619 304 606 q 333 640 322 632 q 356 651 344 647 q 376 654 368 654 l 540 654 q 542 663 542 657 q 543 674 543 667 m 431 507 q 428 496 429 503 q 425 482 428 489 q 424 474 425 478 q 424 467 424 469 l 506 467 q 508 468 507 467 l 515 508 l 433 508 q 431 507 431 508 z "},"A":{"ha":1081,"x_min":14,"x_max":1067,"o":"m 279 975 l 811 975 q 860 967 832 975 q 914 941 888 960 q 960 892 940 922 q 983 818 979 863 l 1067 0 l 706 0 l 692 140 l 415 140 l 376 0 l 14 0 l 279 975 m 567 694 l 486 400 l 665 400 l 635 699 q 626 710 633 704 q 608 715 619 715 l 435 715 q 419 713 424 715 q 413 707 415 710 q 410 701 411 704 q 407 694 410 699 l 567 694 z "},"B":{"ha":1176,"x_min":14,"x_max":1163,"o":"m 14 0 l 179 975 l 990 975 q 1041 966 1011 975 q 1098 937 1071 957 q 1144 883 1125 917 q 1163 799 1163 849 q 1160 762 1163 783 q 1156 718 1158 740 q 1149 675 1153 696 q 1143 639 1146 654 q 1128 587 1139 610 q 1101 547 1117 564 q 1065 517 1085 529 q 1026 499 1046 506 q 1084 446 1063 472 q 1106 369 1106 419 q 1102 324 1106 354 q 1093 261 1099 293 q 1083 199 1088 229 q 1076 153 1079 168 q 1051 81 1071 110 q 1006 33 1031 51 q 953 8 981 15 q 906 0 926 0 l 14 0 m 510 694 l 496 617 l 763 617 q 781 622 774 617 q 789 635 788 628 q 792 651 790 642 q 796 669 793 660 q 800 697 800 689 q 790 710 800 706 q 774 715 781 715 l 378 715 q 360 712 365 715 q 351 694 354 708 l 510 694 m 436 260 l 731 260 q 749 265 742 260 q 757 276 756 269 q 761 298 758 283 q 767 328 764 313 q 769 342 768 335 q 771 357 769 350 l 772 364 q 774 368 774 365 q 774 371 774 369 q 764 384 774 379 q 747 389 754 389 l 458 389 l 436 260 z "},"C":{"ha":1111,"x_min":14,"x_max":1096,"o":"m 478 694 l 472 669 q 467 642 471 663 q 459 593 464 621 q 449 531 454 565 q 438 463 443 497 q 426 394 432 426 q 415 335 419 361 q 408 294 411 310 q 406 278 406 279 q 415 265 406 269 q 432 260 425 260 l 975 260 l 931 0 l 186 0 q 136 9 165 0 q 80 38 107 18 q 33 92 53 58 q 14 176 14 126 q 15 192 14 183 q 17 207 15 200 l 122 829 q 149 899 129 871 q 193 943 168 926 q 244 967 218 960 q 292 975 271 975 l 1096 975 l 1053 715 l 344 715 q 328 711 333 715 q 318 694 322 707 l 478 694 z "},"D":{"ha":1174,"x_min":14,"x_max":1160,"o":"m 14 0 l 179 975 l 988 975 q 1038 966 1008 975 q 1095 937 1068 957 q 1141 883 1122 917 q 1160 799 1160 849 q 1160 783 1160 792 q 1157 768 1160 775 l 1051 146 q 1025 76 1044 104 q 981 32 1006 49 q 929 8 956 15 q 882 0 903 0 l 14 0 m 436 260 l 671 260 q 688 265 682 260 q 696 276 694 269 q 701 305 697 283 q 710 357 706 326 q 722 424 715 388 q 735 499 729 461 q 748 573 742 538 q 758 635 754 608 q 765 679 763 663 q 768 697 768 696 q 761 708 768 703 q 751 714 757 713 q 742 715 746 715 l 378 715 q 360 712 365 715 q 351 694 354 708 l 510 694 l 436 260 z "},"E":{"ha":1079,"x_min":14,"x_max":1065,"o":"m 14 176 q 15 192 14 183 q 17 207 15 200 l 122 829 q 149 899 129 871 q 193 943 168 926 q 244 967 218 960 q 292 975 271 975 l 1065 975 l 1021 715 l 344 715 q 328 711 333 715 q 318 694 322 707 l 478 694 l 467 633 l 914 633 l 867 374 l 422 374 q 418 352 419 364 q 414 329 417 340 q 411 310 413 319 q 408 294 410 301 q 408 285 408 292 q 406 278 407 279 q 415 265 406 269 q 432 260 425 260 l 943 260 l 899 0 l 186 0 q 136 9 165 0 q 80 38 107 18 q 33 92 53 58 q 14 176 14 126 z "},"F":{"ha":1079,"x_min":14,"x_max":1065,"o":"m 378 715 q 360 711 365 715 q 351 694 354 707 l 510 694 l 481 524 l 924 524 l 875 264 l 436 264 l 392 0 l 14 0 l 156 829 q 182 899 163 871 q 226 943 201 926 q 278 967 251 960 q 325 975 304 975 l 1065 975 l 1021 715 l 378 715 z "},"G":{"ha":1190,"x_min":14,"x_max":1176,"o":"m 14 176 q 15 192 14 183 q 17 207 15 200 l 122 829 q 149 899 129 871 q 193 943 168 926 q 244 967 218 960 q 292 975 271 975 l 1176 975 l 1132 715 l 344 715 q 327 711 333 715 q 318 694 321 707 l 478 694 l 403 260 l 676 260 l 700 374 l 538 374 l 585 633 l 1121 633 l 1035 146 q 1008 76 1028 104 q 964 32 989 49 q 913 8 939 15 q 865 0 886 0 l 186 0 q 136 9 165 0 q 80 38 107 18 q 33 92 53 58 q 14 176 14 126 z "},"H":{"ha":1239,"x_min":14,"x_max":1225,"o":"m 14 0 l 179 975 l 565 975 l 507 633 l 781 633 l 839 975 l 1225 975 l 1058 0 l 674 0 l 736 374 l 328 374 q 310 369 315 374 q 301 353 304 365 l 460 353 l 400 0 l 14 0 z "},"I":{"ha":615,"x_min":28,"x_max":588,"o":"m 421 0 l 28 0 l 193 975 l 588 975 l 543 715 l 407 715 q 390 712 396 715 q 381 694 385 708 l 539 694 l 421 0 z "},"J":{"ha":985,"x_min":14,"x_max":971,"o":"m 704 694 l 704 697 q 697 708 704 703 q 688 714 693 713 q 678 715 682 715 l 394 715 l 439 975 l 971 975 l 829 146 q 803 76 822 104 q 758 32 783 49 q 707 8 733 15 q 660 0 681 0 l 14 0 l 58 260 l 447 260 q 465 265 458 260 q 474 276 472 269 l 544 694 l 704 694 z "},"K":{"ha":1218,"x_min":14,"x_max":1204,"o":"m 14 0 l 179 975 l 557 975 l 496 617 l 625 617 l 819 975 l 1204 975 l 936 483 l 1035 0 l 657 0 l 583 358 l 317 358 q 299 354 304 358 q 290 338 293 350 l 449 338 l 392 0 l 14 0 z "},"L":{"ha":919,"x_min":14,"x_max":906,"o":"m 454 281 l 318 281 q 300 276 306 281 q 292 260 294 272 l 906 260 l 868 0 l 14 0 l 179 975 l 574 975 l 454 281 z "},"M":{"ha":1619,"x_min":14,"x_max":1604,"o":"m 156 829 q 182 899 163 871 q 226 943 201 926 q 278 967 251 960 q 325 975 304 975 l 742 975 q 822 953 781 975 q 883 875 863 932 q 922 922 899 903 q 971 953 946 942 q 1019 970 996 965 q 1060 975 1043 975 l 1432 975 q 1483 966 1453 975 q 1540 937 1513 957 q 1585 883 1567 917 q 1604 799 1604 849 q 1604 783 1604 792 q 1601 768 1604 775 l 1471 0 l 1086 0 l 1090 26 q 1099 71 1093 38 q 1114 153 1106 104 q 1132 260 1122 201 q 1151 379 1142 319 q 1172 497 1163 440 q 1189 598 1182 554 q 1200 669 1196 642 q 1204 697 1204 696 q 1203 703 1204 700 q 1197 708 1203 706 q 1188 714 1193 713 q 1178 715 1182 715 l 1068 715 q 1043 699 1043 715 l 924 0 l 563 0 l 567 26 q 574 71 568 38 q 589 153 581 104 q 608 260 597 201 q 628 379 618 319 q 649 497 639 440 q 665 598 658 554 q 676 669 672 642 q 681 697 681 696 q 671 710 681 706 q 654 715 661 715 l 386 715 q 368 711 374 715 q 360 694 363 707 l 518 694 l 400 0 l 14 0 l 156 829 z "},"N":{"ha":1238,"x_min":14,"x_max":1224,"o":"m 179 975 l 1051 975 q 1102 966 1072 975 q 1159 937 1132 957 q 1205 883 1186 917 q 1224 799 1224 849 q 1223 783 1224 792 q 1221 768 1222 775 l 1090 0 l 713 0 l 717 26 q 726 71 719 38 q 740 153 732 104 q 758 260 749 201 q 778 379 768 319 q 799 497 789 440 q 816 598 808 554 q 828 669 824 642 q 832 697 832 696 q 822 710 832 706 q 806 715 813 715 l 378 715 q 360 711 365 715 q 351 694 354 707 l 510 694 l 392 0 l 14 0 l 179 975 z "},"O":{"ha":1206,"x_min":14,"x_max":1190,"o":"m 186 0 q 136 9 165 0 q 80 38 107 18 q 33 92 53 58 q 14 176 14 126 q 15 192 14 183 q 17 207 15 200 l 122 829 q 149 899 129 871 q 193 943 168 926 q 244 967 218 960 q 292 975 271 975 l 1018 975 q 1069 966 1039 975 q 1126 937 1099 957 q 1172 883 1153 917 q 1190 799 1190 849 q 1190 783 1190 792 q 1189 768 1190 775 l 1082 146 q 1056 76 1075 104 q 1011 32 1036 49 q 960 8 986 15 q 913 0 933 0 l 186 0 m 467 694 l 463 669 q 458 642 461 663 q 449 593 454 621 q 439 531 444 565 q 426 463 433 497 q 415 394 421 426 q 406 335 410 361 q 399 294 401 310 q 397 278 397 279 q 398 272 397 275 q 404 267 399 269 q 414 261 408 263 q 422 260 419 260 l 711 260 q 729 265 722 260 q 738 276 736 269 q 742 305 739 283 q 751 357 746 326 q 763 424 757 388 q 775 499 769 461 q 788 573 782 538 q 799 635 794 608 q 806 679 803 663 q 808 697 808 696 q 801 708 808 703 q 792 714 797 713 q 782 715 786 715 l 335 715 q 317 712 322 715 q 308 694 311 708 l 467 694 z "},"P":{"ha":1174,"x_min":14,"x_max":1160,"o":"m 392 0 l 14 0 l 179 975 l 988 975 q 1038 966 1008 975 q 1095 937 1068 957 q 1141 883 1122 917 q 1160 799 1160 849 q 1160 783 1160 792 q 1157 768 1160 775 l 1096 410 q 1069 340 1089 368 q 1025 296 1050 313 q 974 272 1000 279 q 926 264 947 264 l 436 264 l 392 0 m 481 524 l 715 524 q 733 529 726 524 q 742 540 740 535 q 747 573 743 549 q 756 625 751 597 q 760 651 758 639 q 764 675 763 664 q 766 685 765 681 q 767 693 767 689 q 768 696 768 694 q 768 697 768 696 q 761 708 768 703 q 751 714 757 713 q 742 715 746 715 l 378 715 q 360 712 365 715 q 351 694 354 708 l 510 694 l 481 524 z "},"Q":{"ha":1206,"x_min":14,"x_max":1190,"o":"m 14 176 q 15 192 14 183 q 17 207 15 200 l 122 829 q 149 899 129 871 q 193 943 168 926 q 244 967 218 960 q 292 975 271 975 l 1018 975 q 1069 966 1039 975 q 1126 937 1099 957 q 1172 883 1153 917 q 1190 799 1190 849 q 1190 783 1190 792 q 1189 768 1190 775 l 1082 146 q 1056 76 1075 104 q 1011 32 1036 49 q 960 8 986 15 q 913 0 933 0 l 743 0 l 779 -169 l 503 -187 l 489 0 l 186 0 q 136 9 165 0 q 80 38 107 18 q 33 92 53 58 q 14 176 14 126 m 469 694 l 465 669 q 460 642 464 663 q 451 594 457 622 q 440 531 446 565 q 429 463 435 497 q 418 394 424 426 q 408 335 413 361 q 401 294 404 310 q 399 278 399 279 q 399 272 399 275 q 406 267 400 269 q 415 261 410 263 q 425 260 421 260 l 469 260 l 460 383 l 660 383 l 688 260 l 710 260 q 735 276 732 260 q 740 305 736 283 q 750 357 744 326 q 762 424 756 388 q 774 499 768 461 q 787 573 781 538 q 797 635 793 608 q 804 679 801 663 q 807 697 807 696 q 797 710 807 706 q 781 715 788 715 l 336 715 q 319 712 325 715 q 311 694 314 708 l 469 694 z "},"R":{"ha":1174,"x_min":14,"x_max":1160,"o":"m 179 975 l 988 975 q 1038 966 1008 975 q 1095 937 1068 957 q 1141 883 1122 917 q 1160 799 1160 849 q 1160 783 1160 792 q 1157 768 1160 775 l 1096 410 q 1074 346 1090 372 q 1035 303 1057 319 q 988 277 1013 286 q 943 265 964 268 l 997 0 l 651 0 l 597 264 l 436 264 l 392 0 l 14 0 l 179 975 m 510 694 l 481 524 l 715 524 q 733 529 726 524 q 742 540 740 535 q 747 573 743 549 q 756 625 751 597 q 764 675 763 653 q 766 685 765 681 q 767 693 767 689 q 768 696 768 694 l 768 697 q 758 710 768 706 q 742 715 749 715 l 378 715 q 360 712 365 715 q 351 694 354 708 l 510 694 z "},"S":{"ha":1079,"x_min":14,"x_max":1065,"o":"m 58 260 l 533 260 q 551 265 544 260 q 560 276 557 269 q 563 290 561 282 q 567 307 564 297 q 569 319 568 313 q 571 331 571 325 q 567 339 571 333 q 556 347 564 344 l 236 468 q 200 488 219 475 q 164 521 181 500 q 136 569 147 542 q 125 633 125 597 q 128 678 125 650 q 138 733 132 706 q 148 788 143 761 q 156 829 153 814 q 182 899 163 871 q 226 943 201 926 q 278 967 251 960 q 325 975 304 975 l 1065 975 l 1021 715 l 385 715 q 368 711 374 715 q 358 694 363 707 l 513 694 l 514 675 q 528 660 514 665 l 846 538 q 882 519 863 532 q 918 485 901 506 q 946 436 935 464 q 957 372 957 408 q 953 325 957 357 q 942 260 949 293 q 931 195 936 226 q 924 147 926 164 q 897 77 917 106 q 853 32 878 49 q 801 8 828 15 q 753 0 774 0 l 14 0 l 58 260 z "},"T":{"ha":1079,"x_min":14,"x_max":1065,"o":"m 14 715 l 58 975 l 1065 975 l 1021 715 l 576 715 q 558 712 564 715 q 550 694 553 708 l 708 694 l 590 0 l 213 0 l 335 715 l 14 715 z "},"U":{"ha":1207,"x_min":14,"x_max":1192,"o":"m 14 176 q 15 192 14 183 q 17 207 15 200 l 147 975 l 525 975 l 521 949 q 514 905 519 939 q 500 822 508 871 q 481 715 492 774 q 460 596 471 656 q 440 478 450 535 q 423 377 431 421 q 410 306 415 333 q 406 278 406 279 q 415 265 406 269 q 432 260 425 260 l 851 260 l 851 263 q 842 276 851 271 q 825 281 832 281 l 696 281 l 814 975 l 1192 975 l 1026 0 l 186 0 q 136 9 165 0 q 80 38 107 18 q 33 92 53 58 q 14 176 14 126 z "},"V":{"ha":1113,"x_min":14,"x_max":1099,"o":"m 390 975 l 461 276 q 468 265 461 271 q 486 260 475 260 l 688 260 l 688 263 q 678 275 688 269 q 663 281 669 281 l 535 281 l 719 975 l 1099 975 l 833 0 l 269 0 q 221 8 249 0 q 167 34 193 15 q 121 83 140 53 q 97 158 101 114 l 14 975 l 390 975 z "},"W":{"ha":1619,"x_min":14,"x_max":1604,"o":"m 17 207 l 147 975 l 533 975 l 528 949 q 521 905 526 939 q 507 822 515 871 q 488 715 499 774 q 467 596 478 656 q 447 478 457 535 q 431 377 438 421 q 419 306 424 333 q 414 278 414 279 q 424 265 414 269 q 440 260 433 260 l 550 260 q 576 276 574 260 l 694 975 l 1057 975 l 1053 949 q 1046 905 1051 939 q 1032 822 1040 871 q 1013 715 1024 774 q 992 596 1003 656 q 972 478 982 535 q 955 377 963 421 q 942 306 947 333 q 938 278 938 279 q 946 267 938 274 q 964 260 953 260 l 1257 260 l 1257 263 q 1250 274 1257 267 q 1231 281 1239 281 l 1101 281 l 1219 975 l 1604 975 l 1464 146 q 1437 76 1457 104 q 1392 32 1417 49 q 1340 8 1367 15 q 1293 0 1314 0 l 889 0 q 851 4 872 0 q 808 18 829 8 q 769 46 788 28 q 738 90 750 64 q 703 46 724 64 q 659 18 682 28 q 615 4 636 8 q 576 0 593 0 l 186 0 q 136 9 165 0 q 80 38 107 18 q 33 92 53 58 q 14 176 14 126 q 15 192 14 183 q 17 207 15 200 z "},"X":{"ha":1226,"x_min":14,"x_max":1213,"o":"m 265 492 l 167 975 l 544 975 l 617 617 l 650 617 l 829 975 l 1213 975 l 963 483 l 1061 0 l 683 0 l 610 358 l 436 358 q 422 355 426 358 q 413 346 417 351 q 410 342 411 343 q 407 338 408 340 l 567 338 l 397 0 l 14 0 l 265 492 z "},"Y":{"ha":1124,"x_min":14,"x_max":1110,"o":"m 392 975 l 479 571 l 494 571 l 725 975 l 1110 975 l 826 449 q 788 399 810 417 q 739 371 765 381 q 683 359 713 361 q 621 357 653 357 q 574 359 597 358 q 526 360 550 360 q 499 351 508 357 q 490 340 490 346 q 489 338 489 338 l 649 338 l 590 0 l 214 0 l 275 361 q 227 372 253 364 q 178 397 201 381 q 138 438 156 413 q 113 497 119 463 l 14 975 l 392 975 z "},"Z":{"ha":1079,"x_min":14,"x_max":1065,"o":"m 944 260 l 900 0 l 14 0 l 60 268 l 554 715 l 136 715 l 179 975 l 1065 975 l 1019 707 l 549 281 l 401 281 q 382 272 390 281 l 367 260 l 944 260 z "},"[":{"ha":794,"x_min":14,"x_max":779,"o":"m 560 -156 l 186 -156 q 136 -147 165 -156 q 80 -117 107 -137 q 33 -63 53 -97 q 14 21 14 -29 q 15 36 14 28 q 17 51 15 44 l 175 985 q 201 1054 182 1026 q 246 1099 221 1082 q 297 1123 271 1115 q 344 1131 324 1131 l 779 1131 l 735 871 l 583 871 q 565 866 572 871 q 557 854 558 861 q 549 806 556 843 q 534 715 543 768 q 514 599 525 663 q 492 469 503 535 q 470 340 481 403 q 451 230 460 278 q 438 153 443 182 q 433 122 433 124 q 443 109 433 114 q 460 104 453 104 l 604 104 l 560 -156 z "},"\\":{"ha":676,"x_min":14,"x_max":663,"o":"m 346 0 l 14 975 l 331 975 l 663 0 l 346 0 z "},"]":{"ha":794,"x_min":14,"x_max":779,"o":"m 333 871 l 189 871 l 233 1131 l 607 1131 q 658 1122 628 1131 q 715 1092 688 1113 q 760 1038 742 1072 q 779 954 779 1004 q 778 939 779 947 q 776 924 778 931 l 618 -10 q 592 -79 611 -51 q 547 -124 572 -107 q 496 -148 522 -140 q 449 -156 469 -156 l 14 -156 l 58 104 l 210 104 q 228 109 221 104 q 235 121 235 114 q 244 169 238 132 q 259 260 250 207 q 279 377 268 313 q 301 507 290 442 q 323 635 313 574 q 342 745 333 697 q 355 822 350 793 q 360 853 360 851 q 350 866 360 861 q 333 871 340 871 z "},"^":{"ha":572,"x_min":14,"x_max":557,"o":"m 14 622 l 100 1131 l 471 1131 l 557 622 l 339 622 l 286 933 l 233 622 l 14 622 z "},"_":{"ha":1015,"x_min":14,"x_max":1001,"o":"m 1001 -6 l 958 -264 l 14 -264 l 58 -6 l 1001 -6 z "},"`":{"ha":281,"x_min":28,"x_max":251,"o":"m 139 965 l 28 1161 l 201 1161 l 251 965 l 139 965 z "},"a":{"ha":1081,"x_min":14,"x_max":1067,"o":"m 14 0 l 279 975 l 811 975 q 860 967 832 975 q 914 941 888 960 q 960 892 940 922 q 983 818 979 863 l 1067 0 l 706 0 l 692 140 l 415 140 l 376 0 l 14 0 m 665 400 l 635 699 q 626 710 633 704 q 608 715 619 715 l 572 715 l 486 400 l 665 400 z "},"b":{"ha":1176,"x_min":14,"x_max":1163,"o":"m 14 0 l 179 975 l 990 975 q 1041 966 1011 975 q 1098 937 1071 957 q 1144 883 1125 917 q 1163 799 1163 849 q 1160 762 1163 783 q 1156 718 1158 740 q 1149 675 1153 696 q 1143 639 1146 654 q 1128 587 1139 610 q 1101 547 1117 564 q 1065 517 1085 529 q 1026 499 1046 506 q 1084 446 1063 472 q 1106 369 1106 419 q 1102 324 1106 354 q 1093 261 1099 293 q 1083 199 1088 229 q 1076 153 1079 168 q 1051 81 1071 110 q 1006 33 1031 51 q 953 8 981 15 q 906 0 926 0 l 14 0 m 514 715 l 496 617 l 763 617 q 781 622 774 617 q 789 635 788 628 q 792 651 790 642 q 796 669 793 660 q 800 697 800 689 q 790 710 800 706 q 774 715 781 715 l 514 715 m 458 389 l 436 260 l 731 260 q 749 265 742 260 q 757 276 756 269 q 761 298 758 283 q 767 328 764 313 q 769 342 768 335 q 771 357 769 350 l 772 364 q 774 368 774 365 q 774 371 774 369 q 764 384 774 379 q 747 389 754 389 l 458 389 z "},"c":{"ha":1111,"x_min":14,"x_max":1096,"o":"m 931 0 l 186 0 q 136 9 165 0 q 80 38 107 18 q 33 92 53 58 q 14 176 14 126 q 15 192 14 183 q 17 207 15 200 l 122 829 q 149 899 129 871 q 193 943 168 926 q 244 967 218 960 q 292 975 271 975 l 1096 975 l 1053 715 l 504 715 q 486 710 493 715 q 478 699 479 706 q 473 670 476 692 q 464 618 469 649 q 452 551 458 588 q 439 476 446 514 q 427 402 433 438 q 416 340 421 367 q 408 296 411 313 q 406 278 406 279 q 415 265 406 269 q 432 260 425 260 l 975 260 l 931 0 z "},"d":{"ha":1174,"x_min":14,"x_max":1160,"o":"m 761 708 q 751 714 757 713 q 742 715 746 715 l 514 715 l 436 260 l 671 260 q 688 265 682 260 q 696 276 694 269 q 701 305 697 283 q 710 357 706 326 q 722 424 715 388 q 735 499 729 461 q 748 573 742 538 q 758 635 754 608 q 765 679 763 663 q 768 697 768 696 q 761 708 768 703 m 1160 799 q 1160 783 1160 792 q 1157 768 1160 775 l 1051 146 q 1025 76 1044 104 q 981 32 1006 49 q 929 8 956 15 q 882 0 903 0 l 14 0 l 179 975 l 988 975 q 1038 966 1008 975 q 1095 937 1068 957 q 1141 883 1122 917 q 1160 799 1160 849 z "},"e":{"ha":1079,"x_min":14,"x_max":1065,"o":"m 422 374 q 418 352 419 364 q 414 329 417 340 q 411 310 413 319 q 408 294 410 301 q 408 285 408 292 q 406 278 407 279 q 415 265 406 269 q 432 260 425 260 l 943 260 l 899 0 l 186 0 q 136 9 165 0 q 80 38 107 18 q 33 92 53 58 q 14 176 14 126 q 15 192 14 183 q 17 207 15 200 l 122 829 q 149 899 129 871 q 193 943 168 926 q 244 967 218 960 q 292 975 271 975 l 1065 975 l 1021 715 l 504 715 q 486 710 493 715 q 478 699 479 706 l 467 633 l 914 633 l 867 374 l 422 374 z "},"f":{"ha":1079,"x_min":14,"x_max":1065,"o":"m 924 524 l 875 264 l 436 264 l 392 0 l 14 0 l 156 829 q 182 899 163 871 q 226 943 201 926 q 278 967 251 960 q 325 975 304 975 l 1065 975 l 1021 715 l 536 715 q 518 710 525 715 q 510 699 511 706 l 481 524 l 924 524 z "},"g":{"ha":1190,"x_min":14,"x_max":1176,"o":"m 481 715 l 403 260 l 676 260 l 700 374 l 538 374 l 585 633 l 1121 633 l 1035 146 q 1008 76 1028 104 q 964 32 989 49 q 913 8 939 15 q 865 0 886 0 l 186 0 q 136 9 165 0 q 80 38 107 18 q 33 92 53 58 q 14 176 14 126 q 15 192 14 183 q 17 207 15 200 l 122 829 q 149 899 129 871 q 193 943 168 926 q 244 967 218 960 q 292 975 271 975 l 1176 975 l 1132 715 l 481 715 z "},"h":{"ha":1239,"x_min":14,"x_max":1225,"o":"m 179 975 l 565 975 l 507 633 l 781 633 l 839 975 l 1225 975 l 1058 0 l 674 0 l 736 374 l 463 374 l 400 0 l 14 0 l 179 975 z "},"i":{"ha":615,"x_min":28,"x_max":588,"o":"m 588 975 l 421 0 l 28 0 l 193 975 l 588 975 z "},"j":{"ha":985,"x_min":14,"x_max":971,"o":"m 394 715 l 439 975 l 971 975 l 829 146 q 803 76 822 104 q 758 32 783 49 q 707 8 733 15 q 660 0 681 0 l 14 0 l 58 260 l 447 260 q 465 265 458 260 q 474 276 472 269 l 549 715 l 394 715 z "},"k":{"ha":1218,"x_min":14,"x_max":1204,"o":"m 179 975 l 557 975 l 496 617 l 625 617 l 819 975 l 1204 975 l 936 483 l 1035 0 l 657 0 l 583 358 l 453 358 l 392 0 l 14 0 l 179 975 z "},"l":{"ha":919,"x_min":14,"x_max":906,"o":"m 868 0 l 14 0 l 179 975 l 574 975 l 450 260 l 906 260 l 868 0 z "},"m":{"ha":1619,"x_min":14,"x_max":1604,"o":"m 156 829 q 182 899 163 871 q 226 943 201 926 q 278 967 251 960 q 325 975 304 975 l 742 975 q 822 953 781 975 q 883 875 863 932 q 922 922 899 903 q 971 953 946 942 q 1019 970 996 965 q 1060 975 1043 975 l 1432 975 q 1483 966 1453 975 q 1540 937 1513 957 q 1585 883 1567 917 q 1604 799 1604 849 q 1604 783 1604 792 q 1601 768 1604 775 l 1471 0 l 1086 0 l 1090 26 q 1099 71 1093 38 q 1114 153 1106 104 q 1132 260 1122 201 q 1151 379 1142 319 q 1172 497 1163 440 q 1189 598 1182 554 q 1200 669 1196 642 q 1204 697 1204 696 q 1203 703 1204 700 q 1197 708 1203 706 q 1188 714 1193 713 q 1178 715 1182 715 l 1068 715 q 1043 699 1043 715 l 924 0 l 563 0 l 567 26 q 574 71 568 38 q 589 153 581 104 q 608 260 597 201 q 628 379 618 319 q 649 497 639 440 q 665 598 658 554 q 676 669 672 642 q 681 697 681 696 q 671 710 681 706 q 654 715 661 715 l 544 715 q 518 699 521 715 l 400 0 l 14 0 l 156 829 z "},"n":{"ha":1238,"x_min":14,"x_max":1224,"o":"m 179 975 l 1051 975 q 1102 966 1072 975 q 1159 937 1132 957 q 1205 883 1186 917 q 1224 799 1224 849 q 1223 783 1224 792 q 1221 768 1222 775 l 1090 0 l 713 0 l 717 26 q 726 71 719 38 q 740 153 732 104 q 758 260 749 201 q 778 379 768 319 q 799 497 789 440 q 816 598 808 554 q 828 669 824 642 q 832 697 832 696 q 822 710 832 706 q 806 715 813 715 l 514 715 l 392 0 l 14 0 l 179 975 z "},"o":{"ha":1206,"x_min":14,"x_max":1190,"o":"m 467 699 q 462 670 465 692 q 453 618 458 649 q 442 551 449 588 q 429 476 436 514 q 417 402 424 438 q 407 340 411 367 q 400 296 403 313 q 397 278 397 279 q 398 272 397 275 q 404 267 399 269 q 414 261 408 263 q 422 260 419 260 l 711 260 q 729 265 722 260 q 738 276 736 269 q 742 305 739 283 q 751 357 746 326 q 763 424 757 388 q 775 499 769 461 q 788 573 782 538 q 799 635 794 608 q 806 679 803 663 q 808 697 808 696 q 801 708 808 703 q 792 714 797 713 q 782 715 786 715 l 493 715 q 475 710 482 715 q 467 699 468 706 m 1018 975 q 1069 966 1039 975 q 1126 937 1099 957 q 1172 883 1153 917 q 1190 799 1190 849 q 1190 783 1190 792 q 1189 768 1190 775 l 1082 146 q 1056 76 1075 104 q 1011 32 1036 49 q 960 8 986 15 q 913 0 933 0 l 186 0 q 136 9 165 0 q 80 38 107 18 q 33 92 53 58 q 14 176 14 126 q 15 192 14 183 q 17 207 15 200 l 122 829 q 149 899 129 871 q 193 943 168 926 q 244 967 218 960 q 292 975 271 975 l 1018 975 z "},"p":{"ha":1174,"x_min":14,"x_max":1160,"o":"m 392 0 l 14 0 l 179 975 l 988 975 q 1038 966 1008 975 q 1095 937 1068 957 q 1141 883 1122 917 q 1160 799 1160 849 q 1160 783 1160 792 q 1157 768 1160 775 l 1096 410 q 1069 340 1089 368 q 1025 296 1050 313 q 974 272 1000 279 q 926 264 947 264 l 436 264 l 392 0 m 514 715 l 481 524 l 715 524 q 733 529 726 524 q 742 540 740 535 q 747 573 743 549 q 756 625 751 597 q 760 651 758 639 q 764 675 763 664 q 766 685 765 681 q 767 693 767 689 q 768 696 768 694 q 768 697 768 696 q 761 708 768 703 q 751 714 757 713 q 742 715 746 715 l 514 715 z "},"q":{"ha":1206,"x_min":14,"x_max":1190,"o":"m 14 176 q 15 192 14 183 q 17 207 15 200 l 122 829 q 149 899 129 871 q 193 943 168 926 q 244 967 218 960 q 292 975 271 975 l 1018 975 q 1069 966 1039 975 q 1126 937 1099 957 q 1172 883 1153 917 q 1190 799 1190 849 q 1190 783 1190 792 q 1189 768 1190 775 l 1082 146 q 1056 76 1075 104 q 1011 32 1036 49 q 960 8 986 15 q 913 0 933 0 l 743 0 l 779 -169 l 503 -187 l 489 0 l 186 0 q 136 9 165 0 q 80 38 107 18 q 33 92 53 58 q 14 176 14 126 m 406 267 q 415 261 410 263 q 425 260 421 260 l 469 260 l 460 383 l 660 383 l 688 260 l 710 260 q 735 276 732 260 q 740 305 736 283 q 750 357 744 326 q 762 424 756 388 q 774 499 768 461 q 787 573 781 538 q 797 635 793 608 q 804 679 801 663 q 807 697 807 696 q 797 710 807 706 q 781 715 788 715 l 496 715 q 469 699 472 715 q 465 670 468 692 q 456 618 461 649 q 445 551 451 588 q 432 476 439 514 q 419 402 425 438 q 408 340 413 367 q 401 296 404 313 q 399 278 399 279 q 399 272 399 275 q 406 267 400 269 z "},"r":{"ha":1174,"x_min":14,"x_max":1160,"o":"m 14 0 l 179 975 l 988 975 q 1038 966 1008 975 q 1095 937 1068 957 q 1141 883 1122 917 q 1160 799 1160 849 q 1160 783 1160 792 q 1157 768 1160 775 l 1096 410 q 1074 346 1090 372 q 1035 303 1057 319 q 988 277 1013 286 q 943 265 964 268 l 997 0 l 651 0 l 597 264 l 436 264 l 392 0 l 14 0 m 715 524 q 733 529 726 524 q 742 540 740 535 q 747 573 743 549 q 756 625 751 597 q 764 675 763 653 q 766 685 765 681 q 767 693 767 689 q 768 696 768 694 l 768 697 q 758 710 768 706 q 742 715 749 715 l 514 715 l 481 524 l 715 524 z "},"s":{"ha":1079,"x_min":14,"x_max":1065,"o":"m 58 260 l 533 260 q 551 265 544 260 q 560 276 558 269 q 563 290 561 282 q 567 307 564 297 q 569 319 568 313 q 571 331 571 325 q 567 339 571 333 q 556 347 564 344 l 236 468 q 200 488 219 475 q 164 521 181 500 q 136 569 147 542 q 125 633 125 597 q 128 678 125 650 q 138 733 132 706 q 148 788 143 761 q 156 829 153 814 q 182 899 163 871 q 226 943 201 926 q 278 967 251 960 q 325 975 304 975 l 1065 975 l 1021 715 l 543 715 q 514 675 514 715 q 517 667 514 672 q 528 660 521 663 l 846 538 q 882 519 863 532 q 918 485 901 506 q 946 436 935 464 q 957 372 957 408 q 953 325 957 357 q 942 260 949 293 q 931 195 936 226 q 924 147 926 164 q 897 77 917 106 q 853 32 878 49 q 801 8 828 15 q 753 0 774 0 l 14 0 l 58 260 z "},"t":{"ha":1079,"x_min":14,"x_max":1065,"o":"m 14 715 l 58 975 l 1065 975 l 1021 715 l 711 715 l 590 0 l 213 0 l 335 715 l 14 715 z "},"u":{"ha":1207,"x_min":14,"x_max":1192,"o":"m 14 176 q 15 192 14 183 q 17 207 15 200 l 147 975 l 525 975 l 521 949 q 514 905 519 939 q 500 822 508 871 q 481 715 492 774 q 460 596 471 656 q 440 478 450 535 q 423 377 431 421 q 410 306 415 333 q 406 278 406 279 q 415 265 406 269 q 432 260 425 260 l 693 260 l 814 975 l 1192 975 l 1026 0 l 186 0 q 136 9 165 0 q 80 38 107 18 q 33 92 53 58 q 14 176 14 126 z "},"v":{"ha":1113,"x_min":14,"x_max":1099,"o":"m 390 975 l 461 276 q 467 267 461 272 q 489 260 475 261 q 510 258 493 258 l 529 258 l 719 975 l 1099 975 l 833 0 l 269 0 q 221 8 249 0 q 167 34 193 15 q 121 83 140 53 q 97 158 101 114 l 14 975 l 390 975 z "},"w":{"ha":1619,"x_min":14,"x_max":1604,"o":"m 17 207 l 147 975 l 533 975 l 528 949 q 521 905 526 939 q 507 822 515 871 q 488 715 499 774 q 467 596 478 656 q 447 478 457 535 q 431 377 438 421 q 419 306 424 333 q 414 278 414 279 q 424 265 414 269 q 440 260 433 260 l 550 260 q 576 276 574 260 l 694 975 l 1057 975 l 1053 949 q 1046 905 1051 939 q 1032 822 1040 871 q 1013 715 1024 774 q 992 596 1003 656 q 972 478 982 535 q 955 377 963 421 q 942 306 947 333 q 938 278 938 279 q 946 267 938 274 q 964 260 953 260 l 1075 260 q 1100 276 1097 260 l 1219 975 l 1604 975 l 1464 146 q 1437 76 1457 104 q 1392 32 1417 49 q 1340 8 1367 15 q 1293 0 1314 0 l 889 0 q 851 4 872 0 q 808 18 829 8 q 769 46 788 28 q 738 90 750 64 q 703 46 724 64 q 659 18 682 28 q 615 4 636 8 q 576 0 593 0 l 186 0 q 136 9 165 0 q 80 38 107 18 q 33 92 53 58 q 14 176 14 126 q 15 192 14 183 q 17 207 15 200 z "},"x":{"ha":1226,"x_min":14,"x_max":1213,"o":"m 265 492 l 167 975 l 544 975 l 617 617 l 650 617 l 829 975 l 1213 975 l 963 483 l 1061 0 l 683 0 l 610 358 l 576 358 l 397 0 l 14 0 l 265 492 z "},"y":{"ha":1124,"x_min":14,"x_max":1110,"o":"m 392 975 l 479 571 l 494 571 l 725 975 l 1110 975 l 826 449 q 788 400 810 418 q 744 373 767 382 q 697 361 721 364 q 651 358 674 358 l 590 0 l 214 0 l 275 361 q 227 372 253 364 q 178 397 201 381 q 138 438 156 413 q 113 497 119 463 l 14 975 l 392 975 z "},"z":{"ha":1079,"x_min":14,"x_max":1065,"o":"m 944 260 l 900 0 l 14 0 l 60 268 l 554 715 l 136 715 l 179 975 l 1065 975 l 1019 707 l 526 260 l 944 260 z "},"{":{"ha":793,"x_min":14,"x_max":778,"o":"m 25 422 l 14 429 l 54 661 l 63 664 q 133 711 101 674 q 175 804 164 749 q 192 894 185 849 q 206 985 199 940 q 232 1054 213 1026 q 276 1099 251 1082 q 328 1123 301 1115 q 376 1131 356 1131 l 778 1131 l 735 871 l 583 871 q 557 853 560 871 q 540 761 546 808 q 525 668 535 714 q 484 572 514 610 q 418 514 454 533 q 459 465 442 496 q 476 392 476 435 q 470 337 476 375 q 457 258 464 299 q 443 180 450 218 q 433 124 436 142 q 440 111 433 117 q 450 106 444 107 q 460 104 456 104 l 604 104 l 560 -156 l 217 -156 q 166 -147 196 -156 q 109 -117 136 -137 q 63 -63 82 -97 q 43 21 43 -29 q 44 38 43 29 q 46 53 44 46 q 56 109 50 78 q 68 172 63 140 q 78 233 75 204 q 82 285 82 261 q 67 367 82 328 q 25 422 51 406 z "},"|":{"ha":596,"x_min":14,"x_max":581,"o":"m 581 1131 l 364 -156 l 14 -156 l 232 1131 l 581 1131 z "},"}":{"ha":793,"x_min":14,"x_max":778,"o":"m 58 104 l 210 104 q 236 122 231 104 q 251 214 246 167 q 267 307 257 261 q 308 403 278 365 q 374 461 338 442 q 334 510 351 481 q 317 583 317 540 q 322 638 317 600 q 335 717 328 676 q 349 795 342 757 q 358 851 356 833 q 350 866 358 861 q 333 871 342 871 l 189 871 l 233 1131 l 576 1131 q 627 1122 597 1131 q 684 1092 657 1113 q 730 1038 711 1072 q 749 954 749 1004 q 748 938 749 946 q 746 922 747 929 q 736 867 742 899 q 724 804 731 836 q 713 743 717 772 q 710 690 710 714 q 725 608 710 647 q 767 553 740 569 l 778 547 l 738 314 l 729 311 q 659 264 690 301 q 617 171 628 226 q 601 81 608 126 q 586 -10 594 35 q 560 -79 579 -51 q 515 -124 540 -107 q 464 -148 490 -140 q 417 -156 438 -156 l 14 -156 l 58 104 z "},"~":{"ha":892,"x_min":14,"x_max":878,"o":"m 658 564 l 878 640 l 832 376 l 825 374 q 767 353 796 364 q 710 333 739 343 q 651 319 681 325 q 592 313 622 313 q 415 364 500 313 q 380 385 396 375 q 349 404 364 396 q 282 419 318 419 q 233 411 257 419 l 14 335 l 58 599 l 67 601 q 124 622 96 611 q 181 642 153 632 q 240 657 210 651 q 300 663 269 663 q 389 651 344 663 q 475 611 433 639 q 510 590 494 600 q 542 571 526 579 q 573 560 557 564 q 608 556 589 556 q 658 564 633 556 z "}," ":{"ha":650,"x_min":0,"x_max":0,"o":""},"¡":{"ha":522,"x_min":28,"x_max":494,"o":"m 440 711 q 472 700 457 711 q 487 682 479 693 q 494 651 494 671 q 493 638 494 644 q 490 621 493 635 q 488 599 489 611 q 483 575 486 588 q 476 529 479 551 q 471 500 472 507 q 447 460 465 469 q 418 451 429 451 l 249 451 q 217 463 232 451 q 202 481 210 469 q 194 511 194 492 q 195 516 194 513 q 196 524 196 519 q 197 531 197 526 q 199 540 197 535 q 203 563 201 551 q 207 586 204 574 q 215 633 211 611 q 219 663 218 656 q 243 701 225 692 q 272 711 261 711 l 440 711 m 28 -264 l 71 -11 q 81 48 78 24 q 90 106 83 72 q 97 130 93 119 q 104 151 101 140 q 110 170 107 161 q 118 192 114 179 l 171 360 q 194 392 178 383 q 221 400 210 400 l 399 400 q 429 389 414 400 q 444 371 436 382 q 451 340 451 360 l 451 336 l 440 176 q 438 135 438 153 q 435 94 438 118 q 426 36 431 60 q 415 -21 421 13 l 374 -264 l 28 -264 z "},"¢":{"ha":1111,"x_min":14,"x_max":1096,"o":"m 14 176 q 15 192 14 183 q 17 207 15 200 l 122 829 q 149 899 129 871 q 193 943 168 926 q 244 967 218 960 q 292 975 271 975 l 539 975 l 549 1131 l 839 1131 l 797 975 l 1096 975 l 1053 715 l 504 715 q 478 699 481 715 q 473 670 476 692 q 464 618 469 649 q 452 551 458 588 q 439 476 446 514 q 427 402 433 438 q 416 340 421 367 q 408 296 411 313 q 406 278 406 279 q 415 265 406 269 q 432 260 425 260 l 975 260 l 931 0 l 632 0 l 621 -156 l 331 -156 l 372 0 l 186 0 q 136 9 165 0 q 80 38 107 18 q 33 92 53 58 q 14 176 14 126 z "},"£":{"ha":1207,"x_min":14,"x_max":1193,"o":"m 42 571 l 175 571 l 218 829 q 245 899 225 871 q 290 943 265 926 q 342 967 315 960 q 389 975 368 975 l 1193 975 l 1117 529 l 788 529 l 818 715 l 600 715 q 574 699 576 715 l 551 571 l 749 571 l 721 404 l 524 404 q 518 376 521 393 q 513 343 515 360 q 508 319 510 331 q 506 297 507 308 q 504 289 504 293 q 503 282 504 285 l 503 278 q 503 272 503 275 q 510 267 504 269 q 519 261 514 263 q 528 260 525 260 l 1071 260 l 1026 0 l 282 0 q 232 9 261 0 q 176 38 203 18 q 129 92 149 58 q 110 176 110 126 q 115 229 110 193 q 128 303 121 265 q 138 358 133 331 q 146 404 143 385 l 14 404 l 42 571 z "},"¤":{"ha":560,"x_min":14,"x_max":546,"o":"m 157 724 l 206 660 l 382 660 l 431 724 q 451 735 440 735 q 471 726 461 735 l 535 664 q 542 653 538 661 q 546 635 546 646 q 540 614 546 621 q 532 604 535 607 l 472 561 q 467 524 469 546 q 461 481 464 503 q 453 441 457 461 q 447 406 450 421 l 494 371 q 503 361 499 368 q 508 340 508 354 q 497 311 508 319 l 433 249 q 415 240 425 240 q 394 251 401 240 l 351 307 l 171 307 l 129 253 q 107 242 119 242 q 89 250 96 242 l 25 313 q 18 322 22 315 q 14 340 14 329 q 19 362 14 354 q 28 372 25 369 l 88 415 l 111 564 l 56 604 q 47 614 53 607 q 42 635 42 621 q 46 653 42 646 q 53 664 50 661 l 117 726 q 135 735 125 735 q 157 724 147 735 m 240 540 q 229 489 233 515 q 222 436 225 463 q 222 431 222 433 q 221 426 221 429 l 318 426 q 325 478 321 451 q 336 531 329 506 q 337 535 336 533 q 338 540 338 538 l 240 540 z "},"¥":{"ha":1092,"x_min":14,"x_max":1076,"o":"m 42 306 l 264 306 l 268 326 l 46 326 l 74 493 l 144 493 q 143 497 144 496 l 44 975 l 424 975 l 494 594 l 692 975 l 1076 975 l 817 493 l 907 493 l 879 326 l 646 326 l 642 306 l 875 306 l 847 140 l 614 140 l 590 0 l 213 0 l 236 140 l 14 140 l 42 306 z "},"¦":{"ha":596,"x_min":14,"x_max":581,"o":"m 14 -156 l 110 415 l 460 415 l 364 -156 l 14 -156 m 485 560 l 135 560 l 232 1131 l 581 1131 l 485 560 z "},"§":{"ha":1079,"x_min":14,"x_max":1065,"o":"m 14 -156 l 58 104 l 422 104 q 439 108 435 104 q 446 117 443 111 q 451 136 449 121 q 455 151 454 143 q 458 168 456 160 q 454 179 458 174 q 438 188 449 185 q 410 194 424 192 q 381 200 396 197 l 250 228 q 222 233 236 231 q 196 240 208 235 q 159 260 179 247 q 122 292 139 272 q 92 340 104 313 q 81 406 81 368 q 84 447 81 422 q 92 496 88 472 q 100 542 96 519 q 107 581 104 565 q 134 651 114 624 q 179 696 154 679 q 231 719 204 713 q 281 726 258 725 l 299 829 q 325 899 306 871 q 369 943 344 926 q 421 967 394 960 q 468 975 447 975 l 1065 975 l 1021 715 l 654 715 q 625 681 625 715 q 631 672 625 676 q 646 664 636 667 q 674 656 660 658 q 703 651 689 654 l 835 622 q 863 617 849 619 q 889 610 876 615 q 925 590 906 603 q 962 556 944 576 q 990 508 979 536 q 1001 444 1001 481 q 997 399 1001 428 q 989 342 993 371 q 978 285 983 313 q 971 242 974 257 q 944 169 964 197 q 899 124 925 140 q 846 101 874 107 q 796 93 818 94 l 781 -8 q 754 -78 774 -50 q 710 -124 735 -107 q 658 -148 685 -140 q 610 -156 631 -156 l 14 -156 m 454 414 l 640 375 q 646 401 643 386 q 649 418 649 415 q 642 429 649 425 q 629 436 636 433 l 482 467 q 474 469 479 468 q 465 471 468 471 q 443 460 451 471 q 435 432 435 449 q 442 421 435 425 q 454 414 449 417 z "},"¨":{"ha":382,"x_min":14,"x_max":367,"o":"m 224 1131 l 367 1131 l 344 996 l 200 996 l 224 1131 m 14 996 l 38 1131 l 181 1131 l 157 996 l 14 996 z "},"©":{"ha":826,"x_min":14,"x_max":813,"o":"m 92 156 q 35 181 57 156 q 14 239 14 206 q 17 267 14 244 q 26 325 21 290 q 40 401 32 360 q 54 486 47 443 q 69 574 61 531 q 83 653 76 617 q 94 716 89 690 q 100 751 99 742 q 113 785 104 772 q 133 806 122 799 q 156 817 144 814 q 176 819 168 819 l 735 819 q 791 794 769 819 q 813 736 813 769 q 809 708 813 731 q 800 651 806 685 q 787 574 794 617 q 772 489 779 532 q 757 401 764 444 q 744 322 750 358 q 733 259 738 285 q 726 224 728 233 q 713 190 722 203 q 693 169 704 176 q 670 158 682 161 q 650 156 658 156 l 92 156 m 169 296 q 183 290 175 290 l 579 290 q 592 294 588 290 q 597 301 597 299 q 601 327 599 308 q 609 373 604 346 q 619 433 614 400 q 631 499 625 465 q 652 620 643 568 q 661 675 661 672 q 657 679 661 675 q 650 683 654 682 q 643 685 646 685 l 247 685 q 234 681 239 685 q 229 674 229 676 q 224 649 228 668 q 216 602 221 629 q 206 542 211 575 q 194 476 200 510 q 183 410 189 442 q 174 355 178 379 q 167 316 169 331 q 165 301 165 301 q 167 299 167 300 q 169 296 168 297 m 389 435 l 557 436 l 539 331 l 314 331 q 268 353 282 331 q 254 404 254 376 q 256 413 256 406 q 257 422 257 417 q 258 433 257 426 q 264 461 261 446 q 269 493 267 476 q 280 553 275 525 q 286 592 285 582 q 296 618 289 608 q 312 634 303 628 q 330 642 321 640 q 344 644 339 644 l 592 644 l 574 539 l 407 539 q 403 515 406 531 q 397 481 400 499 q 393 459 394 469 q 390 440 392 449 q 389 435 390 436 z "},"ª":{"ha":407,"x_min":14,"x_max":393,"o":"m 242 1017 l 42 1017 l 61 1131 l 326 1131 q 374 1108 356 1131 q 393 1058 393 1086 q 392 1050 393 1054 l 392 1042 q 388 1017 390 1032 q 373 927 381 972 q 356 838 365 882 q 328 790 350 801 q 290 778 306 778 l 81 778 q 62 781 72 778 q 40 792 51 785 q 22 814 31 800 q 14 850 14 828 q 16 876 14 861 q 21 907 18 892 q 26 935 24 922 q 31 958 29 949 q 60 1006 38 994 q 96 1017 82 1017 l 242 1017 m 221 892 l 222 903 l 167 903 q 165 897 165 900 q 164 892 165 894 l 221 892 z "},"«":{"ha":613,"x_min":14,"x_max":599,"o":"m 14 492 l 150 742 l 360 742 l 219 483 l 269 233 l 67 233 l 14 492 m 253 492 l 388 742 l 599 742 l 457 483 l 508 233 l 306 233 l 253 492 z "},"¬":{"ha":858,"x_min":14,"x_max":843,"o":"m 774 203 l 479 203 l 506 358 l 14 358 l 58 617 l 843 617 l 774 203 z "},"­":{"ha":0,"x_min":0,"x_max":0,"o":""},"®":{"ha":826,"x_min":14,"x_max":813,"o":"m 14 394 q 17 423 14 400 q 27 481 21 446 q 40 557 33 515 q 54 642 47 599 q 69 730 61 686 q 83 810 76 774 q 94 872 89 846 q 100 907 99 897 q 133 962 108 949 q 176 975 158 975 l 735 975 q 791 950 769 975 q 813 892 813 925 q 809 863 813 886 q 800 806 806 840 q 787 731 794 772 q 772 644 779 689 q 756 558 764 601 q 742 478 749 514 q 732 415 736 442 q 726 379 728 389 q 693 324 718 338 q 650 311 668 311 l 92 311 q 35 336 57 311 q 14 394 14 361 m 165 457 q 167 454 167 456 q 169 451 168 453 q 183 446 175 446 l 579 446 q 592 450 588 446 q 597 457 597 454 q 601 483 599 464 q 609 528 604 501 q 619 588 614 556 q 631 654 625 621 q 643 720 638 689 q 653 776 649 751 q 659 815 657 800 q 661 831 661 829 l 657 835 q 643 840 651 840 l 247 840 q 234 836 239 840 q 229 829 229 832 q 224 804 228 824 q 216 758 221 785 q 206 698 211 731 q 194 632 200 665 q 183 566 189 597 q 174 510 178 535 q 167 472 169 486 q 165 457 165 457 m 233 486 l 286 800 l 529 800 q 565 788 547 800 q 581 767 574 781 q 589 733 589 754 l 589 722 q 588 716 588 719 q 586 708 588 713 q 584 692 585 701 q 581 675 583 683 q 575 640 578 656 q 571 617 572 624 q 554 582 567 593 q 529 567 542 571 l 546 486 l 424 486 l 408 564 l 376 564 l 363 486 l 233 486 m 394 668 l 449 668 q 453 688 451 675 q 453 692 453 690 q 454 696 454 693 l 399 696 l 394 668 z "},"¯":{"ha":532,"x_min":14,"x_max":518,"o":"m 14 1131 l 518 1131 l 518 996 l 14 996 l 14 1131 z "},"°":{"ha":388,"x_min":29,"x_max":360,"o":"m 260 871 l 147 871 q 143 844 146 863 q 136 807 140 826 q 129 767 135 786 l 129 757 l 239 757 q 242 758 240 757 q 247 783 243 765 q 253 821 250 801 q 256 842 256 832 q 260 861 257 853 l 260 871 m 307 975 q 322 973 314 975 q 338 964 331 971 q 356 939 353 953 q 360 908 360 925 q 358 900 358 906 q 356 889 357 894 q 354 876 356 883 q 349 846 351 863 q 343 810 346 829 q 331 742 336 774 q 325 701 326 711 q 301 663 319 672 q 272 654 283 654 l 82 654 q 67 656 75 654 q 51 665 58 658 q 33 690 36 676 q 29 721 29 704 q 31 729 31 724 q 35 753 32 736 q 40 783 38 767 q 46 818 43 800 q 58 886 53 854 q 65 926 63 918 q 88 966 69 957 q 117 975 106 975 l 307 975 z "},"±":{"ha":763,"x_min":14,"x_max":747,"o":"m 117 757 l 303 757 l 331 913 l 589 913 l 561 757 l 747 757 l 710 529 l 531 529 l 503 374 l 236 374 l 264 529 l 78 529 l 117 757 m 53 290 l 685 290 l 646 63 l 14 63 l 53 290 z "},"²":{"ha":399,"x_min":14,"x_max":385,"o":"m 176 892 l 358 892 l 339 778 l 14 778 l 44 958 q 74 1006 51 994 q 110 1017 96 1017 l 233 1017 l 54 1017 l 74 1131 l 318 1131 q 367 1109 349 1131 q 385 1058 385 1088 q 383 1033 385 1046 q 379 1007 382 1019 q 374 983 376 994 q 369 961 372 971 q 340 914 363 925 q 304 903 318 903 l 181 903 l 179 901 q 178 899 179 900 q 176 892 178 894 z "},"³":{"ha":400,"x_min":14,"x_max":386,"o":"m 353 956 q 367 915 367 939 q 363 875 367 894 q 358 842 361 858 q 346 810 354 825 q 325 787 338 796 q 292 778 313 778 l 14 778 l 33 892 l 222 892 l 224 893 q 225 896 225 894 q 226 908 226 899 l 89 908 l 107 1011 l 233 1011 q 236 1017 236 1017 l 54 1017 l 74 1131 l 319 1131 q 368 1109 350 1131 q 386 1058 386 1088 q 379 1003 386 1033 q 369 974 376 985 q 353 956 363 963 z "},"´":{"ha":281,"x_min":28,"x_max":251,"o":"m 251 1161 l 142 965 l 28 965 l 78 1161 l 251 1161 z "},"µ":{"ha":1254,"x_min":14,"x_max":1240,"o":"m 206 975 l 582 975 l 578 949 q 571 905 576 939 q 557 822 565 871 q 538 715 549 774 q 518 596 528 656 q 499 478 508 535 q 482 377 489 421 q 470 306 475 333 q 465 278 465 279 q 466 272 465 275 q 472 267 467 269 q 482 261 476 263 q 490 260 488 260 l 740 260 l 863 975 l 1240 975 l 1075 0 l 547 0 q 474 5 510 0 q 403 19 439 10 l 417 -6 l 392 -156 l 14 -156 l 206 975 z "},"¶":{"ha":1301,"x_min":14,"x_max":1288,"o":"m 14 706 q 15 721 14 713 q 17 736 15 729 l 58 985 q 85 1054 65 1026 q 131 1099 106 1082 q 182 1123 156 1115 q 229 1131 208 1131 l 1288 1131 l 1243 871 l 1085 871 l 911 -156 l 585 -156 l 758 871 l 703 871 l 529 -156 l 204 -156 l 319 529 l 186 529 q 136 538 165 529 q 80 567 107 547 q 33 622 53 588 q 14 706 14 656 z "},"·":{"ha":328,"x_min":14,"x_max":313,"o":"m 313 544 q 311 538 311 542 q 310 528 311 533 q 298 467 303 497 q 289 406 293 436 q 265 367 283 376 q 236 358 247 358 l 67 358 q 51 360 60 358 q 36 369 43 363 q 22 387 29 375 q 14 418 14 399 q 15 431 14 424 q 18 447 15 433 q 21 469 19 457 q 25 493 22 481 q 33 539 29 517 q 38 568 36 561 q 61 608 43 599 q 90 617 79 617 l 260 617 q 303 594 293 617 q 313 544 313 572 z "},"¸":{"ha":276,"x_min":28,"x_max":249,"o":"m 81 -50 l 96 42 l 201 42 l 197 13 l 249 -7 l 222 -154 l 28 -156 l 46 -50 l 81 -50 z "},"¹":{"ha":282,"x_min":28,"x_max":254,"o":"m 190 778 l 49 778 l 92 1017 l 28 1017 l 47 1131 l 254 1131 l 190 778 z "},"º":{"ha":439,"x_min":14,"x_max":425,"o":"m 171 947 q 167 923 168 935 q 163 901 165 911 q 162 897 163 899 q 161 892 161 894 l 256 892 q 267 949 263 919 q 275 1007 272 978 q 276 1012 276 1010 q 278 1017 276 1014 l 183 1017 q 177 988 181 1007 q 171 947 174 968 m 81 778 q 62 781 72 778 q 40 792 51 785 q 19 822 24 807 q 14 858 14 838 q 15 868 15 861 q 19 892 17 875 q 25 924 22 907 q 31 960 28 940 q 43 1028 38 996 q 50 1072 49 1061 q 79 1119 57 1108 q 115 1131 101 1131 l 358 1131 q 406 1108 388 1131 q 425 1058 425 1086 q 424 1050 425 1057 q 422 1042 424 1043 q 422 1030 422 1036 q 419 1017 421 1024 q 405 927 413 972 q 388 838 397 882 q 360 790 382 801 q 322 778 338 778 l 81 778 z "},"»":{"ha":613,"x_min":14,"x_max":599,"o":"m 393 492 l 342 742 l 546 742 l 599 483 l 463 233 l 253 233 l 393 492 m 154 492 l 104 742 l 307 742 l 360 483 l 224 233 l 14 233 l 154 492 z "},"¼":{"ha":1060,"x_min":14,"x_max":1046,"o":"m 14 0 l 826 975 l 1046 975 l 233 0 l 14 0 m 596 181 q 597 188 596 183 q 599 200 597 193 q 603 224 601 211 q 607 251 604 238 q 617 303 613 279 q 622 338 621 328 l 625 353 l 769 353 l 765 326 q 760 301 764 322 q 753 257 757 281 q 749 235 750 246 q 746 215 749 224 q 744 207 746 208 l 799 207 l 825 353 l 968 353 l 943 207 l 976 207 l 957 93 l 922 93 l 906 0 l 761 0 l 778 93 l 661 93 q 613 115 632 93 q 594 165 594 138 q 596 181 594 178 m 246 975 l 453 975 l 389 622 l 247 622 l 290 861 l 226 861 l 246 975 z "},"½":{"ha":1060,"x_min":14,"x_max":1046,"o":"m 826 975 l 1046 975 l 233 0 l 14 0 l 826 975 m 585 0 l 615 179 q 644 227 622 215 q 681 239 667 239 l 626 239 l 646 353 l 890 353 q 938 331 919 353 q 956 281 956 308 q 951 231 956 257 q 940 183 947 206 q 913 137 935 149 q 875 125 890 125 l 751 125 l 750 124 l 750 122 q 749 119 750 121 l 749 114 l 929 114 l 910 0 l 585 0 m 214 975 l 421 975 l 357 622 l 215 622 l 258 861 l 194 861 l 214 975 z "},"¾":{"ha":1060,"x_min":14,"x_max":1046,"o":"m 14 0 l 826 975 l 1046 975 l 233 0 l 14 0 m 131 622 l 150 736 l 339 736 q 342 740 342 738 q 343 746 343 743 q 344 751 343 749 l 206 751 l 224 856 l 350 856 l 353 858 l 353 861 l 171 861 l 190 975 l 436 975 q 485 953 467 975 q 503 903 503 932 q 502 887 503 894 q 500 872 501 879 q 498 859 499 865 q 496 846 497 853 q 486 818 493 829 q 471 800 479 807 q 480 783 476 793 q 483 760 483 774 q 479 718 483 739 q 474 685 478 701 q 463 654 471 668 q 442 631 454 640 q 408 622 429 622 l 131 622 m 596 181 q 597 188 596 183 q 599 200 597 193 q 603 224 601 211 q 607 251 604 238 q 617 303 613 279 q 622 338 621 328 l 625 353 l 769 353 l 765 326 q 760 301 764 322 q 753 257 757 281 q 749 235 750 246 q 746 215 749 224 q 744 207 746 208 l 799 207 l 825 353 l 968 353 l 943 207 l 976 207 l 957 93 l 922 93 l 906 0 l 761 0 l 778 93 l 661 93 q 613 115 632 93 q 594 165 594 138 q 596 181 594 178 z "},"¿":{"ha":799,"x_min":14,"x_max":785,"o":"m 449 511 q 449 516 449 513 q 450 524 449 519 q 451 531 451 526 q 453 540 451 535 q 456 563 454 551 q 460 586 457 574 q 468 633 464 611 q 474 663 472 656 q 497 701 479 692 q 526 711 515 711 l 694 711 q 726 700 708 711 q 741 682 733 693 q 749 651 749 671 q 748 646 749 649 q 747 638 747 643 q 746 631 746 635 q 744 621 746 626 q 742 599 743 611 q 738 575 740 588 q 730 529 733 551 q 725 500 726 507 q 701 460 719 469 q 672 451 683 451 l 503 451 q 464 469 479 451 q 449 511 449 488 m 14 -89 q 18 -42 14 -72 q 28 17 22 -12 q 39 77 33 49 q 47 121 44 106 q 69 182 53 157 q 104 224 85 207 q 146 251 124 242 q 186 264 168 260 l 389 301 q 404 310 400 304 q 411 325 408 315 q 415 340 414 336 q 431 381 421 361 q 471 400 442 400 l 650 400 q 688 381 674 400 q 703 340 703 363 q 701 311 703 326 q 697 281 700 296 q 693 250 694 265 q 690 224 692 235 q 670 159 686 186 q 634 114 654 132 q 592 86 614 96 q 551 72 569 76 l 364 36 q 343 13 343 32 q 350 1 343 8 q 369 -6 360 -6 l 785 -6 l 740 -264 l 186 -264 q 136 -255 165 -264 q 80 -226 107 -246 q 33 -172 53 -206 q 14 -89 14 -139 z "},"À":{"ha":1081,"x_min":14,"x_max":1067,"o":"m 14 0 l 279 975 l 610 975 l 506 1161 l 679 1161 l 726 975 l 811 975 q 860 967 832 975 q 914 941 888 960 q 960 892 940 922 q 983 818 979 863 l 1067 0 l 706 0 l 692 140 l 415 140 l 376 0 l 14 0 m 567 694 l 486 400 l 665 400 l 635 699 q 626 710 633 704 q 608 715 619 715 l 435 715 q 419 713 424 715 q 413 707 415 710 q 410 701 411 704 q 407 694 410 699 l 567 694 z "},"Á":{"ha":1081,"x_min":14,"x_max":1067,"o":"m 14 0 l 279 975 l 581 975 l 629 1161 l 803 1161 l 697 975 l 811 975 q 860 967 832 975 q 914 941 888 960 q 960 892 940 922 q 983 818 979 863 l 1067 0 l 706 0 l 692 140 l 415 140 l 376 0 l 14 0 m 407 694 l 567 694 l 486 400 l 665 400 l 635 699 q 626 710 633 704 q 608 715 619 715 l 435 715 q 419 713 424 715 q 413 707 415 710 q 410 701 411 704 q 407 694 410 699 z "},"Â":{"ha":1081,"x_min":14,"x_max":1067,"o":"m 279 975 l 475 975 l 543 1161 l 733 1161 l 800 975 l 811 975 q 860 967 832 975 q 914 941 888 960 q 960 892 940 922 q 983 818 979 863 l 1067 0 l 706 0 l 692 140 l 415 140 l 376 0 l 14 0 l 279 975 m 567 694 l 486 400 l 665 400 l 635 699 q 626 710 633 704 q 608 715 619 715 l 435 715 q 419 713 424 715 q 413 707 415 710 q 410 701 411 704 q 407 694 410 699 l 567 694 m 601 975 l 674 975 l 638 1063 l 601 975 z "},"Ã":{"ha":1081,"x_min":14,"x_max":1067,"o":"m 279 975 l 467 975 l 465 981 q 464 999 464 989 q 464 1015 464 1008 q 473 1078 464 1053 q 497 1118 482 1103 q 530 1140 511 1133 q 567 1146 549 1146 q 608 1140 588 1146 q 646 1126 628 1133 q 677 1113 661 1119 q 710 1107 693 1107 q 724 1138 728 1107 l 721 1161 l 839 1161 l 842 1146 q 844 1128 843 1138 q 844 1111 844 1119 q 835 1049 844 1074 q 812 1008 826 1024 q 779 987 797 993 q 742 981 761 981 q 700 987 719 981 q 663 1000 681 993 q 644 1008 653 1004 q 628 1014 636 1011 q 599 1019 615 1019 q 583 988 581 1019 l 585 975 l 811 975 q 860 967 832 975 q 914 941 888 960 q 960 892 940 922 q 983 818 979 863 l 1067 0 l 706 0 l 692 140 l 415 140 l 376 0 l 14 0 l 279 975 m 407 694 l 567 694 l 486 400 l 665 400 l 635 699 q 626 710 633 704 q 608 715 619 715 l 435 715 q 419 713 424 715 q 413 707 415 710 q 410 701 411 704 q 407 694 410 699 z "},"Ä":{"ha":1081,"x_min":14,"x_max":1067,"o":"m 14 0 l 279 975 l 811 975 q 860 967 832 975 q 914 941 888 960 q 960 892 940 922 q 983 818 979 863 l 1067 0 l 706 0 l 692 140 l 415 140 l 376 0 l 14 0 m 407 694 l 567 694 l 486 400 l 665 400 l 635 699 q 626 710 633 704 q 608 715 619 715 l 435 715 q 419 713 424 715 q 413 707 415 710 q 410 701 411 704 q 407 694 410 699 m 671 1131 l 814 1131 l 792 996 l 649 996 l 671 1131 m 485 1131 l 628 1131 l 604 996 l 461 996 l 485 1131 z "},"Å":{"ha":1081,"x_min":14,"x_max":1067,"o":"m 14 0 l 279 975 l 533 975 q 524 1001 528 988 q 521 1032 521 1015 q 535 1094 521 1069 q 569 1134 549 1119 q 610 1155 589 1149 q 646 1161 632 1161 q 682 1155 661 1161 q 723 1134 703 1149 q 757 1094 743 1119 q 771 1032 771 1069 q 767 1001 771 1015 q 758 975 764 988 l 811 975 q 860 967 832 975 q 914 941 888 960 q 960 892 940 922 q 983 818 979 863 l 1067 0 l 706 0 l 692 140 l 415 140 l 376 0 l 14 0 m 407 694 l 567 694 l 486 400 l 665 400 l 635 699 q 626 710 633 704 q 608 715 619 715 l 435 715 q 419 713 424 715 q 413 707 415 710 q 410 701 411 704 q 407 694 410 699 m 619 1032 q 629 1019 619 1024 q 646 1014 639 1014 q 665 1021 654 1014 q 672 1032 672 1028 q 663 1045 672 1040 q 646 1050 653 1050 q 629 1045 639 1050 q 619 1032 619 1040 z "},"Æ":{"ha":1654,"x_min":14,"x_max":1640,"o":"m 14 0 l 244 847 q 274 908 254 883 q 317 947 293 932 q 365 969 340 963 q 411 975 390 975 l 1640 975 l 1596 715 l 1119 715 l 1106 633 l 1489 633 l 1442 374 l 1061 374 q 1057 352 1058 364 q 1053 329 1056 340 q 1050 310 1051 319 q 1047 294 1049 301 q 1046 282 1046 290 l 1046 279 l 1044 278 q 1054 265 1044 269 q 1071 260 1064 260 l 1518 260 l 1474 0 l 825 0 q 779 7 806 0 q 728 31 753 14 q 684 74 704 47 q 657 140 664 101 l 415 140 l 376 0 l 14 0 m 407 694 l 567 694 l 486 400 l 688 400 l 742 715 l 435 715 q 419 713 424 715 q 413 707 415 710 q 410 701 411 704 q 407 694 410 699 z "},"Ç":{"ha":1111,"x_min":14,"x_max":1096,"o":"m 17 207 l 122 829 q 149 899 129 871 q 193 943 168 926 q 244 967 218 960 q 292 975 271 975 l 1096 975 l 1053 715 l 344 715 q 328 711 333 715 q 318 694 322 707 l 478 694 l 472 669 q 467 641 471 661 q 459 593 464 621 q 449 531 454 565 q 438 463 443 497 q 426 394 432 426 q 416 335 421 361 q 408 294 411 310 q 406 278 406 279 q 415 265 406 269 q 432 260 425 260 l 975 260 l 931 0 l 581 0 l 600 -7 l 574 -154 l 379 -156 l 397 -50 l 432 -50 l 440 0 l 186 0 q 136 9 165 0 q 80 38 107 18 q 33 92 53 58 q 14 176 14 126 q 15 192 14 183 q 17 207 15 200 z "},"È":{"ha":1079,"x_min":14,"x_max":1065,"o":"m 14 176 q 15 192 14 183 q 17 207 15 200 l 122 829 q 149 899 129 871 q 193 943 168 926 q 244 967 218 960 q 292 975 271 975 l 621 975 l 515 1161 l 690 1161 l 738 975 l 1065 975 l 1021 715 l 344 715 q 328 711 333 715 q 318 694 322 707 l 478 694 l 467 633 l 914 633 l 867 374 l 422 374 q 418 352 419 364 q 414 329 417 340 q 411 310 413 319 q 408 294 410 301 q 408 285 408 292 q 406 278 407 279 q 415 265 406 269 q 432 260 425 260 l 943 260 l 899 0 l 186 0 q 136 9 165 0 q 80 38 107 18 q 33 92 53 58 q 14 176 14 126 z "},"É":{"ha":1079,"x_min":14,"x_max":1065,"o":"m 14 176 q 15 192 14 183 q 17 207 15 200 l 122 829 q 149 899 129 871 q 193 943 168 926 q 244 967 218 960 q 292 975 271 975 l 592 975 l 639 1161 l 813 1161 l 708 975 l 1065 975 l 1021 715 l 344 715 q 328 711 333 715 q 318 694 322 707 l 478 694 l 467 633 l 914 633 l 867 374 l 422 374 q 418 352 419 364 q 414 329 417 340 q 411 310 413 319 q 408 294 410 301 q 408 285 408 292 q 406 278 407 279 q 415 265 406 269 q 432 260 425 260 l 943 260 l 899 0 l 186 0 q 136 9 165 0 q 80 38 107 18 q 33 92 53 58 q 14 176 14 126 z "},"Ê":{"ha":1079,"x_min":14,"x_max":1065,"o":"m 17 207 l 122 829 q 149 899 129 871 q 193 943 168 926 q 244 967 218 960 q 292 975 271 975 l 486 975 l 553 1161 l 744 1161 l 811 975 l 1065 975 l 1021 715 l 344 715 q 328 711 333 715 q 318 694 322 707 l 478 694 l 467 633 l 914 633 l 867 374 l 422 374 q 418 352 419 364 q 414 329 417 340 q 411 310 413 319 q 408 294 410 301 q 408 285 408 292 q 406 278 407 279 q 415 265 406 269 q 432 260 425 260 l 943 260 l 899 0 l 186 0 q 136 9 165 0 q 80 38 107 18 q 33 92 53 58 q 14 176 14 126 q 15 192 14 183 q 17 207 15 200 m 613 975 l 685 975 l 649 1063 l 613 975 z "},"Ë":{"ha":1079,"x_min":14,"x_max":1065,"o":"m 14 176 q 15 192 14 183 q 17 207 15 200 l 122 829 q 149 899 129 871 q 193 943 168 926 q 244 967 218 960 q 292 975 271 975 l 1065 975 l 1021 715 l 344 715 q 328 711 333 715 q 318 694 322 707 l 478 694 l 467 633 l 914 633 l 867 374 l 422 374 q 418 352 419 364 q 414 329 417 340 q 411 310 413 319 q 408 294 410 301 q 408 285 408 292 q 406 278 407 279 q 415 265 406 269 q 432 260 425 260 l 943 260 l 899 0 l 186 0 q 136 9 165 0 q 80 38 107 18 q 33 92 53 58 q 14 176 14 126 m 472 996 l 494 1131 l 639 1131 l 615 996 l 472 996 m 658 996 l 682 1131 l 825 1131 l 801 996 l 658 996 z "},"Ì":{"ha":615,"x_min":28,"x_max":588,"o":"m 28 0 l 193 975 l 343 975 l 239 1161 l 413 1161 l 460 975 l 588 975 l 543 715 l 407 715 q 390 712 396 715 q 381 694 385 708 l 539 694 l 421 0 l 28 0 z "},"Í":{"ha":615,"x_min":28,"x_max":588,"o":"m 28 0 l 193 975 l 322 975 l 369 1161 l 543 1161 l 439 975 l 588 975 l 543 715 l 407 715 q 390 712 396 715 q 381 694 385 708 l 539 694 l 421 0 l 28 0 z "},"Î":{"ha":615,"x_min":28,"x_max":588,"o":"m 28 0 l 193 975 l 233 975 l 300 1161 l 490 1161 l 557 975 l 588 975 l 543 715 l 407 715 q 390 712 396 715 q 381 694 385 708 l 539 694 l 421 0 l 28 0 m 358 975 l 431 975 l 394 1063 l 358 975 z "},"Ï":{"ha":615,"x_min":28,"x_max":588,"o":"m 193 975 l 588 975 l 543 715 l 407 715 q 390 712 396 715 q 381 694 385 708 l 539 694 l 421 0 l 28 0 l 193 975 m 226 996 l 249 1131 l 393 1131 l 369 996 l 226 996 m 413 996 l 436 1131 l 579 1131 l 556 996 l 413 996 z "},"Ð":{"ha":1235,"x_min":14,"x_max":1221,"o":"m 14 358 l 58 617 l 179 617 l 240 975 l 1047 975 q 1098 966 1068 975 q 1155 937 1128 957 q 1201 883 1182 917 q 1221 799 1221 849 q 1220 783 1221 792 q 1218 768 1219 775 l 1113 146 q 1085 76 1106 104 q 1040 32 1065 49 q 989 8 1015 15 q 942 0 963 0 l 75 0 l 135 358 l 14 358 m 569 694 l 557 617 l 700 617 l 656 358 l 513 358 l 496 260 l 731 260 q 757 276 754 260 q 763 305 758 283 q 772 357 767 326 q 783 424 776 388 q 794 499 789 461 q 808 573 801 538 q 818 635 814 608 q 825 679 822 663 q 828 697 828 696 q 827 703 828 700 q 821 708 826 706 q 811 714 817 713 q 801 715 806 715 l 438 715 q 421 712 426 715 q 413 694 415 708 l 569 694 z "},"Ñ":{"ha":1238,"x_min":14,"x_max":1224,"o":"m 14 0 l 179 975 l 561 975 l 560 981 q 558 999 558 989 q 557 1015 557 1008 q 566 1078 557 1053 q 590 1118 575 1103 q 623 1140 604 1133 q 661 1146 642 1146 q 701 1140 682 1146 q 739 1126 721 1133 q 757 1119 749 1122 q 774 1113 765 1115 q 803 1107 789 1107 q 818 1138 819 1107 l 815 1161 l 933 1161 l 936 1146 q 938 1128 938 1138 q 939 1111 939 1119 q 930 1049 939 1074 q 906 1008 921 1024 q 873 987 892 993 q 835 981 854 981 q 794 987 814 981 q 757 1000 775 993 q 739 1008 747 1004 q 722 1014 731 1011 q 692 1019 707 1019 q 678 988 675 1019 l 679 975 l 1051 975 q 1102 966 1072 975 q 1159 937 1132 957 q 1205 883 1186 917 q 1224 799 1224 849 q 1223 783 1224 792 q 1221 768 1222 775 l 1090 0 l 713 0 l 717 26 q 726 71 719 38 q 740 153 732 104 q 758 260 749 201 q 778 379 768 319 q 799 497 789 440 q 816 598 808 554 q 828 669 824 642 q 832 697 832 696 q 822 710 832 706 q 806 715 813 715 l 378 715 q 360 711 365 715 q 351 694 354 707 l 510 694 l 392 0 l 14 0 z "},"Ò":{"ha":1206,"x_min":14,"x_max":1190,"o":"m 14 176 q 15 192 14 183 q 17 207 15 200 l 122 829 q 149 899 129 871 q 193 943 168 926 q 244 967 218 960 q 292 975 271 975 l 622 975 l 517 1161 l 692 1161 l 739 975 l 1018 975 q 1069 966 1039 975 q 1126 937 1099 957 q 1172 883 1153 917 q 1190 799 1190 849 q 1190 783 1190 792 q 1189 768 1190 775 l 1082 146 q 1056 76 1075 104 q 1011 32 1036 49 q 960 8 986 15 q 913 0 933 0 l 186 0 q 136 9 165 0 q 80 38 107 18 q 33 92 53 58 q 14 176 14 126 m 467 694 l 463 669 q 458 641 461 661 q 449 593 454 621 q 439 531 444 565 q 426 463 433 497 q 415 394 421 426 q 406 335 410 361 q 399 294 401 310 q 397 278 397 279 q 398 272 397 275 q 404 267 399 269 q 414 261 408 263 q 422 260 419 260 l 711 260 q 738 276 735 260 q 743 305 739 283 q 752 357 747 326 q 763 424 757 388 q 775 499 769 461 q 788 573 782 538 q 799 635 794 608 q 806 679 803 663 q 808 697 808 696 q 799 710 808 706 q 782 715 789 715 l 335 715 q 317 712 322 715 q 308 694 311 708 l 467 694 z "},"Ó":{"ha":1206,"x_min":14,"x_max":1190,"o":"m 14 176 q 15 192 14 183 q 17 207 15 200 l 122 829 q 149 899 129 871 q 193 943 168 926 q 244 967 218 960 q 292 975 271 975 l 625 975 l 672 1161 l 846 1161 l 742 975 l 1018 975 q 1069 966 1039 975 q 1126 937 1099 957 q 1172 883 1153 917 q 1190 799 1190 849 q 1190 783 1190 792 q 1189 768 1190 775 l 1082 146 q 1056 76 1075 104 q 1011 32 1036 49 q 960 8 986 15 q 913 0 933 0 l 186 0 q 136 9 165 0 q 80 38 107 18 q 33 92 53 58 q 14 176 14 126 m 467 694 l 463 669 q 458 641 461 661 q 449 593 454 621 q 439 531 444 565 q 426 463 433 497 q 415 394 421 426 q 406 335 410 361 q 399 294 401 310 q 397 278 397 279 q 398 272 397 275 q 404 267 399 269 q 414 261 408 263 q 422 260 419 260 l 711 260 q 738 276 735 260 q 743 305 739 283 q 752 357 747 326 q 763 424 757 388 q 775 499 769 461 q 788 573 782 538 q 799 635 794 608 q 806 679 803 663 q 808 697 808 696 q 799 710 808 706 q 782 715 789 715 l 335 715 q 317 712 322 715 q 308 694 311 708 l 467 694 z "},"Ô":{"ha":1206,"x_min":14,"x_max":1190,"o":"m 17 207 l 122 829 q 149 899 129 871 q 193 943 168 926 q 244 967 218 960 q 292 975 271 975 l 536 975 l 603 1161 l 793 1161 l 860 975 l 1018 975 q 1069 966 1039 975 q 1126 937 1099 957 q 1172 883 1153 917 q 1190 799 1190 849 q 1190 783 1190 792 q 1189 768 1190 775 l 1082 146 q 1056 76 1075 104 q 1011 32 1036 49 q 960 8 986 15 q 913 0 933 0 l 186 0 q 136 9 165 0 q 80 38 107 18 q 33 92 53 58 q 14 176 14 126 q 15 192 14 183 q 17 207 15 200 m 467 694 l 463 669 q 458 641 461 661 q 449 593 454 621 q 439 531 444 565 q 426 463 433 497 q 415 394 421 426 q 406 335 410 361 q 399 294 401 310 q 397 278 397 279 q 398 272 397 275 q 404 267 399 269 q 414 261 408 263 q 422 260 419 260 l 711 260 q 738 276 735 260 q 743 305 739 283 q 752 357 747 326 q 763 424 757 388 q 775 499 769 461 q 788 573 782 538 q 799 635 794 608 q 806 679 803 663 q 808 697 808 696 q 799 710 808 706 q 782 715 789 715 l 335 715 q 317 712 322 715 q 308 694 311 708 l 467 694 m 733 975 l 697 1063 l 663 975 l 733 975 z "},"Õ":{"ha":1206,"x_min":14,"x_max":1190,"o":"m 14 176 q 15 192 14 183 q 17 207 15 200 l 122 829 q 149 899 129 871 q 193 943 168 926 q 244 967 218 960 q 292 975 271 975 l 494 975 l 494 981 q 492 999 492 989 q 492 1015 492 1008 q 501 1078 492 1053 q 524 1118 510 1103 q 558 1140 539 1133 q 594 1146 576 1146 q 635 1140 615 1146 q 674 1126 656 1133 q 692 1119 683 1122 q 708 1113 700 1115 q 738 1107 721 1107 q 751 1138 756 1107 l 749 1161 l 867 1161 l 869 1146 q 872 1128 872 1138 q 872 1111 872 1119 q 863 1049 872 1074 q 840 1008 854 1024 q 807 987 825 993 q 769 981 789 981 q 728 987 749 981 q 690 1000 708 993 q 659 1013 676 1007 q 626 1019 642 1019 q 613 988 610 1019 l 613 975 l 1018 975 q 1069 966 1039 975 q 1126 937 1099 957 q 1172 883 1153 917 q 1190 799 1190 849 q 1190 783 1190 792 q 1189 768 1190 775 l 1082 146 q 1056 76 1075 104 q 1011 32 1036 49 q 960 8 986 15 q 913 0 933 0 l 186 0 q 136 9 165 0 q 80 38 107 18 q 33 92 53 58 q 14 176 14 126 m 308 694 l 467 694 l 463 669 q 458 641 461 661 q 449 593 454 621 q 439 531 444 565 q 426 463 433 497 q 415 394 421 426 q 406 335 410 361 q 399 294 401 310 q 397 278 397 279 q 398 272 397 275 q 404 267 399 269 q 414 261 408 263 q 422 260 419 260 l 711 260 q 738 276 735 260 q 743 305 739 283 q 752 357 747 326 q 763 424 757 388 q 775 499 769 461 q 788 573 782 538 q 799 635 794 608 q 806 679 803 663 q 808 697 808 696 q 799 710 808 706 q 782 715 789 715 l 335 715 q 317 712 322 715 q 308 694 311 708 z "},"Ö":{"ha":1206,"x_min":14,"x_max":1190,"o":"m 14 176 q 15 192 14 183 q 17 207 15 200 l 122 829 q 149 899 129 871 q 193 943 168 926 q 244 967 218 960 q 292 975 271 975 l 1018 975 q 1069 966 1039 975 q 1126 937 1099 957 q 1172 883 1153 917 q 1190 799 1190 849 q 1190 783 1190 792 q 1189 768 1190 775 l 1082 146 q 1056 76 1075 104 q 1011 32 1036 49 q 960 8 986 15 q 913 0 933 0 l 186 0 q 136 9 165 0 q 80 38 107 18 q 33 92 53 58 q 14 176 14 126 m 308 694 l 467 694 l 463 669 q 458 641 461 661 q 449 593 454 621 q 439 531 444 565 q 426 463 433 497 q 415 394 421 426 q 406 335 410 361 q 399 294 401 310 q 397 278 397 279 q 398 272 397 275 q 404 267 399 269 q 414 261 408 263 q 422 260 419 260 l 711 260 q 738 276 735 260 q 743 305 739 283 q 752 357 747 326 q 763 424 757 388 q 775 499 769 461 q 788 573 782 538 q 799 635 794 608 q 806 679 803 663 q 808 697 808 696 q 799 710 808 706 q 782 715 789 715 l 335 715 q 317 712 322 715 q 308 694 311 708 m 544 1131 l 688 1131 l 665 996 l 521 996 l 544 1131 m 708 996 l 731 1131 l 874 1131 l 851 996 l 708 996 z "},"×":{"ha":721,"x_min":14,"x_max":707,"o":"m 503 775 l 707 613 l 553 486 l 672 361 l 471 200 l 344 308 l 218 200 l 14 363 l 168 490 l 49 614 l 250 776 l 369 667 l 503 775 z "},"Ø":{"ha":1350,"x_min":14,"x_max":1335,"o":"m 1090 975 q 1174 954 1135 975 l 1247 1010 l 1335 904 l 1257 844 q 1263 799 1263 826 q 1263 783 1263 792 q 1260 768 1263 775 l 1154 146 q 1128 76 1147 104 q 1083 32 1108 49 q 1032 8 1058 15 q 985 0 1006 0 l 258 0 q 175 22 214 0 l 101 -35 l 14 72 l 92 131 q 86 176 86 149 q 86 192 86 183 q 89 207 86 200 l 194 829 q 221 899 201 871 q 265 943 240 926 q 317 967 290 960 q 364 975 343 975 l 1090 975 m 489 260 l 783 260 q 801 265 794 260 q 810 276 808 269 l 853 538 l 489 260 m 539 694 l 496 438 l 860 715 l 407 715 q 389 712 394 715 q 381 694 383 708 l 539 694 z "},"Ù":{"ha":1207,"x_min":14,"x_max":1192,"o":"m 17 207 l 147 975 l 525 975 l 521 949 q 514 905 519 939 q 500 822 508 871 q 481 715 492 774 q 460 596 471 656 q 440 478 450 535 q 423 377 431 421 q 410 306 415 333 q 406 278 406 279 q 415 265 406 269 q 432 260 425 260 l 851 260 l 851 263 q 842 276 851 271 q 825 281 832 281 l 696 281 l 814 975 l 1192 975 l 1026 0 l 186 0 q 136 9 165 0 q 80 38 107 18 q 33 92 53 58 q 14 176 14 126 q 15 192 14 183 q 17 207 15 200 m 690 1161 l 740 965 l 626 965 l 515 1161 l 690 1161 z "},"Ú":{"ha":1207,"x_min":14,"x_max":1192,"o":"m 14 176 q 15 192 14 183 q 17 207 15 200 l 147 975 l 525 975 l 521 949 q 514 905 519 939 q 500 822 508 871 q 481 715 492 774 q 460 596 471 656 q 440 478 450 535 q 423 377 431 421 q 410 306 415 333 q 406 278 406 279 q 415 265 406 269 q 432 260 425 260 l 851 260 l 851 263 q 842 276 851 271 q 825 281 832 281 l 696 281 l 814 975 l 1192 975 l 1026 0 l 186 0 q 136 9 165 0 q 80 38 107 18 q 33 92 53 58 q 14 176 14 126 m 604 965 l 656 1161 l 829 1161 l 718 965 l 604 965 z "},"Û":{"ha":1207,"x_min":14,"x_max":1192,"o":"m 17 207 l 147 975 l 503 975 l 569 1161 l 760 1161 l 826 975 l 1192 975 l 1026 0 l 186 0 q 136 9 165 0 q 80 38 107 18 q 33 92 53 58 q 14 176 14 126 q 15 192 14 183 q 17 207 15 200 m 406 278 q 415 265 406 269 q 432 260 425 260 l 851 260 l 851 263 q 842 276 851 271 q 825 281 832 281 l 696 281 l 813 965 l 704 965 l 664 1063 l 625 965 l 524 965 l 521 949 q 514 905 519 939 q 500 822 508 871 q 481 715 492 774 q 460 596 471 656 q 440 478 450 535 q 423 377 431 421 q 410 306 415 333 q 406 278 406 279 z "},"Ü":{"ha":1207,"x_min":14,"x_max":1192,"o":"m 17 207 l 147 975 l 525 975 l 521 949 q 514 905 519 939 q 500 822 508 871 q 481 715 492 774 q 460 596 471 656 q 440 478 450 535 q 423 377 431 421 q 410 306 415 333 q 406 278 406 279 q 415 265 406 269 q 432 260 425 260 l 851 260 l 851 263 q 842 276 851 271 q 825 281 832 281 l 696 281 l 814 975 l 1192 975 l 1026 0 l 186 0 q 136 9 165 0 q 80 38 107 18 q 33 92 53 58 q 14 176 14 126 q 15 192 14 183 q 17 207 15 200 m 690 996 l 714 1131 l 857 1131 l 833 996 l 690 996 m 504 996 l 526 1131 l 669 1131 l 647 996 l 504 996 z "},"Ý":{"ha":1124,"x_min":14,"x_max":1110,"o":"m 392 975 l 479 571 l 494 571 l 725 975 l 1110 975 l 826 449 q 788 399 810 417 q 739 371 765 381 q 683 359 713 361 q 621 357 653 357 q 574 359 597 358 q 526 360 550 360 q 499 351 508 357 q 490 340 490 346 q 489 338 489 338 l 649 338 l 590 0 l 214 0 l 275 361 q 227 372 253 364 q 178 397 201 381 q 138 438 156 413 q 113 497 119 463 l 14 975 l 392 975 m 481 965 l 532 1161 l 706 1161 l 594 965 l 481 965 z "},"Þ":{"ha":1171,"x_min":14,"x_max":1157,"o":"m 557 975 l 535 843 l 985 843 q 1035 834 1006 843 q 1092 805 1065 825 q 1138 751 1119 785 q 1157 667 1157 717 q 1156 651 1157 658 q 1154 636 1156 643 l 1093 278 q 1067 208 1086 236 q 1022 164 1047 181 q 971 140 997 147 q 924 132 944 132 l 414 132 l 392 0 l 14 0 l 179 975 l 557 975 m 490 583 l 458 392 l 713 392 q 730 397 724 392 q 738 408 736 403 q 751 475 744 438 q 761 543 758 513 q 764 560 764 557 q 765 564 764 563 q 765 565 765 564 q 756 578 765 574 q 739 583 746 583 l 490 583 z "},"ß":{"ha":885,"x_min":14,"x_max":869,"o":"m 115 828 q 141 898 121 869 q 187 943 161 926 q 240 967 213 960 q 286 975 267 975 l 688 975 q 738 966 708 975 q 795 937 768 957 q 841 883 822 917 q 860 799 860 849 q 857 764 860 783 q 851 725 854 744 q 845 676 849 701 q 834 628 842 651 q 813 584 826 604 q 778 550 800 564 q 780 549 779 550 q 782 549 781 549 q 842 512 814 538 q 869 431 869 486 l 869 415 l 850 154 q 825 81 846 111 q 777 33 804 51 q 722 8 750 15 q 674 0 693 0 l 481 0 q 434 7 458 0 q 389 32 410 14 q 355 81 368 50 q 342 160 342 113 q 347 233 342 196 q 358 306 351 269 l 361 322 l 571 322 l 568 299 q 567 283 568 292 q 565 267 567 275 q 564 253 564 260 q 564 240 564 247 q 569 233 564 239 q 585 228 579 228 q 603 235 592 228 q 608 238 606 236 q 611 243 611 240 q 615 278 613 257 q 621 322 618 299 q 626 365 624 346 q 628 394 628 385 q 625 402 628 397 q 611 410 622 407 q 579 414 599 414 q 567 413 572 414 q 556 413 563 413 q 539 412 547 413 q 524 411 531 411 q 475 425 494 415 q 456 472 456 435 q 458 501 456 483 q 463 536 460 519 q 467 570 465 554 q 471 597 469 586 q 483 626 474 617 q 501 638 492 635 q 519 640 515 640 l 539 640 q 556 641 549 640 q 571 644 564 642 q 583 658 582 649 q 586 675 585 665 q 590 696 588 685 q 594 729 594 719 q 588 740 594 733 q 568 747 576 747 l 407 747 q 389 742 399 747 l 382 735 q 381 732 381 733 l 296 0 l 14 0 l 115 828 z "},"à":{"ha":1081,"x_min":14,"x_max":1067,"o":"m 279 975 l 610 975 l 506 1161 l 679 1161 l 726 975 l 811 975 q 860 967 832 975 q 914 941 888 960 q 960 892 940 922 q 983 818 979 863 l 1067 0 l 706 0 l 692 140 l 415 140 l 376 0 l 14 0 l 279 975 m 665 400 l 635 699 q 626 710 633 704 q 608 715 619 715 l 572 715 l 486 400 l 665 400 z "},"á":{"ha":1081,"x_min":14,"x_max":1067,"o":"m 279 975 l 581 975 l 629 1161 l 803 1161 l 697 975 l 811 975 q 860 967 832 975 q 914 941 888 960 q 960 892 940 922 q 983 818 979 863 l 1067 0 l 706 0 l 692 140 l 415 140 l 376 0 l 14 0 l 279 975 m 665 400 l 635 699 q 626 710 633 704 q 608 715 619 715 l 572 715 l 486 400 l 665 400 z "},"â":{"ha":1081,"x_min":14,"x_max":1067,"o":"m 279 975 l 475 975 l 543 1161 l 733 1161 l 800 975 l 811 975 q 860 967 832 975 q 914 941 888 960 q 960 892 940 922 q 983 818 979 863 l 1067 0 l 706 0 l 692 140 l 415 140 l 376 0 l 14 0 l 279 975 m 665 400 l 635 699 q 626 710 633 704 q 608 715 619 715 l 572 715 l 486 400 l 665 400 m 674 975 l 638 1063 l 601 975 l 674 975 z "},"ã":{"ha":1081,"x_min":14,"x_max":1067,"o":"m 279 975 l 467 975 l 465 981 q 464 999 464 989 q 464 1015 464 1008 q 473 1078 464 1053 q 497 1118 482 1103 q 530 1140 511 1133 q 567 1146 549 1146 q 608 1140 588 1146 q 646 1126 628 1133 q 677 1113 661 1119 q 710 1107 693 1107 q 724 1138 728 1107 l 721 1161 l 839 1161 l 842 1146 q 844 1128 843 1138 q 844 1111 844 1119 q 835 1049 844 1074 q 812 1008 826 1024 q 779 987 797 993 q 742 981 761 981 q 700 987 719 981 q 663 1000 681 993 q 644 1008 653 1004 q 628 1014 636 1011 q 599 1019 615 1019 q 583 988 581 1019 l 585 975 l 811 975 q 860 967 832 975 q 914 941 888 960 q 960 892 940 922 q 983 818 979 863 l 1067 0 l 706 0 l 692 140 l 415 140 l 376 0 l 14 0 l 279 975 m 486 400 l 665 400 l 635 699 q 626 710 633 704 q 608 715 619 715 l 572 715 l 486 400 z "},"ä":{"ha":1081,"x_min":14,"x_max":1067,"o":"m 279 975 l 811 975 q 860 967 832 975 q 914 941 888 960 q 960 892 940 922 q 983 818 979 863 l 1067 0 l 706 0 l 692 140 l 415 140 l 376 0 l 14 0 l 279 975 m 665 400 l 635 699 q 626 710 633 704 q 608 715 619 715 l 572 715 l 486 400 l 665 400 m 649 996 l 671 1131 l 814 1131 l 792 996 l 649 996 m 485 1131 l 628 1131 l 604 996 l 461 996 l 485 1131 z "},"å":{"ha":1081,"x_min":14,"x_max":1067,"o":"m 279 975 l 533 975 q 524 1001 528 988 q 521 1032 521 1015 q 535 1094 521 1069 q 569 1134 549 1119 q 610 1155 589 1149 q 646 1161 632 1161 q 682 1155 661 1161 q 723 1134 703 1149 q 757 1094 743 1119 q 771 1032 771 1069 q 767 1001 771 1015 q 758 975 764 988 l 811 975 q 860 967 832 975 q 914 941 888 960 q 960 892 940 922 q 983 818 979 863 l 1067 0 l 706 0 l 692 140 l 415 140 l 376 0 l 14 0 l 279 975 m 486 400 l 665 400 l 635 699 q 626 710 633 704 q 608 715 619 715 l 572 715 l 486 400 m 619 1032 q 629 1019 619 1024 q 646 1014 639 1014 q 665 1021 654 1014 q 672 1032 672 1028 q 663 1045 672 1040 q 646 1050 653 1050 q 629 1045 639 1050 q 619 1032 619 1040 z "},"æ":{"ha":1654,"x_min":14,"x_max":1640,"o":"m 14 0 l 244 847 q 274 908 254 883 q 317 947 293 932 q 365 969 340 963 q 411 975 390 975 l 1640 975 l 1596 715 l 1119 715 l 1106 633 l 1489 633 l 1442 374 l 1061 374 q 1057 352 1058 364 q 1053 329 1056 340 q 1050 310 1051 319 q 1047 294 1049 301 q 1046 282 1046 290 l 1046 279 l 1044 278 q 1054 265 1044 269 q 1071 260 1064 260 l 1518 260 l 1474 0 l 825 0 q 779 7 806 0 q 728 31 753 14 q 684 74 704 47 q 657 140 664 101 l 415 140 l 376 0 l 14 0 m 688 400 l 742 715 l 593 715 q 568 700 571 715 l 486 400 l 688 400 z "},"ç":{"ha":1111,"x_min":14,"x_max":1096,"o":"m 14 176 q 15 192 14 183 q 17 207 15 200 l 122 829 q 149 899 129 871 q 193 943 168 926 q 244 967 218 960 q 292 975 271 975 l 1096 975 l 1053 715 l 504 715 q 478 699 481 715 q 473 670 476 692 q 464 618 469 649 q 452 551 458 588 q 439 476 446 514 q 427 402 433 438 q 416 340 421 367 q 408 296 411 313 q 406 278 406 279 q 415 265 406 269 q 432 260 425 260 l 975 260 l 931 0 l 581 0 l 600 -7 l 574 -154 l 379 -156 l 397 -50 l 432 -50 l 440 0 l 186 0 q 136 9 165 0 q 80 38 107 18 q 33 92 53 58 q 14 176 14 126 z "},"è":{"ha":1079,"x_min":14,"x_max":1065,"o":"m 14 176 q 15 192 14 183 q 17 207 15 200 l 122 829 q 149 899 129 871 q 193 943 168 926 q 244 967 218 960 q 292 975 271 975 l 621 975 l 515 1161 l 690 1161 l 738 975 l 1065 975 l 1021 715 l 504 715 q 478 699 481 715 l 467 633 l 914 633 l 867 374 l 422 374 q 418 352 419 364 q 414 329 417 340 q 411 310 413 319 q 408 294 410 301 q 408 285 408 292 q 406 278 407 279 q 415 265 406 269 q 432 260 425 260 l 943 260 l 899 0 l 186 0 q 136 9 165 0 q 80 38 107 18 q 33 92 53 58 q 14 176 14 126 z "},"é":{"ha":1079,"x_min":14,"x_max":1065,"o":"m 14 176 q 15 192 14 183 q 17 207 15 200 l 122 829 q 149 899 129 871 q 193 943 168 926 q 244 967 218 960 q 292 975 271 975 l 592 975 l 639 1161 l 813 1161 l 708 975 l 1065 975 l 1021 715 l 504 715 q 478 699 481 715 l 467 633 l 914 633 l 867 374 l 422 374 q 418 352 419 364 q 414 329 417 340 q 411 310 413 319 q 408 294 410 301 q 408 285 408 292 q 406 278 407 279 q 415 265 406 269 q 432 260 425 260 l 943 260 l 899 0 l 186 0 q 136 9 165 0 q 80 38 107 18 q 33 92 53 58 q 14 176 14 126 z "},"ê":{"ha":1079,"x_min":14,"x_max":1065,"o":"m 14 176 q 15 192 14 183 q 17 207 15 200 l 122 829 q 149 899 129 871 q 193 943 168 926 q 244 967 218 960 q 292 975 271 975 l 486 975 l 553 1161 l 744 1161 l 811 975 l 1065 975 l 1021 715 l 504 715 q 478 699 481 715 l 467 633 l 914 633 l 867 374 l 422 374 q 418 352 419 364 q 414 329 417 340 q 411 310 413 319 q 408 294 410 301 q 408 285 408 292 q 406 278 407 279 q 415 265 406 269 q 432 260 425 260 l 943 260 l 899 0 l 186 0 q 136 9 165 0 q 80 38 107 18 q 33 92 53 58 q 14 176 14 126 m 613 975 l 685 975 l 649 1063 l 613 975 z "},"ë":{"ha":1079,"x_min":14,"x_max":1065,"o":"m 14 176 q 15 192 14 183 q 17 207 15 200 l 122 829 q 149 899 129 871 q 193 943 168 926 q 244 967 218 960 q 292 975 271 975 l 1065 975 l 1021 715 l 504 715 q 478 699 481 715 l 467 633 l 914 633 l 867 374 l 422 374 q 418 352 419 364 q 414 329 417 340 q 411 310 413 319 q 408 294 410 301 q 408 285 408 292 q 406 278 407 279 q 415 265 406 269 q 432 260 425 260 l 943 260 l 899 0 l 186 0 q 136 9 165 0 q 80 38 107 18 q 33 92 53 58 q 14 176 14 126 m 494 1131 l 639 1131 l 615 996 l 472 996 l 494 1131 m 658 996 l 682 1131 l 825 1131 l 801 996 l 658 996 z "},"ì":{"ha":615,"x_min":28,"x_max":588,"o":"m 28 0 l 193 975 l 343 975 l 239 1161 l 413 1161 l 460 975 l 588 975 l 421 0 l 28 0 z "},"í":{"ha":615,"x_min":28,"x_max":588,"o":"m 193 975 l 322 975 l 369 1161 l 543 1161 l 439 975 l 588 975 l 421 0 l 28 0 l 193 975 z "},"î":{"ha":615,"x_min":28,"x_max":588,"o":"m 193 975 l 233 975 l 300 1161 l 490 1161 l 557 975 l 588 975 l 421 0 l 28 0 l 193 975 m 431 975 l 394 1063 l 358 975 l 431 975 z "},"ï":{"ha":615,"x_min":28,"x_max":588,"o":"m 28 0 l 193 975 l 588 975 l 421 0 l 28 0 m 226 996 l 249 1131 l 393 1131 l 369 996 l 226 996 m 436 1131 l 579 1131 l 556 996 l 413 996 l 436 1131 z "},"ð":{"ha":1235,"x_min":14,"x_max":1221,"o":"m 14 358 l 58 617 l 179 617 l 240 975 l 1047 975 q 1098 966 1068 975 q 1155 937 1128 957 q 1201 883 1182 917 q 1221 799 1221 849 q 1220 783 1221 792 q 1218 768 1219 775 l 1113 146 q 1085 76 1106 104 q 1040 32 1065 49 q 989 8 1015 15 q 942 0 963 0 l 75 0 l 135 358 l 14 358 m 731 260 q 757 276 754 260 q 763 305 758 283 q 772 357 767 326 q 783 424 776 388 q 794 499 789 461 q 808 573 801 538 q 818 635 814 608 q 825 679 822 663 q 828 697 828 696 q 827 703 828 700 q 821 708 826 706 q 811 714 817 713 q 801 715 806 715 l 574 715 l 557 617 l 700 617 l 656 358 l 513 358 l 496 260 l 731 260 z "},"ñ":{"ha":1238,"x_min":14,"x_max":1224,"o":"m 14 0 l 179 975 l 561 975 l 560 981 q 558 999 558 989 q 557 1015 557 1008 q 566 1078 557 1053 q 590 1118 575 1103 q 623 1140 604 1133 q 661 1146 642 1146 q 701 1140 682 1146 q 739 1126 721 1133 q 757 1119 749 1122 q 774 1113 765 1115 q 803 1107 789 1107 q 818 1138 819 1107 l 815 1161 l 933 1161 l 936 1146 q 938 1128 938 1138 q 939 1111 939 1119 q 930 1049 939 1074 q 906 1008 921 1024 q 873 987 892 993 q 835 981 854 981 q 794 987 814 981 q 757 1000 775 993 q 739 1008 747 1004 q 722 1014 731 1011 q 692 1019 707 1019 q 678 988 675 1019 l 679 975 l 1051 975 q 1102 966 1072 975 q 1159 937 1132 957 q 1205 883 1186 917 q 1224 799 1224 849 q 1223 783 1224 792 q 1221 768 1222 775 l 1090 0 l 713 0 l 717 26 q 726 71 719 38 q 740 153 732 104 q 758 260 749 201 q 778 379 768 319 q 799 497 789 440 q 816 598 808 554 q 828 669 824 642 q 832 697 832 696 q 822 710 832 706 q 806 715 813 715 l 514 715 l 392 0 l 14 0 z "},"ò":{"ha":1206,"x_min":14,"x_max":1190,"o":"m 14 176 q 15 192 14 183 q 17 207 15 200 l 122 829 q 149 899 129 871 q 193 943 168 926 q 244 967 218 960 q 292 975 271 975 l 622 975 l 517 1161 l 692 1161 l 739 975 l 1018 975 q 1069 966 1039 975 q 1126 937 1099 957 q 1172 883 1153 917 q 1190 799 1190 849 q 1190 783 1190 792 q 1189 768 1190 775 l 1082 146 q 1056 76 1075 104 q 1011 32 1036 49 q 960 8 986 15 q 913 0 933 0 l 186 0 q 136 9 165 0 q 80 38 107 18 q 33 92 53 58 q 14 176 14 126 m 404 267 q 414 261 408 263 q 422 260 419 260 l 711 260 q 738 276 735 260 q 743 305 739 283 q 752 357 747 326 q 763 424 757 388 q 775 499 769 461 q 788 573 782 538 q 799 635 794 608 q 806 679 803 663 q 808 697 808 696 q 799 710 808 706 q 782 715 789 715 l 493 715 q 467 699 469 715 q 462 670 465 692 q 453 618 458 649 q 442 551 449 588 q 429 476 436 514 q 418 402 424 438 q 408 340 413 367 q 400 296 403 313 q 397 278 397 279 q 398 272 397 275 q 404 267 399 269 z "},"ó":{"ha":1206,"x_min":14,"x_max":1190,"o":"m 14 176 q 15 192 14 183 q 17 207 15 200 l 122 829 q 149 899 129 871 q 193 943 168 926 q 244 967 218 960 q 292 975 271 975 l 625 975 l 672 1161 l 846 1161 l 742 975 l 1018 975 q 1069 966 1039 975 q 1126 937 1099 957 q 1172 883 1153 917 q 1190 799 1190 849 q 1190 783 1190 792 q 1189 768 1190 775 l 1082 146 q 1056 76 1075 104 q 1011 32 1036 49 q 960 8 986 15 q 913 0 933 0 l 186 0 q 136 9 165 0 q 80 38 107 18 q 33 92 53 58 q 14 176 14 126 m 404 267 q 414 261 408 263 q 422 260 419 260 l 711 260 q 738 276 735 260 q 743 305 739 283 q 752 357 747 326 q 763 424 757 388 q 775 499 769 461 q 788 573 782 538 q 799 635 794 608 q 806 679 803 663 q 808 697 808 696 q 799 710 808 706 q 782 715 789 715 l 493 715 q 467 699 469 715 q 462 670 465 692 q 453 618 458 649 q 442 551 449 588 q 429 476 436 514 q 418 402 424 438 q 408 340 413 367 q 400 296 403 313 q 397 278 397 279 q 398 272 397 275 q 404 267 399 269 z "},"ô":{"ha":1206,"x_min":14,"x_max":1190,"o":"m 14 176 q 15 192 14 183 q 17 207 15 200 l 122 829 q 149 899 129 871 q 193 943 168 926 q 244 967 218 960 q 292 975 271 975 l 536 975 l 603 1161 l 793 1161 l 860 975 l 1018 975 q 1069 966 1039 975 q 1126 937 1099 957 q 1172 883 1153 917 q 1190 799 1190 849 q 1190 783 1190 792 q 1189 768 1190 775 l 1082 146 q 1056 76 1075 104 q 1011 32 1036 49 q 960 8 986 15 q 913 0 933 0 l 186 0 q 136 9 165 0 q 80 38 107 18 q 33 92 53 58 q 14 176 14 126 m 397 278 q 398 272 397 275 q 404 267 399 269 q 414 261 408 263 q 422 260 419 260 l 711 260 q 738 276 735 260 q 743 305 739 283 q 752 357 747 326 q 763 424 757 388 q 775 499 769 461 q 788 573 782 538 q 799 635 794 608 q 806 679 803 663 q 808 697 808 696 q 799 710 808 706 q 782 715 789 715 l 493 715 q 467 699 469 715 q 462 670 465 692 q 453 618 458 649 q 442 551 449 588 q 429 476 436 514 q 418 402 424 438 q 408 340 413 367 q 400 296 403 313 q 397 278 397 279 m 733 975 l 697 1063 l 663 975 l 733 975 z "},"õ":{"ha":1206,"x_min":14,"x_max":1190,"o":"m 14 176 q 15 192 14 183 q 17 207 15 200 l 122 829 q 149 899 129 871 q 193 943 168 926 q 244 967 218 960 q 292 975 271 975 l 494 975 l 494 981 q 492 999 492 989 q 492 1015 492 1008 q 501 1078 492 1053 q 524 1118 510 1103 q 558 1140 539 1133 q 594 1146 576 1146 q 635 1140 615 1146 q 674 1126 656 1133 q 692 1119 683 1122 q 708 1113 700 1115 q 738 1107 721 1107 q 751 1138 756 1107 l 749 1161 l 867 1161 l 869 1146 q 872 1128 872 1138 q 872 1111 872 1119 q 863 1049 872 1074 q 840 1008 854 1024 q 807 987 825 993 q 769 981 789 981 q 728 987 749 981 q 690 1000 708 993 q 659 1013 676 1007 q 626 1019 642 1019 q 613 988 610 1019 l 613 975 l 1018 975 q 1069 966 1039 975 q 1126 937 1099 957 q 1172 883 1153 917 q 1190 799 1190 849 q 1190 783 1190 792 q 1189 768 1190 775 l 1082 146 q 1056 76 1075 104 q 1011 32 1036 49 q 960 8 986 15 q 913 0 933 0 l 186 0 q 136 9 165 0 q 80 38 107 18 q 33 92 53 58 q 14 176 14 126 m 397 278 q 398 272 397 275 q 404 267 399 269 q 414 261 408 263 q 422 260 419 260 l 711 260 q 738 276 735 260 q 743 305 739 283 q 752 357 747 326 q 763 424 757 388 q 775 499 769 461 q 788 573 782 538 q 799 635 794 608 q 806 679 803 663 q 808 697 808 696 q 799 710 808 706 q 782 715 789 715 l 493 715 q 467 699 469 715 q 462 670 465 692 q 453 618 458 649 q 442 551 449 588 q 429 476 436 514 q 418 402 424 438 q 408 340 413 367 q 400 296 403 313 q 397 278 397 279 z "},"ö":{"ha":1206,"x_min":14,"x_max":1190,"o":"m 17 207 l 122 829 q 149 899 129 871 q 193 943 168 926 q 244 967 218 960 q 292 975 271 975 l 1018 975 q 1069 966 1039 975 q 1126 937 1099 957 q 1172 883 1153 917 q 1190 799 1190 849 q 1190 783 1190 792 q 1189 768 1190 775 l 1082 146 q 1056 76 1075 104 q 1011 32 1036 49 q 960 8 986 15 q 913 0 933 0 l 186 0 q 136 9 165 0 q 80 38 107 18 q 33 92 53 58 q 14 176 14 126 q 15 192 14 183 q 17 207 15 200 m 404 267 q 414 261 408 263 q 422 260 419 260 l 711 260 q 738 276 735 260 q 743 305 739 283 q 752 357 747 326 q 763 424 757 388 q 775 499 769 461 q 788 573 782 538 q 799 635 794 608 q 806 679 803 663 q 808 697 808 696 q 799 710 808 706 q 782 715 789 715 l 493 715 q 467 699 469 715 q 462 670 465 692 q 453 618 458 649 q 442 551 449 588 q 429 476 436 514 q 418 402 424 438 q 408 340 413 367 q 400 296 403 313 q 397 278 397 279 q 398 272 397 275 q 404 267 399 269 m 708 996 l 731 1131 l 874 1131 l 851 996 l 708 996 m 521 996 l 544 1131 l 688 1131 l 664 996 l 521 996 z "},"÷":{"ha":457,"x_min":28,"x_max":429,"o":"m 382 529 l 81 529 l 122 789 l 429 789 l 382 529 m 28 186 l 75 446 l 381 446 l 338 186 l 28 186 z "},"ø":{"ha":1350,"x_min":14,"x_max":1335,"o":"m 1090 975 q 1174 954 1135 975 l 1247 1010 l 1335 904 l 1257 844 q 1263 799 1263 826 q 1263 783 1263 792 q 1260 768 1263 775 l 1154 146 q 1128 76 1147 104 q 1083 32 1108 49 q 1032 8 1058 15 q 985 0 1006 0 l 258 0 q 175 22 214 0 l 101 -35 l 14 72 l 92 131 q 86 176 86 149 q 86 192 86 183 q 89 207 86 200 l 194 829 q 221 899 201 871 q 265 943 240 926 q 317 967 290 960 q 364 975 343 975 l 1090 975 m 860 715 l 565 715 q 547 710 554 715 q 539 699 540 706 l 496 438 l 860 715 m 489 260 l 783 260 q 801 265 794 260 q 810 276 808 269 l 853 538 l 489 260 z "},"ù":{"ha":1207,"x_min":14,"x_max":1192,"o":"m 17 207 l 147 975 l 525 975 l 521 949 q 514 905 519 939 q 500 822 508 871 q 481 715 492 774 q 460 596 471 656 q 440 478 450 535 q 423 377 431 421 q 410 306 415 333 q 406 278 406 279 q 415 265 406 269 q 432 260 425 260 l 693 260 l 814 975 l 1192 975 l 1026 0 l 186 0 q 136 9 165 0 q 80 38 107 18 q 33 92 53 58 q 14 176 14 126 q 15 192 14 183 q 17 207 15 200 m 626 965 l 515 1161 l 690 1161 l 740 965 l 626 965 z "},"ú":{"ha":1207,"x_min":14,"x_max":1192,"o":"m 14 176 q 15 192 14 183 q 17 207 15 200 l 147 975 l 525 975 l 521 949 q 514 905 519 939 q 500 822 508 871 q 481 715 492 774 q 460 596 471 656 q 440 478 450 535 q 423 377 431 421 q 410 306 415 333 q 406 278 406 279 q 415 265 406 269 q 432 260 425 260 l 693 260 l 814 975 l 1192 975 l 1026 0 l 186 0 q 136 9 165 0 q 80 38 107 18 q 33 92 53 58 q 14 176 14 126 m 604 965 l 656 1161 l 829 1161 l 718 965 l 604 965 z "},"û":{"ha":1207,"x_min":14,"x_max":1192,"o":"m 17 207 l 147 975 l 503 975 l 569 1161 l 760 1161 l 826 975 l 1192 975 l 1026 0 l 186 0 q 136 9 165 0 q 80 38 107 18 q 33 92 53 58 q 14 176 14 126 q 15 192 14 183 q 17 207 15 200 m 406 278 q 415 265 406 269 q 432 260 425 260 l 693 260 l 813 965 l 704 965 l 664 1063 l 625 965 l 524 965 l 521 949 q 514 905 519 939 q 500 822 508 871 q 481 715 492 774 q 460 596 471 656 q 440 478 450 535 q 423 377 431 421 q 410 306 415 333 q 406 278 406 279 z "},"ü":{"ha":1207,"x_min":14,"x_max":1192,"o":"m 17 207 l 147 975 l 525 975 l 521 949 q 514 905 519 939 q 500 822 508 871 q 481 715 492 774 q 460 596 471 656 q 440 478 450 535 q 423 377 431 421 q 410 306 415 333 q 406 278 406 279 q 415 265 406 269 q 432 260 425 260 l 693 260 l 814 975 l 1192 975 l 1026 0 l 186 0 q 136 9 165 0 q 80 38 107 18 q 33 92 53 58 q 14 176 14 126 q 15 192 14 183 q 17 207 15 200 m 714 1131 l 857 1131 l 833 996 l 690 996 l 714 1131 m 504 996 l 526 1131 l 669 1131 l 647 996 l 504 996 z "},"ý":{"ha":1124,"x_min":14,"x_max":1110,"o":"m 392 975 l 479 571 l 494 571 l 725 975 l 1110 975 l 826 449 q 788 400 810 418 q 744 373 767 382 q 697 361 721 364 q 651 358 674 358 l 590 0 l 214 0 l 275 361 q 227 372 253 364 q 178 397 201 381 q 138 438 156 413 q 113 497 119 463 l 14 975 l 392 975 m 481 965 l 532 1161 l 706 1161 l 594 965 l 481 965 z "},"þ":{"ha":1171,"x_min":14,"x_max":1157,"o":"m 557 975 l 535 843 l 985 843 q 1035 834 1006 843 q 1092 805 1065 825 q 1138 751 1119 785 q 1157 667 1157 717 q 1156 651 1157 658 q 1154 636 1156 643 l 1093 278 q 1067 208 1086 236 q 1022 164 1047 181 q 971 140 997 147 q 924 132 944 132 l 414 132 l 392 0 l 14 0 l 179 975 l 557 975 m 490 583 l 458 392 l 713 392 q 730 397 724 392 q 738 408 736 403 q 751 475 744 438 q 761 543 758 513 q 764 560 764 557 q 765 564 764 563 q 765 565 765 564 q 756 578 765 574 q 739 583 746 583 l 490 583 z "},"ÿ":{"ha":1124,"x_min":14,"x_max":1110,"o":"m 392 975 l 479 571 l 494 571 l 725 975 l 1110 975 l 826 449 q 788 400 810 418 q 744 373 767 382 q 697 361 721 364 q 651 358 674 358 l 590 0 l 214 0 l 275 361 q 227 372 253 364 q 178 397 201 381 q 138 438 156 413 q 113 497 119 463 l 14 975 l 392 975 m 621 1131 l 765 1131 l 742 996 l 599 996 l 621 1131 m 413 996 l 435 1131 l 578 1131 l 556 996 l 413 996 z "},"Ā":{"ha":1081,"x_min":14,"x_max":1067,"o":"m 279 975 l 811 975 q 860 967 832 975 q 914 941 888 960 q 960 892 940 922 q 983 818 979 863 l 1067 0 l 706 0 l 692 140 l 415 140 l 376 0 l 14 0 l 279 975 m 482 996 l 482 1131 l 826 1131 l 826 996 l 482 996 m 407 694 l 567 694 l 486 400 l 665 400 l 635 699 q 626 710 633 704 q 608 715 619 715 l 435 715 q 419 713 424 715 q 413 707 415 710 q 410 701 411 704 q 407 694 410 699 z "},"ā":{"ha":1081,"x_min":14,"x_max":1067,"o":"m 279 975 l 811 975 q 860 967 832 975 q 914 941 888 960 q 960 892 940 922 q 983 818 979 863 l 1067 0 l 706 0 l 692 140 l 415 140 l 376 0 l 14 0 l 279 975 m 826 1131 l 826 996 l 482 996 l 482 1131 l 826 1131 m 486 400 l 665 400 l 635 699 q 626 710 633 704 q 608 715 619 715 l 572 715 l 486 400 z "},"Ă":{"ha":1081,"x_min":14,"x_max":1067,"o":"m 14 0 l 279 975 l 811 975 q 860 967 832 975 q 914 941 888 960 q 960 892 940 922 q 983 818 979 863 l 1067 0 l 706 0 l 692 140 l 415 140 l 376 0 l 14 0 m 407 694 l 567 694 l 486 400 l 665 400 l 635 699 q 626 710 633 704 q 608 715 619 715 l 435 715 q 419 713 424 715 q 413 707 415 710 q 410 701 411 704 q 407 694 410 699 m 619 1131 l 619 1110 q 628 1094 619 1101 q 654 1088 639 1088 q 676 1093 664 1088 q 688 1110 688 1099 l 688 1131 l 794 1131 l 794 1110 q 782 1060 794 1081 q 750 1024 769 1039 q 705 1003 731 1010 q 654 996 679 996 q 603 1003 629 996 q 558 1024 578 1010 q 525 1060 538 1039 q 513 1110 513 1081 l 513 1131 l 619 1131 z "},"ă":{"ha":1081,"x_min":14,"x_max":1067,"o":"m 14 0 l 279 975 l 811 975 q 860 967 832 975 q 914 941 888 960 q 960 892 940 922 q 983 818 979 863 l 1067 0 l 706 0 l 692 140 l 415 140 l 376 0 l 14 0 m 665 400 l 635 699 q 626 710 633 704 q 608 715 619 715 l 572 715 l 486 400 l 665 400 m 619 1131 l 619 1110 q 628 1094 619 1101 q 654 1088 639 1088 q 676 1093 664 1088 q 688 1110 688 1099 l 688 1131 l 794 1131 l 794 1110 q 782 1060 794 1081 q 750 1024 769 1039 q 705 1003 731 1010 q 654 996 679 996 q 603 1003 629 996 q 558 1024 578 1010 q 525 1060 538 1039 q 513 1110 513 1081 l 513 1131 l 619 1131 z "},"Ć":{"ha":1111,"x_min":14,"x_max":1096,"o":"m 14 176 q 15 192 14 183 q 17 207 15 200 l 122 829 q 149 899 129 871 q 193 943 168 926 q 244 967 218 960 q 292 975 271 975 l 575 975 l 624 1161 l 797 1161 l 692 975 l 1096 975 l 1053 715 l 344 715 q 328 711 333 715 q 318 694 322 707 l 478 694 l 472 669 q 467 641 471 661 q 459 593 464 621 q 449 531 454 565 q 438 463 443 497 q 426 394 432 426 q 416 335 421 361 q 408 294 411 310 q 406 278 406 279 q 415 265 406 269 q 432 260 425 260 l 975 260 l 931 0 l 186 0 q 136 9 165 0 q 80 38 107 18 q 33 92 53 58 q 14 176 14 126 z "},"ć":{"ha":1111,"x_min":14,"x_max":1096,"o":"m 14 176 q 15 192 14 183 q 17 207 15 200 l 122 829 q 149 899 129 871 q 193 943 168 926 q 244 967 218 960 q 292 975 271 975 l 575 975 l 624 1161 l 797 1161 l 692 975 l 1096 975 l 1053 715 l 504 715 q 478 699 481 715 q 473 670 476 692 q 464 618 469 649 q 452 551 458 588 q 439 476 446 514 q 427 402 433 438 q 416 340 421 367 q 408 296 411 313 q 406 278 406 279 q 415 265 406 269 q 432 260 425 260 l 975 260 l 931 0 l 186 0 q 136 9 165 0 q 80 38 107 18 q 33 92 53 58 q 14 176 14 126 z "},"Č":{"ha":1111,"x_min":14,"x_max":1096,"o":"m 14 176 q 15 192 14 183 q 17 207 15 200 l 122 829 q 149 899 129 871 q 193 943 168 926 q 244 967 218 960 q 292 975 271 975 l 581 975 l 514 1161 l 640 1161 l 681 1064 l 721 1161 l 846 1161 l 779 975 l 1096 975 l 1053 715 l 344 715 q 328 711 333 715 q 318 694 322 707 l 478 694 l 472 669 q 467 641 471 661 q 459 593 464 621 q 449 531 454 565 q 438 463 443 497 q 426 394 432 426 q 416 335 421 361 q 408 294 411 310 q 406 278 406 279 q 415 265 406 269 q 432 260 425 260 l 975 260 l 931 0 l 186 0 q 136 9 165 0 q 80 38 107 18 q 33 92 53 58 q 14 176 14 126 z "},"č":{"ha":1111,"x_min":14,"x_max":1096,"o":"m 14 176 q 15 192 14 183 q 17 207 15 200 l 122 829 q 149 899 129 871 q 193 943 168 926 q 244 967 218 960 q 292 975 271 975 l 581 975 l 514 1161 l 640 1161 l 681 1064 l 721 1161 l 846 1161 l 779 975 l 1096 975 l 1053 715 l 504 715 q 478 699 481 715 q 473 670 476 692 q 464 618 469 649 q 452 551 458 588 q 439 476 446 514 q 427 402 433 438 q 416 340 421 367 q 408 296 411 313 q 406 278 406 279 q 415 265 406 269 q 432 260 425 260 l 975 260 l 931 0 l 186 0 q 136 9 165 0 q 80 38 107 18 q 33 92 53 58 q 14 176 14 126 z "},"Đ":{"ha":1235,"x_min":14,"x_max":1221,"o":"m 14 358 l 58 617 l 179 617 l 240 975 l 1047 975 q 1098 966 1068 975 q 1155 937 1128 957 q 1201 883 1182 917 q 1221 799 1221 849 q 1220 783 1221 792 q 1218 768 1219 775 l 1113 146 q 1085 76 1106 104 q 1040 32 1065 49 q 989 8 1015 15 q 942 0 963 0 l 75 0 l 135 358 l 14 358 m 569 694 l 557 617 l 700 617 l 656 358 l 513 358 l 496 260 l 731 260 q 757 276 754 260 q 763 305 758 283 q 772 357 767 326 q 783 424 776 388 q 794 499 789 461 q 808 573 801 538 q 818 635 814 608 q 825 679 822 663 q 828 697 828 696 q 827 703 828 700 q 821 708 826 706 q 811 714 817 713 q 801 715 806 715 l 438 715 q 421 712 426 715 q 413 694 415 708 l 569 694 z "},"đ":{"ha":1235,"x_min":14,"x_max":1221,"o":"m 14 358 l 58 617 l 179 617 l 240 975 l 1047 975 q 1098 966 1068 975 q 1155 937 1128 957 q 1201 883 1182 917 q 1221 799 1221 849 q 1220 783 1221 792 q 1218 768 1219 775 l 1113 146 q 1085 76 1106 104 q 1040 32 1065 49 q 989 8 1015 15 q 942 0 963 0 l 75 0 l 135 358 l 14 358 m 731 260 q 757 276 754 260 q 763 305 758 283 q 772 357 767 326 q 783 424 776 388 q 794 499 789 461 q 808 573 801 538 q 818 635 814 608 q 825 679 822 663 q 828 697 828 696 q 827 703 828 700 q 821 708 826 706 q 811 714 817 713 q 801 715 806 715 l 574 715 l 557 617 l 700 617 l 656 358 l 513 358 l 496 260 l 731 260 z "},"Ē":{"ha":1079,"x_min":14,"x_max":1065,"o":"m 492 996 l 492 1131 l 838 1131 l 838 996 l 492 996 m 14 176 q 15 192 14 183 q 17 207 15 200 l 122 829 q 149 899 129 871 q 193 943 168 926 q 244 967 218 960 q 292 975 271 975 l 1065 975 l 1021 715 l 344 715 q 328 711 333 715 q 318 694 322 707 l 478 694 l 467 633 l 914 633 l 867 374 l 422 374 q 418 352 419 364 q 414 329 417 340 q 411 310 413 319 q 408 294 410 301 q 408 285 408 292 q 406 278 407 279 q 415 265 406 269 q 432 260 425 260 l 943 260 l 899 0 l 186 0 q 136 9 165 0 q 80 38 107 18 q 33 92 53 58 q 14 176 14 126 z "},"ē":{"ha":1079,"x_min":14,"x_max":1065,"o":"m 492 996 l 492 1131 l 838 1131 l 838 996 l 492 996 m 14 176 q 15 192 14 183 q 17 207 15 200 l 122 829 q 149 899 129 871 q 193 943 168 926 q 244 967 218 960 q 292 975 271 975 l 1065 975 l 1021 715 l 504 715 q 486 710 493 715 q 478 699 479 706 l 467 633 l 914 633 l 867 374 l 422 374 q 418 352 419 364 q 414 329 417 340 q 411 310 413 319 q 408 294 410 301 q 408 285 408 292 q 406 278 407 279 q 415 265 406 269 q 432 260 425 260 l 943 260 l 899 0 l 186 0 q 136 9 165 0 q 80 38 107 18 q 33 92 53 58 q 14 176 14 126 z "},"Ě":{"ha":1079,"x_min":14,"x_max":1065,"o":"m 14 176 q 15 192 14 183 q 17 207 15 200 l 122 829 q 149 899 129 871 q 193 943 168 926 q 244 967 218 960 q 292 975 271 975 l 565 975 l 499 1161 l 625 1161 l 664 1064 l 704 1161 l 831 1161 l 764 975 l 1065 975 l 1021 715 l 344 715 q 328 711 333 715 q 318 694 322 707 l 478 694 l 467 633 l 914 633 l 867 374 l 422 374 q 418 352 419 364 q 414 329 417 340 q 411 310 413 319 q 408 294 410 301 q 408 285 408 292 q 406 278 407 279 q 415 265 406 269 q 432 260 425 260 l 943 260 l 899 0 l 186 0 q 136 9 165 0 q 80 38 107 18 q 33 92 53 58 q 14 176 14 126 z "},"ě":{"ha":1079,"x_min":14,"x_max":1065,"o":"m 14 176 q 15 192 14 183 q 17 207 15 200 l 122 829 q 149 899 129 871 q 193 943 168 926 q 244 967 218 960 q 292 975 271 975 l 565 975 l 499 1161 l 625 1161 l 664 1064 l 704 1161 l 831 1161 l 764 975 l 1065 975 l 1021 715 l 504 715 q 478 699 481 715 l 467 633 l 914 633 l 867 374 l 422 374 q 418 352 419 364 q 414 329 417 340 q 411 310 413 319 q 408 294 410 301 q 408 285 408 292 q 406 278 407 279 q 415 265 406 269 q 432 260 425 260 l 943 260 l 899 0 l 186 0 q 136 9 165 0 q 80 38 107 18 q 33 92 53 58 q 14 176 14 126 z "},"Ğ":{"ha":1190,"x_min":14,"x_max":1176,"o":"m 14 176 q 15 192 14 183 q 17 207 15 200 l 122 829 q 149 899 129 871 q 193 943 168 926 q 244 967 218 960 q 292 975 271 975 l 1176 975 l 1132 715 l 344 715 q 327 711 333 715 q 318 694 321 707 l 478 694 l 403 260 l 676 260 l 700 374 l 538 374 l 585 633 l 1121 633 l 1035 146 q 1008 76 1028 104 q 964 32 989 49 q 913 8 939 15 q 865 0 886 0 l 186 0 q 136 9 165 0 q 80 38 107 18 q 33 92 53 58 q 14 176 14 126 m 571 1110 l 571 1131 l 678 1131 l 678 1110 q 686 1094 678 1101 q 713 1088 697 1088 q 734 1093 722 1088 q 746 1110 746 1099 l 746 1131 l 853 1131 l 853 1110 q 840 1060 853 1081 q 808 1024 828 1039 q 763 1003 789 1010 q 713 996 738 996 q 662 1003 688 996 q 616 1024 636 1010 q 583 1060 596 1039 q 571 1110 571 1081 z "},"ğ":{"ha":1190,"x_min":14,"x_max":1176,"o":"m 17 207 l 122 829 q 149 899 129 871 q 193 943 168 926 q 244 967 218 960 q 292 975 271 975 l 1176 975 l 1132 715 l 481 715 l 403 260 l 676 260 l 700 374 l 538 374 l 585 633 l 1121 633 l 1035 146 q 1008 76 1028 104 q 964 32 989 49 q 913 8 939 15 q 865 0 886 0 l 186 0 q 136 9 165 0 q 80 38 107 18 q 33 92 53 58 q 14 176 14 126 q 15 192 14 183 q 17 207 15 200 m 571 1110 l 571 1131 l 678 1131 l 678 1110 q 686 1094 678 1101 q 713 1088 697 1088 q 734 1093 722 1088 q 746 1110 746 1099 l 746 1131 l 853 1131 l 853 1110 q 840 1060 853 1081 q 808 1024 828 1039 q 763 1003 789 1010 q 713 996 738 996 q 662 1003 688 996 q 616 1024 636 1010 q 583 1060 596 1039 q 571 1110 571 1081 z "},"Ī":{"ha":615,"x_min":28,"x_max":588,"o":"m 564 996 l 218 996 l 218 1131 l 564 1131 l 564 996 m 539 694 l 421 0 l 28 0 l 193 975 l 588 975 l 543 715 l 407 715 q 390 712 396 715 q 381 694 385 708 l 539 694 z "},"ī":{"ha":615,"x_min":28,"x_max":588,"o":"m 564 996 l 218 996 l 218 1131 l 564 1131 l 564 996 m 193 975 l 588 975 l 421 0 l 28 0 l 193 975 z "},"ı":{"ha":536,"x_min":28,"x_max":507,"o":"m 507 819 l 369 0 l 28 0 l 165 819 l 507 819 z "},"Ł":{"ha":1017,"x_min":14,"x_max":1003,"o":"m 1003 260 l 965 0 l 111 0 l 160 290 l 14 224 l 58 489 l 206 554 l 276 975 l 671 975 l 631 747 l 846 844 l 801 581 l 586 482 l 550 281 l 415 281 q 397 276 403 281 q 389 260 392 272 l 1003 260 z "},"ł":{"ha":1017,"x_min":14,"x_max":1003,"o":"m 547 260 l 1003 260 l 965 0 l 111 0 l 160 290 l 14 224 l 58 489 l 206 554 l 276 975 l 671 975 l 631 747 l 846 844 l 801 581 l 586 482 l 547 260 z "},"Ń":{"ha":1238,"x_min":14,"x_max":1224,"o":"m 179 975 l 675 975 l 722 1161 l 896 1161 l 792 975 l 1051 975 q 1102 966 1072 975 q 1159 937 1132 957 q 1205 883 1186 917 q 1224 799 1224 849 q 1223 783 1224 792 q 1221 768 1222 775 l 1090 0 l 713 0 l 717 26 q 726 71 719 38 q 740 153 732 104 q 758 260 749 201 q 778 379 768 319 q 799 497 789 440 q 816 598 808 554 q 828 669 824 642 q 832 697 832 696 q 822 710 832 706 q 806 715 813 715 l 378 715 q 360 711 365 715 q 351 694 354 707 l 510 694 l 392 0 l 14 0 l 179 975 z "},"ń":{"ha":1238,"x_min":14,"x_max":1224,"o":"m 179 975 l 675 975 l 722 1161 l 896 1161 l 792 975 l 1051 975 q 1102 966 1072 975 q 1159 937 1132 957 q 1205 883 1186 917 q 1224 799 1224 849 q 1223 783 1224 792 q 1221 768 1222 775 l 1090 0 l 713 0 l 717 26 q 726 71 719 38 q 740 153 732 104 q 758 260 749 201 q 778 379 768 319 q 799 497 789 440 q 816 598 808 554 q 828 669 824 642 q 832 697 832 696 q 822 710 832 706 q 806 715 813 715 l 514 715 l 392 0 l 14 0 l 179 975 z "},"Ň":{"ha":1238,"x_min":14,"x_max":1224,"o":"m 14 0 l 179 975 l 617 975 l 550 1161 l 676 1161 l 717 1064 l 756 1161 l 882 1161 l 815 975 l 1051 975 q 1102 966 1072 975 q 1159 937 1132 957 q 1205 883 1186 917 q 1224 799 1224 849 q 1223 783 1224 792 q 1221 768 1222 775 l 1090 0 l 713 0 l 717 26 q 726 71 719 38 q 740 153 732 104 q 758 260 749 201 q 778 379 768 319 q 799 497 789 440 q 816 598 808 554 q 828 669 824 642 q 832 697 832 696 q 822 710 832 706 q 806 715 813 715 l 378 715 q 360 711 365 715 q 351 694 354 707 l 510 694 l 392 0 l 14 0 z "},"ň":{"ha":1238,"x_min":14,"x_max":1224,"o":"m 179 975 l 617 975 l 550 1161 l 676 1161 l 717 1064 l 756 1161 l 882 1161 l 815 975 l 1051 975 q 1102 966 1072 975 q 1159 937 1132 957 q 1205 883 1186 917 q 1224 799 1224 849 q 1223 783 1224 792 q 1221 768 1222 775 l 1090 0 l 713 0 l 717 26 q 726 71 719 38 q 740 153 732 104 q 758 260 749 201 q 778 379 768 319 q 799 497 789 440 q 816 598 808 554 q 828 669 824 642 q 832 697 832 696 q 822 710 832 706 q 806 715 813 715 l 514 715 l 392 0 l 14 0 l 179 975 z "},"Ō":{"ha":1206,"x_min":14,"x_max":1190,"o":"m 871 996 l 525 996 l 525 1131 l 871 1131 l 871 996 m 186 0 q 136 9 165 0 q 80 38 107 18 q 33 92 53 58 q 14 176 14 126 q 15 192 14 183 q 17 207 15 200 l 122 829 q 149 899 129 871 q 193 943 168 926 q 244 967 218 960 q 292 975 271 975 l 1018 975 q 1069 966 1039 975 q 1126 937 1099 957 q 1172 883 1153 917 q 1190 799 1190 849 q 1190 783 1190 792 q 1189 768 1190 775 l 1082 146 q 1056 76 1075 104 q 1011 32 1036 49 q 960 8 986 15 q 913 0 933 0 l 186 0 m 467 694 l 463 669 q 458 642 461 663 q 449 593 454 621 q 439 531 444 565 q 426 463 433 497 q 415 394 421 426 q 406 335 410 361 q 399 294 401 310 q 397 278 397 279 q 398 272 397 275 q 404 267 399 269 q 414 261 408 263 q 422 260 419 260 l 711 260 q 729 265 722 260 q 738 276 736 269 q 742 305 739 283 q 751 357 746 326 q 763 424 757 388 q 775 499 769 461 q 788 573 782 538 q 799 635 794 608 q 806 679 803 663 q 808 697 808 696 q 801 708 808 703 q 792 714 797 713 q 782 715 786 715 l 335 715 q 317 712 322 715 q 308 694 311 708 l 467 694 z "},"ō":{"ha":1206,"x_min":14,"x_max":1190,"o":"m 525 996 l 525 1131 l 871 1131 l 871 996 l 525 996 m 186 0 q 136 9 165 0 q 80 38 107 18 q 33 92 53 58 q 14 176 14 126 q 15 192 14 183 q 17 207 15 200 l 122 829 q 149 899 129 871 q 193 943 168 926 q 244 967 218 960 q 292 975 271 975 l 1018 975 q 1069 966 1039 975 q 1126 937 1099 957 q 1172 883 1153 917 q 1190 799 1190 849 q 1190 783 1190 792 q 1189 768 1190 775 l 1082 146 q 1056 76 1075 104 q 1011 32 1036 49 q 960 8 986 15 q 913 0 933 0 l 186 0 m 404 267 q 414 261 408 263 q 422 260 419 260 l 711 260 q 729 265 722 260 q 738 276 736 269 q 742 305 739 283 q 751 357 746 326 q 763 424 757 388 q 775 499 769 461 q 788 573 782 538 q 799 635 794 608 q 806 679 803 663 q 808 697 808 696 q 801 708 808 703 q 792 714 797 713 q 782 715 786 715 l 493 715 q 475 710 482 715 q 467 699 468 706 q 462 670 465 692 q 453 618 458 649 q 442 551 449 588 q 429 476 436 514 q 417 402 424 438 q 407 340 411 367 q 400 296 403 313 q 397 278 397 279 q 398 272 397 275 q 404 267 399 269 z "},"Œ":{"ha":1647,"x_min":14,"x_max":1633,"o":"m 14 176 q 15 192 14 183 q 17 207 15 200 l 122 829 q 149 899 129 871 q 193 943 168 926 q 244 967 218 960 q 292 975 271 975 l 1633 975 l 1589 715 l 1113 715 l 1099 633 l 1483 633 l 1436 374 l 1054 374 l 1035 260 l 1511 260 l 1468 0 l 186 0 q 136 9 165 0 q 80 38 107 18 q 33 92 53 58 q 14 176 14 126 m 467 694 l 463 669 q 458 641 461 661 q 449 593 454 621 q 439 531 444 565 q 426 463 433 497 q 415 394 421 426 q 406 335 410 361 q 399 294 401 310 q 397 278 397 279 q 398 272 397 275 q 404 267 399 269 q 414 261 408 263 q 422 260 419 260 l 657 260 l 735 715 l 335 715 q 317 712 322 715 q 308 694 311 708 l 467 694 z "},"œ":{"ha":1647,"x_min":14,"x_max":1633,"o":"m 17 207 l 122 829 q 149 899 129 871 q 193 943 168 926 q 244 967 218 960 q 292 975 271 975 l 1633 975 l 1589 715 l 1113 715 l 1099 633 l 1483 633 l 1436 374 l 1054 374 l 1035 260 l 1511 260 l 1468 0 l 186 0 q 136 9 165 0 q 80 38 107 18 q 33 92 53 58 q 14 176 14 126 q 15 192 14 183 q 17 207 15 200 m 404 267 q 414 261 408 263 q 422 260 419 260 l 657 260 l 735 715 l 493 715 q 467 699 469 715 q 462 670 465 692 q 453 618 458 649 q 442 551 449 588 q 429 476 436 514 q 418 402 424 438 q 408 340 413 367 q 400 296 403 313 q 397 278 397 279 q 398 272 397 275 q 404 267 399 269 z "},"Ŕ":{"ha":1174,"x_min":14,"x_max":1160,"o":"m 14 0 l 179 975 l 611 975 l 660 1161 l 833 1161 l 728 975 l 988 975 q 1038 966 1008 975 q 1095 937 1068 957 q 1141 883 1122 917 q 1160 799 1160 849 q 1160 783 1160 792 q 1157 768 1160 775 l 1096 410 q 1074 346 1090 372 q 1035 303 1057 319 q 988 277 1013 286 q 943 265 964 268 l 997 0 l 651 0 l 597 264 l 436 264 l 392 0 l 14 0 m 510 694 l 481 524 l 715 524 q 733 529 726 524 q 742 540 740 535 q 747 573 743 549 q 756 625 751 597 q 764 675 763 653 q 766 685 765 681 q 767 693 767 689 q 768 696 768 694 l 768 697 q 758 710 768 706 q 742 715 749 715 l 378 715 q 360 712 365 715 q 351 694 354 708 l 510 694 z "},"ŕ":{"ha":1174,"x_min":14,"x_max":1160,"o":"m 14 0 l 179 975 l 611 975 l 660 1161 l 833 1161 l 728 975 l 988 975 q 1038 966 1008 975 q 1095 937 1068 957 q 1141 883 1122 917 q 1160 799 1160 849 q 1160 783 1160 792 q 1157 768 1160 775 l 1096 410 q 1074 346 1090 372 q 1035 303 1057 319 q 988 277 1013 286 q 943 265 964 268 l 997 0 l 651 0 l 597 264 l 436 264 l 392 0 l 14 0 m 481 524 l 715 524 q 733 529 726 524 q 742 540 740 535 q 747 573 743 549 q 756 625 751 597 q 764 675 763 653 q 766 685 765 681 q 767 693 767 689 q 768 696 768 694 l 768 697 q 758 710 768 706 q 742 715 749 715 l 514 715 l 481 524 z "},"Ř":{"ha":1174,"x_min":14,"x_max":1160,"o":"m 14 0 l 179 975 l 569 975 l 503 1161 l 628 1161 l 668 1064 l 708 1161 l 835 1161 l 768 975 l 988 975 q 1038 966 1008 975 q 1095 937 1068 957 q 1141 883 1122 917 q 1160 799 1160 849 q 1160 783 1160 792 q 1157 768 1160 775 l 1096 410 q 1074 346 1090 372 q 1035 303 1057 319 q 988 277 1013 286 q 943 265 964 268 l 997 0 l 651 0 l 597 264 l 436 264 l 392 0 l 14 0 m 510 694 l 481 524 l 715 524 q 733 529 726 524 q 742 540 740 535 q 747 573 743 549 q 756 625 751 597 q 764 675 763 653 q 766 685 765 681 q 767 693 767 689 q 768 696 768 694 l 768 697 q 758 710 768 706 q 742 715 749 715 l 378 715 q 360 712 365 715 q 351 694 354 708 l 510 694 z "},"ř":{"ha":1174,"x_min":14,"x_max":1160,"o":"m 14 0 l 179 975 l 569 975 l 503 1161 l 628 1161 l 668 1064 l 708 1161 l 835 1161 l 768 975 l 988 975 q 1038 966 1008 975 q 1095 937 1068 957 q 1141 883 1122 917 q 1160 799 1160 849 q 1160 783 1160 792 q 1157 768 1160 775 l 1096 410 q 1074 346 1090 372 q 1035 303 1057 319 q 988 277 1013 286 q 943 265 964 268 l 997 0 l 651 0 l 597 264 l 436 264 l 392 0 l 14 0 m 481 524 l 715 524 q 733 529 726 524 q 742 540 740 535 q 747 573 743 549 q 756 625 751 597 q 764 675 763 653 q 766 685 765 681 q 767 693 767 689 q 768 696 768 694 l 768 697 q 758 710 768 706 q 742 715 749 715 l 514 715 l 481 524 z "},"Ś":{"ha":1079,"x_min":14,"x_max":1065,"o":"m 58 260 l 533 260 q 560 276 553 260 q 563 290 561 282 q 567 307 564 297 q 569 319 568 313 q 571 331 571 325 q 567 339 571 333 q 556 347 564 344 l 236 468 q 200 488 219 475 q 164 522 181 501 q 136 569 147 542 q 125 633 125 597 q 128 678 125 650 q 138 733 132 706 q 148 788 143 761 q 156 829 153 814 q 182 899 163 871 q 226 943 201 926 q 278 967 251 960 q 325 975 304 975 l 594 975 l 642 1161 l 815 1161 l 711 975 l 1065 975 l 1021 715 l 385 715 q 368 711 374 715 q 358 694 363 707 l 513 694 l 514 675 q 528 660 514 665 l 846 538 q 882 519 863 532 q 918 485 901 506 q 946 436 935 464 q 957 372 957 408 q 953 325 957 357 q 942 260 949 293 q 931 195 936 226 q 924 147 926 164 q 897 77 917 106 q 853 32 878 49 q 801 8 828 15 q 753 0 774 0 l 14 0 l 58 260 z "},"ś":{"ha":1079,"x_min":14,"x_max":1065,"o":"m 58 260 l 533 260 q 560 276 557 260 q 563 290 561 282 q 567 307 564 297 q 569 319 568 313 q 571 331 571 325 q 567 339 571 333 q 556 347 564 344 l 236 468 q 200 488 219 475 q 164 522 181 501 q 136 569 147 542 q 125 633 125 597 q 128 678 125 650 q 138 733 132 706 q 148 788 143 761 q 156 829 153 814 q 182 899 163 871 q 226 943 201 926 q 278 967 251 960 q 325 975 304 975 l 594 975 l 642 1161 l 815 1161 l 711 975 l 1065 975 l 1021 715 l 543 715 q 514 675 514 715 q 528 660 514 665 l 846 538 q 882 519 863 532 q 918 485 901 506 q 946 436 935 464 q 957 372 957 408 q 953 325 957 357 q 942 260 949 293 q 931 195 936 226 q 924 147 926 164 q 897 77 917 106 q 853 32 878 49 q 801 8 828 15 q 753 0 774 0 l 14 0 l 58 260 z "},"Ş":{"ha":1079,"x_min":14,"x_max":1065,"o":"m 14 0 l 58 260 l 533 260 q 560 276 553 260 q 563 290 561 282 q 567 307 564 297 q 569 319 568 313 q 571 331 571 325 q 567 339 571 333 q 556 347 564 344 l 236 468 q 200 488 219 475 q 164 522 181 501 q 136 569 147 542 q 125 633 125 597 q 128 678 125 650 q 138 733 132 706 q 148 788 143 761 q 156 829 153 814 q 182 899 163 871 q 226 943 201 926 q 278 967 251 960 q 325 975 304 975 l 1065 975 l 1021 715 l 385 715 q 368 711 374 715 q 358 694 363 707 l 513 694 l 514 675 q 528 660 514 665 l 846 538 q 882 519 863 532 q 918 485 901 506 q 946 436 935 464 q 957 372 957 408 q 953 325 957 357 q 942 260 949 293 q 931 195 936 226 q 924 147 926 164 q 897 77 917 106 q 853 32 878 49 q 801 8 828 15 q 753 0 774 0 l 536 0 l 554 -7 l 528 -154 l 333 -156 l 353 -50 l 388 -50 l 394 0 l 14 0 z "},"ş":{"ha":1079,"x_min":14,"x_max":1065,"o":"m 58 260 l 533 260 q 560 276 557 260 q 563 290 561 282 q 567 307 564 297 q 569 319 568 313 q 571 331 571 325 q 567 339 571 333 q 556 347 564 344 l 236 468 q 200 488 219 475 q 164 522 181 501 q 136 569 147 542 q 125 633 125 597 q 128 678 125 650 q 138 733 132 706 q 148 788 143 761 q 156 829 153 814 q 182 899 163 871 q 226 943 201 926 q 278 967 251 960 q 325 975 304 975 l 1065 975 l 1021 715 l 543 715 q 514 675 514 715 q 528 660 514 665 l 846 538 q 882 519 863 532 q 918 485 901 506 q 946 436 935 464 q 957 372 957 408 q 953 325 957 357 q 942 260 949 293 q 931 195 936 226 q 924 147 926 164 q 897 77 917 106 q 853 32 878 49 q 801 8 828 15 q 753 0 774 0 l 536 0 l 554 -7 l 528 -154 l 333 -156 l 353 -50 l 388 -50 l 394 0 l 14 0 l 58 260 z "},"Š":{"ha":1079,"x_min":14,"x_max":1065,"o":"m 58 260 l 533 260 q 560 276 553 260 q 563 290 561 282 q 567 307 564 297 q 569 319 568 313 q 571 331 571 325 q 567 339 571 333 q 556 347 564 344 l 236 468 q 200 488 219 475 q 164 522 181 501 q 136 569 147 542 q 125 633 125 597 q 128 678 125 650 q 138 733 132 706 q 148 788 143 761 q 156 829 153 814 q 182 899 163 871 q 226 943 201 926 q 278 967 251 960 q 325 975 304 975 l 568 975 l 501 1161 l 626 1161 l 667 1064 l 707 1161 l 832 1161 l 765 975 l 1065 975 l 1021 715 l 385 715 q 368 711 374 715 q 358 694 363 707 l 513 694 l 514 675 q 528 660 514 665 l 846 538 q 882 519 863 532 q 918 485 901 506 q 946 436 935 464 q 957 372 957 408 q 953 325 957 357 q 942 260 949 293 q 931 195 936 226 q 924 147 926 164 q 897 77 917 106 q 853 32 878 49 q 801 8 828 15 q 753 0 774 0 l 14 0 l 58 260 z "},"š":{"ha":1079,"x_min":14,"x_max":1065,"o":"m 14 0 l 58 260 l 533 260 q 560 276 557 260 q 563 290 561 282 q 567 307 564 297 q 569 319 568 313 q 571 331 571 325 q 567 339 571 333 q 556 347 564 344 l 236 468 q 200 488 219 475 q 164 522 181 501 q 136 569 147 542 q 125 633 125 597 q 128 678 125 650 q 138 733 132 706 q 148 788 143 761 q 156 829 153 814 q 182 899 163 871 q 226 943 201 926 q 278 967 251 960 q 325 975 304 975 l 568 975 l 501 1161 l 626 1161 l 667 1064 l 707 1161 l 832 1161 l 765 975 l 1065 975 l 1021 715 l 543 715 q 514 675 514 715 q 528 660 514 665 l 846 538 q 882 519 863 532 q 918 485 901 506 q 946 436 935 464 q 957 372 957 408 q 953 325 957 357 q 942 260 949 293 q 931 195 936 226 q 924 147 926 164 q 897 77 917 106 q 853 32 878 49 q 801 8 828 15 q 753 0 774 0 l 14 0 z "},"Ū":{"ha":1207,"x_min":14,"x_max":1192,"o":"m 17 207 l 147 975 l 525 975 l 521 949 q 514 905 519 939 q 500 822 508 871 q 481 715 492 774 q 460 596 471 656 q 440 478 450 535 q 423 377 431 421 q 410 306 415 333 q 406 278 406 279 q 415 265 406 269 q 432 260 425 260 l 851 260 l 851 263 q 842 276 851 271 q 825 281 832 281 l 696 281 l 814 975 l 1192 975 l 1026 0 l 186 0 q 136 9 165 0 q 80 38 107 18 q 33 92 53 58 q 14 176 14 126 q 15 192 14 183 q 17 207 15 200 m 838 1131 l 838 996 l 492 996 l 492 1131 l 838 1131 z "},"ū":{"ha":1207,"x_min":14,"x_max":1192,"o":"m 17 207 l 147 975 l 525 975 l 521 949 q 514 905 519 939 q 500 822 508 871 q 481 715 492 774 q 460 596 471 656 q 440 478 450 535 q 423 377 431 421 q 410 306 415 333 q 406 278 406 279 q 415 265 406 269 q 432 260 425 260 l 693 260 l 814 975 l 1192 975 l 1026 0 l 186 0 q 136 9 165 0 q 80 38 107 18 q 33 92 53 58 q 14 176 14 126 q 15 192 14 183 q 17 207 15 200 m 838 1131 l 838 996 l 492 996 l 492 1131 l 838 1131 z "},"Ů":{"ha":1207,"x_min":14,"x_max":1192,"o":"m 14 176 q 15 192 14 183 q 17 207 15 200 l 147 975 l 525 975 l 521 949 q 514 905 519 939 q 500 822 508 871 q 481 715 492 774 q 460 596 471 656 q 440 478 450 535 q 423 377 431 421 q 410 306 415 333 q 406 278 406 279 q 415 265 406 269 q 432 260 425 260 l 851 260 l 851 263 q 842 276 851 271 q 825 281 832 281 l 696 281 l 814 975 l 1192 975 l 1026 0 l 186 0 q 136 9 165 0 q 80 38 107 18 q 33 92 53 58 q 14 176 14 126 m 672 903 q 622 913 644 903 q 582 941 599 924 q 556 982 565 958 q 547 1032 547 1006 q 561 1094 547 1069 q 595 1134 575 1119 q 637 1155 615 1149 q 672 1161 658 1161 q 708 1155 688 1161 q 749 1134 729 1149 q 783 1094 769 1119 q 797 1032 797 1069 q 788 982 797 1006 q 763 941 779 958 q 723 913 746 924 q 672 903 700 903 m 646 1032 q 653 1021 646 1028 q 672 1014 664 1014 q 689 1019 679 1014 q 699 1032 699 1024 q 689 1045 699 1040 q 672 1050 679 1050 q 656 1045 665 1050 q 646 1032 646 1040 z "},"ů":{"ha":1207,"x_min":14,"x_max":1192,"o":"m 14 176 q 15 192 14 183 q 17 207 15 200 l 147 975 l 525 975 l 521 949 q 514 905 519 939 q 500 822 508 871 q 481 715 492 774 q 460 596 471 656 q 440 478 450 535 q 423 377 431 421 q 410 306 415 333 q 406 278 406 279 q 415 265 406 269 q 432 260 425 260 l 693 260 l 814 975 l 1192 975 l 1026 0 l 186 0 q 136 9 165 0 q 80 38 107 18 q 33 92 53 58 q 14 176 14 126 m 672 1161 q 708 1155 688 1161 q 749 1134 729 1149 q 783 1094 769 1119 q 797 1032 797 1069 q 788 982 797 1006 q 763 941 779 958 q 723 913 746 924 q 672 903 700 903 q 622 913 644 903 q 582 941 599 924 q 556 982 565 958 q 547 1032 547 1006 q 561 1094 547 1069 q 595 1134 575 1119 q 637 1155 615 1149 q 672 1161 658 1161 m 646 1032 q 653 1021 646 1028 q 672 1014 664 1014 q 689 1019 679 1014 q 699 1032 699 1024 q 689 1045 699 1040 q 672 1050 679 1050 q 656 1045 665 1050 q 646 1032 646 1040 z "},"Ÿ":{"ha":1124,"x_min":14,"x_max":1110,"o":"m 392 975 l 479 571 l 494 571 l 725 975 l 1110 975 l 826 449 q 788 399 810 417 q 739 371 765 381 q 683 359 713 361 q 621 357 653 357 q 574 359 597 358 q 526 360 550 360 q 499 351 508 357 q 490 340 490 346 q 489 338 489 338 l 649 338 l 590 0 l 214 0 l 275 361 q 227 372 253 364 q 178 397 201 381 q 138 438 156 413 q 113 497 119 463 l 14 975 l 392 975 m 621 1131 l 765 1131 l 742 996 l 599 996 l 621 1131 m 413 996 l 435 1131 l 578 1131 l 556 996 l 413 996 z "},"Ź":{"ha":1079,"x_min":14,"x_max":1065,"o":"m 14 0 l 60 268 l 554 715 l 136 715 l 179 975 l 546 975 l 594 1161 l 768 1161 l 663 975 l 1065 975 l 1019 707 l 549 281 l 401 281 q 382 272 390 281 l 367 260 l 944 260 l 900 0 l 14 0 z "},"ź":{"ha":1079,"x_min":14,"x_max":1065,"o":"m 60 268 l 554 715 l 136 715 l 179 975 l 546 975 l 594 1161 l 768 1161 l 663 975 l 1065 975 l 1019 707 l 526 260 l 944 260 l 900 0 l 14 0 l 60 268 z "},"Ž":{"ha":1079,"x_min":14,"x_max":1065,"o":"m 14 0 l 60 268 l 554 715 l 136 715 l 179 975 l 551 975 l 485 1161 l 611 1161 l 651 1064 l 692 1161 l 817 1161 l 750 975 l 1065 975 l 1019 707 l 549 281 l 401 281 q 382 272 390 281 l 367 260 l 944 260 l 900 0 l 14 0 z "},"ž":{"ha":1079,"x_min":14,"x_max":1065,"o":"m 14 0 l 60 268 l 554 715 l 136 715 l 179 975 l 551 975 l 485 1161 l 611 1161 l 651 1064 l 692 1161 l 817 1161 l 750 975 l 1065 975 l 1019 707 l 526 260 l 944 260 l 900 0 l 14 0 z "},"ƒ":{"ha":1015,"x_min":14,"x_max":1001,"o":"m 1001 975 l 958 715 l 772 715 q 754 710 761 715 q 747 699 747 706 l 626 -10 q 599 -79 619 -51 q 554 -124 579 -107 q 503 -148 529 -140 q 456 -156 476 -156 l 14 -156 l 58 104 l 244 104 q 263 109 256 104 q 271 121 269 114 l 392 829 q 418 899 399 871 q 463 943 438 926 q 514 967 488 960 q 561 975 540 975 l 1001 975 z "},"ˆ":{"ha":360,"x_min":14,"x_max":346,"o":"m 14 965 l 85 1161 l 275 1161 l 346 965 l 219 965 l 179 1063 l 140 965 l 14 965 z "},"ˇ":{"ha":360,"x_min":14,"x_max":346,"o":"m 14 1161 l 140 1161 l 179 1064 l 219 1161 l 346 1161 l 275 965 l 85 965 l 14 1161 z "},"˘":{"ha":372,"x_min":14,"x_max":358,"o":"m 14 919 l 14 940 l 140 940 l 140 919 q 153 894 140 903 q 186 886 168 886 q 218 896 204 886 q 232 919 232 904 l 232 940 l 358 940 l 358 919 q 343 859 358 885 q 303 816 328 833 q 247 790 278 799 q 186 782 217 782 q 125 790 156 782 q 69 816 94 799 q 29 859 44 833 q 14 919 14 885 z "},"˙":{"ha":328,"x_min":14,"x_max":313,"o":"m 313 918 q 311 911 311 915 q 310 901 311 907 q 298 840 303 871 q 289 779 293 810 q 265 741 283 750 q 236 732 247 732 l 67 732 q 51 734 60 732 q 36 743 43 736 q 22 760 29 749 q 14 790 14 771 q 15 804 14 797 q 18 821 15 807 q 21 842 19 831 q 25 867 22 854 q 33 913 29 890 q 38 942 36 935 q 61 981 43 972 q 90 990 79 990 l 260 990 q 302 967 292 990 q 313 918 313 944 z "},"˚":{"ha":353,"x_min":14,"x_max":339,"o":"m 111 804 l 207 804 q 220 808 215 804 q 225 814 225 811 q 229 836 226 818 q 236 874 232 854 q 239 894 238 885 q 242 910 240 903 q 242 914 242 913 q 243 918 243 915 l 146 918 q 133 914 138 918 q 128 907 129 910 q 124 886 126 904 q 118 849 121 868 q 115 828 115 838 q 111 811 114 819 l 111 804 m 67 715 q 36 726 51 715 q 22 744 29 733 q 14 775 14 756 q 14 781 14 778 q 15 790 14 783 q 17 798 17 793 q 18 810 17 803 q 23 835 21 821 q 28 865 25 850 q 38 923 33 896 q 44 958 42 950 q 67 997 50 988 q 96 1006 85 1006 l 286 1006 q 301 1003 293 1006 q 317 994 310 1001 q 332 978 325 989 q 339 947 339 967 q 339 941 339 944 q 338 932 339 938 q 335 913 338 926 q 330 885 332 900 q 325 856 328 871 q 315 799 319 825 q 310 764 311 772 q 286 725 304 735 q 257 715 268 715 l 67 715 z "},"˛":{"ha":276,"x_min":28,"x_max":249,"o":"m 194 -50 l 231 -50 l 249 -156 l 54 -154 l 28 -7 l 79 13 l 75 42 l 181 42 l 194 -50 z "},"˜":{"ha":408,"x_min":14,"x_max":394,"o":"m 394 1111 q 385 1049 394 1074 q 362 1008 376 1024 q 329 987 347 993 q 292 981 311 981 q 251 987 271 981 q 213 1000 232 993 q 196 1008 204 1004 q 179 1014 188 1011 q 163 1018 171 1017 q 149 1019 156 1019 q 135 988 132 1019 l 136 965 l 19 965 l 17 981 q 14 999 14 989 q 14 1015 14 1008 q 23 1078 14 1053 q 47 1118 32 1103 q 80 1140 61 1133 q 117 1146 99 1146 q 158 1140 139 1146 q 196 1126 178 1133 q 214 1119 206 1122 q 231 1113 222 1115 q 245 1108 238 1110 q 260 1107 253 1107 q 275 1138 278 1107 l 272 1161 l 390 1161 l 392 1146 q 394 1128 394 1138 q 394 1111 394 1119 z "},"˝":{"ha":389,"x_min":14,"x_max":375,"o":"m 14 739 l 61 983 l 217 983 l 111 739 l 14 739 m 221 983 l 375 983 l 269 739 l 172 739 l 221 983 z "},"π":{"ha":1175,"x_min":14,"x_max":1161,"o":"m 14 529 l 58 789 l 1161 789 l 1117 529 l 967 529 l 876 0 l 563 0 l 653 529 l 489 529 l 400 0 l 86 0 l 175 529 l 14 529 z "},"–":{"ha":858,"x_min":14,"x_max":843,"o":"m 843 617 l 799 358 l 14 358 l 58 617 l 843 617 z "},"—":{"ha":1207,"x_min":14,"x_max":1193,"o":"m 1193 617 l 1149 358 l 14 358 l 58 617 l 1193 617 z "},"‘":{"ha":404,"x_min":14,"x_max":375,"o":"m 375 975 l 288 529 l 14 529 l 207 975 l 375 975 z "},"’":{"ha":404,"x_min":28,"x_max":389,"o":"m 389 975 l 196 529 l 28 529 l 115 975 l 389 975 z "},"‚":{"ha":390,"x_min":14,"x_max":375,"o":"m 375 260 l 182 -186 l 14 -186 l 101 260 l 375 260 z "},"‛":{"ha":390,"x_min":14,"x_max":375,"o":"m 207 529 l 14 975 l 288 975 l 375 529 l 207 529 z "},"“":{"ha":721,"x_min":14,"x_max":693,"o":"m 332 529 l 524 975 l 693 975 l 606 529 l 332 529 m 207 975 l 375 975 l 288 529 l 14 529 l 207 975 z "},"”":{"ha":707,"x_min":14,"x_max":693,"o":"m 332 529 l 419 975 l 693 975 l 500 529 l 332 529 m 101 975 l 375 975 l 182 529 l 14 529 l 101 975 z "},"„":{"ha":707,"x_min":14,"x_max":693,"o":"m 332 -186 l 419 260 l 693 260 l 500 -186 l 332 -186 m 101 260 l 375 260 l 182 -186 l 14 -186 l 101 260 z "},"†":{"ha":825,"x_min":14,"x_max":811,"o":"m 14 592 l 58 850 l 286 850 l 307 975 l 621 975 l 600 850 l 811 850 l 767 592 l 556 592 l 456 0 l 142 0 l 242 592 l 14 592 z "},"‡":{"ha":889,"x_min":14,"x_max":875,"o":"m 14 125 l 58 383 l 269 383 l 306 592 l 78 592 l 122 850 l 349 850 l 371 975 l 685 975 l 664 850 l 875 850 l 831 592 l 619 592 l 583 383 l 811 383 l 767 125 l 540 125 l 518 0 l 204 0 l 226 125 l 14 125 z "},"•":{"ha":358,"x_min":14,"x_max":344,"o":"m 344 581 q 343 572 343 579 q 341 563 342 568 q 339 550 340 557 q 333 518 336 535 q 328 483 331 501 q 316 415 321 447 q 310 375 311 383 q 286 335 304 344 q 257 326 268 326 l 67 326 q 36 338 51 326 q 18 363 22 350 q 14 394 14 376 q 15 403 15 396 q 17 413 17 407 q 19 425 18 418 q 33 513 26 465 q 50 600 40 561 q 72 640 54 631 q 101 649 90 649 l 292 649 q 332 626 319 649 q 344 581 344 604 z "},"…":{"ha":1185,"x_min":14,"x_max":1171,"o":"m 875 89 q 883 150 878 117 q 896 211 889 183 q 918 250 900 240 q 947 260 936 260 l 1118 260 q 1149 249 1133 260 q 1163 231 1156 242 q 1171 200 1171 219 q 1169 188 1171 192 q 1169 179 1169 183 q 1167 169 1168 175 q 1159 108 1164 140 q 1146 49 1154 76 q 1124 9 1142 18 q 1094 0 1106 0 l 925 0 q 893 11 908 0 q 879 29 886 18 q 872 60 872 40 l 872 72 q 874 80 874 75 q 875 89 874 85 m 15 72 q 18 89 15 75 q 21 111 19 100 q 25 135 22 122 q 33 182 29 160 q 38 211 36 204 q 61 250 43 240 q 90 260 79 260 l 260 260 q 292 249 272 260 q 306 231 299 242 q 313 200 313 219 l 313 188 q 311 179 311 183 q 310 169 311 175 q 298 110 303 140 q 289 49 293 79 q 265 9 283 18 q 236 0 247 0 l 67 0 q 28 19 43 0 q 14 60 14 38 q 14 65 14 61 q 15 72 14 68 m 444 72 q 445 80 444 75 q 446 89 446 85 q 467 211 458 149 q 490 250 472 240 q 519 260 508 260 l 689 260 q 727 241 713 260 q 742 200 742 222 q 740 188 742 192 q 740 179 740 183 q 739 169 739 175 q 727 110 732 140 q 718 49 722 79 q 694 9 713 18 q 665 0 676 0 l 496 0 q 481 2 489 0 q 465 11 472 4 q 450 29 457 18 q 443 60 443 40 q 443 65 443 61 q 444 72 443 68 z "},"‰":{"ha":1899,"x_min":14,"x_max":1883,"o":"m 14 581 q 21 639 14 596 q 36 729 28 682 q 53 822 44 778 q 64 882 61 865 q 81 927 68 910 q 109 956 93 944 q 142 971 125 967 q 171 975 158 975 l 501 975 q 580 941 550 975 q 610 861 610 907 q 603 804 610 847 q 589 714 596 761 q 572 621 579 665 q 561 560 564 576 l 557 543 l 718 975 l 972 975 l 774 444 q 819 494 789 481 q 872 508 850 508 l 1203 508 q 1281 474 1251 508 q 1311 394 1311 440 q 1307 358 1311 383 q 1292 253 1300 306 q 1272 150 1283 201 q 1263 97 1268 124 q 1244 48 1257 69 q 1211 13 1232 26 q 1156 0 1190 0 l 824 0 q 746 34 776 0 q 715 114 715 68 q 722 172 715 128 q 738 261 729 215 q 754 354 746 310 q 765 415 763 399 q 768 432 765 418 l 607 0 l 354 0 l 553 531 q 506 481 536 494 q 454 467 475 467 l 122 467 q 44 501 75 467 q 14 581 14 535 m 1292 150 q 1299 203 1294 174 q 1310 261 1304 232 q 1319 313 1314 288 q 1326 358 1324 338 q 1333 392 1331 378 q 1336 415 1335 407 q 1353 460 1340 443 q 1381 489 1365 478 q 1414 504 1397 500 q 1443 508 1431 508 l 1775 508 q 1853 474 1822 508 q 1883 394 1883 440 q 1876 337 1883 381 q 1861 247 1869 293 q 1844 154 1853 199 q 1833 93 1836 110 q 1817 49 1829 67 q 1788 19 1804 31 q 1756 4 1772 8 q 1726 0 1739 0 l 1396 0 q 1318 34 1349 0 q 1288 114 1288 68 q 1292 150 1288 125 m 1518 156 q 1532 150 1525 150 l 1607 150 q 1620 154 1615 150 q 1625 161 1625 158 q 1632 198 1628 168 q 1643 261 1636 228 q 1648 293 1646 278 q 1653 321 1650 308 q 1655 333 1654 328 q 1656 342 1656 338 q 1657 347 1657 343 q 1653 353 1657 351 q 1639 358 1646 358 l 1563 358 q 1550 354 1554 358 q 1544 347 1546 350 q 1538 310 1543 340 q 1528 247 1533 281 q 1523 215 1525 231 q 1518 188 1521 200 q 1514 167 1517 175 l 1514 161 q 1518 156 1514 158 m 946 156 q 960 150 953 150 l 1036 150 q 1049 154 1044 150 q 1054 161 1053 158 q 1060 198 1056 168 q 1071 261 1065 228 q 1076 293 1074 278 q 1081 321 1078 308 q 1085 342 1083 333 l 1085 347 q 1081 353 1085 351 q 1067 358 1074 358 l 992 358 q 978 354 983 358 q 974 347 974 350 q 967 310 971 340 q 956 247 963 281 q 951 215 953 231 q 946 188 949 200 q 944 176 944 181 q 943 167 943 171 q 942 163 943 164 q 942 161 942 163 q 944 158 943 160 q 946 156 944 157 m 244 622 q 258 617 251 617 l 335 617 q 347 621 343 617 q 353 628 351 625 q 358 665 356 643 q 365 708 361 686 q 372 752 368 731 q 379 788 375 774 q 383 808 382 800 l 383 814 q 379 819 383 818 q 365 825 374 825 l 290 825 q 277 821 282 825 q 272 814 272 817 q 265 777 269 807 q 254 714 261 747 q 249 682 251 697 q 244 654 247 667 q 242 642 243 647 q 242 633 242 638 q 241 630 242 631 q 240 628 240 629 q 242 625 242 626 q 244 622 243 624 z "},"‹":{"ha":401,"x_min":28,"x_max":374,"o":"m 283 233 l 81 233 l 28 492 l 164 742 l 374 742 l 233 483 l 283 233 z "},"›":{"ha":401,"x_min":28,"x_max":374,"o":"m 374 483 l 238 233 l 28 233 l 168 492 l 118 742 l 321 742 l 374 483 z "},"⁄":{"ha":1050,"x_min":14,"x_max":1036,"o":"m 1036 975 l 340 0 l 14 0 l 711 975 l 1036 975 z "},"ⁿ":{"ha":453,"x_min":14,"x_max":438,"o":"m 14 778 l 74 1131 l 371 1131 q 419 1109 401 1131 q 438 1058 438 1088 q 431 1010 438 1050 q 418 929 425 971 q 403 844 410 885 q 394 793 397 804 l 392 778 l 247 778 l 251 804 q 259 847 253 811 q 272 922 265 882 q 278 960 275 942 q 283 994 281 979 q 285 1006 285 1001 q 288 1017 286 1011 l 199 1017 l 158 778 l 14 778 z "},"€":{"ha":1207,"x_min":14,"x_max":1193,"o":"m 42 478 l 158 478 l 163 499 l 46 499 l 74 664 l 190 664 l 218 829 q 245 899 225 871 q 290 943 265 926 q 342 967 315 960 q 389 975 368 975 l 1193 975 l 1149 715 l 600 715 q 583 710 588 715 q 575 699 578 706 q 572 690 574 696 q 569 675 571 685 q 568 669 568 672 q 567 664 568 667 l 781 664 l 751 499 l 540 499 l 536 478 l 749 478 l 721 311 l 507 311 q 506 305 507 308 q 506 299 506 301 q 503 286 503 292 q 503 278 503 281 q 503 272 503 275 q 510 267 504 269 q 519 261 514 263 q 528 260 525 260 l 1071 260 l 1026 0 l 282 0 q 232 9 261 0 q 176 38 203 18 q 129 92 149 58 q 110 176 110 126 q 111 207 110 189 q 116 244 113 225 q 123 281 119 263 q 131 311 126 299 l 14 311 l 42 478 z "},"™":{"ha":854,"x_min":14,"x_max":839,"o":"m 14 1017 l 33 1131 l 367 1131 l 363 1104 q 389 1125 374 1119 q 414 1131 404 1131 l 549 1131 q 573 1125 560 1131 q 596 1104 586 1119 q 605 1113 600 1110 q 614 1119 610 1117 q 635 1128 625 1126 q 654 1131 646 1131 l 772 1131 q 821 1109 803 1131 q 839 1058 839 1088 q 833 1010 839 1050 q 819 929 826 971 q 805 844 811 885 q 796 793 799 804 l 793 778 l 646 778 l 650 804 q 658 847 651 811 q 671 922 664 882 q 676 960 674 942 q 682 994 679 979 q 684 1006 683 1001 q 686 1017 685 1011 q 681 1018 682 1017 q 667 1017 674 1018 q 657 1017 660 1017 l 656 1017 l 615 778 l 476 778 l 481 804 q 488 847 482 811 q 501 922 494 882 q 507 960 504 942 q 513 994 510 979 q 515 1007 515 1001 q 517 1017 515 1013 q 511 1018 513 1017 q 497 1017 504 1018 q 488 1017 490 1017 l 486 1017 l 446 778 l 299 778 l 339 1017 l 260 1017 l 219 778 l 75 778 l 115 1017 l 14 1017 z "},"←":{"ha":631,"x_min":14,"x_max":617,"o":"m 617 586 l 617 389 l 235 404 l 297 281 l 119 281 l 14 488 l 119 694 l 297 694 l 235 572 l 617 586 z "},"↑":{"ha":436,"x_min":14,"x_max":422,"o":"m 313 186 l 124 186 l 140 568 l 14 506 l 14 689 l 218 789 l 422 689 l 422 506 l 296 568 l 313 186 z "},"→":{"ha":631,"x_min":14,"x_max":617,"o":"m 617 488 l 511 281 l 333 281 l 396 404 l 14 389 l 14 586 l 396 572 l 333 694 l 511 694 l 617 488 z "},"↓":{"ha":436,"x_min":14,"x_max":422,"o":"m 422 469 l 422 286 l 218 186 l 14 286 l 14 469 l 140 408 l 124 789 l 313 789 l 296 408 l 422 469 z "},"∏":{"ha":1335,"x_min":14,"x_max":1319,"o":"m 14 -156 l 232 1131 l 1319 1131 l 1103 -156 l 725 -156 l 899 871 l 565 871 l 392 -156 l 14 -156 z "},"∑":{"ha":1079,"x_min":14,"x_max":1065,"o":"m 453 104 l 892 104 l 849 -156 l 14 -156 l 63 126 l 378 461 l 185 857 l 232 1131 l 1065 1131 l 1022 871 l 532 871 l 717 421 l 453 104 z "},"−":{"ha":889,"x_min":14,"x_max":875,"o":"m 875 617 l 831 358 l 14 358 l 58 617 l 875 617 z "},"∞":{"ha":868,"x_min":14,"x_max":854,"o":"m 14 376 q 19 427 14 392 q 31 499 24 463 q 44 571 38 536 q 53 622 50 606 q 74 685 60 660 q 108 727 89 711 q 149 750 128 743 q 192 757 171 757 l 325 757 q 390 749 361 757 q 450 708 419 740 q 506 748 478 739 q 568 757 533 757 l 713 757 q 757 750 732 757 q 803 725 782 743 q 840 678 825 707 q 854 603 854 649 q 853 587 854 594 q 851 571 853 579 l 814 353 q 793 293 808 318 q 758 251 778 268 q 717 226 739 235 q 675 218 694 218 l 542 218 q 477 228 507 218 q 418 268 447 238 q 362 228 390 238 q 299 218 333 218 l 154 218 q 110 226 135 218 q 65 253 86 235 q 28 303 43 272 q 14 376 14 333 m 197 400 l 197 394 q 201 389 197 392 q 215 383 208 383 l 297 383 q 319 390 310 383 q 332 407 329 397 q 338 440 333 417 q 346 492 342 464 q 354 542 353 519 q 356 551 356 547 q 357 560 357 556 q 358 562 357 561 q 358 564 358 563 q 349 583 358 574 q 324 592 336 592 l 260 592 q 238 585 247 592 q 226 568 228 578 q 219 533 224 561 q 210 475 215 506 q 205 445 207 460 q 200 418 203 431 q 197 400 200 411 m 510 415 l 510 411 q 519 393 510 399 q 543 383 529 383 l 607 383 q 629 390 619 383 q 642 407 639 397 q 652 482 646 443 q 667 557 658 521 q 669 568 668 564 q 669 575 669 572 q 671 579 669 578 l 671 581 q 669 583 669 582 q 667 586 668 585 q 653 592 661 592 l 569 592 q 547 585 557 592 q 536 568 538 578 q 529 535 533 560 q 521 483 525 511 q 517 457 518 469 q 513 433 515 444 q 511 424 511 428 q 510 415 511 419 z "},"":{"ha":1176,"x_min":14,"x_max":1163,"o":"m 14 0 l 119 617 l 763 617 q 781 622 774 617 q 789 635 788 628 q 792 650 790 642 q 796 669 793 658 q 797 678 797 674 q 799 688 797 683 q 799 694 799 692 q 800 697 800 696 q 790 710 800 706 q 774 715 781 715 l 136 715 l 179 975 l 990 975 q 1041 966 1011 975 q 1098 937 1071 957 q 1144 883 1125 917 q 1163 799 1163 849 q 1160 761 1163 783 q 1156 718 1158 739 q 1149 675 1153 696 q 1143 639 1146 654 q 1128 587 1139 610 q 1101 547 1117 564 q 1065 517 1085 529 q 1026 499 1046 506 q 1084 446 1063 472 q 1106 369 1106 419 q 1102 324 1106 354 q 1093 261 1099 293 q 1083 199 1088 229 q 1076 153 1079 168 q 1051 81 1071 110 q 1006 33 1031 51 q 953 8 981 15 q 906 0 926 0 l 14 0 m 458 389 l 436 260 l 731 260 q 749 265 742 260 q 757 276 756 269 q 761 298 758 283 q 767 328 764 313 q 769 342 768 335 q 771 357 769 350 l 772 364 q 774 368 774 365 q 774 371 774 369 q 764 384 774 379 q 747 389 754 389 l 458 389 z "},"":{"ha":1111,"x_min":14,"x_max":1096,"o":"m 931 0 l 186 0 q 136 9 165 0 q 80 38 107 18 q 33 92 53 58 q 14 176 14 126 q 15 192 14 183 q 17 207 15 200 l 122 829 q 149 899 129 871 q 193 943 168 926 q 244 967 218 960 q 292 975 271 975 l 1096 975 l 1021 529 l 690 529 l 722 715 l 504 715 q 486 710 493 715 q 478 699 479 706 q 473 670 476 692 q 464 618 469 649 q 452 551 458 588 q 439 476 446 514 q 427 402 433 438 q 416 340 421 367 q 408 296 411 313 q 406 278 406 279 q 415 265 406 269 q 432 260 425 260 l 975 260 l 931 0 z "},"":{"ha":1174,"x_min":14,"x_max":1160,"o":"m 671 260 q 688 265 682 260 q 696 276 694 269 q 701 305 697 283 q 710 357 706 326 q 722 424 715 388 q 735 499 729 461 q 748 573 742 538 q 758 635 754 608 q 765 679 763 663 q 768 697 768 696 q 761 708 768 703 q 751 714 757 713 q 742 715 746 715 l 136 715 l 181 975 l 988 975 q 1038 966 1008 975 q 1095 937 1068 957 q 1141 883 1122 917 q 1160 799 1160 849 q 1160 783 1160 792 q 1157 768 1160 775 l 1051 146 q 1025 76 1044 104 q 981 32 1006 49 q 929 8 956 15 q 882 0 903 0 l 14 0 l 110 556 l 488 556 l 436 260 l 671 260 z "},"":{"ha":1079,"x_min":14,"x_max":1065,"o":"m 14 0 l 68 322 l 399 322 l 388 260 l 533 260 q 551 265 544 260 q 560 276 558 269 q 563 290 561 282 q 567 307 564 297 q 569 319 568 313 q 571 331 571 325 q 567 339 571 333 q 556 347 564 344 l 236 468 q 200 488 219 475 q 164 521 181 500 q 136 569 147 542 q 125 633 125 597 q 128 678 125 650 q 138 733 132 706 q 148 788 143 761 q 156 829 153 814 q 182 899 163 871 q 226 943 201 926 q 278 967 251 960 q 325 975 304 975 l 1065 975 l 1011 654 l 681 654 l 692 715 l 543 715 q 514 675 514 715 q 517 667 514 672 q 528 660 521 663 l 846 538 q 882 519 863 532 q 918 485 901 506 q 946 436 935 464 q 957 372 957 408 q 953 325 957 357 q 942 260 949 293 q 931 195 936 226 q 924 147 926 164 q 897 77 917 106 q 853 32 878 49 q 801 8 828 15 q 753 0 774 0 l 14 0 z "},"":{"ha":1219,"x_min":-69,"x_max":1289,"o":"m 646 617 l 904 1131 l 1289 1131 l 958 483 l 1057 0 l 679 0 l 607 358 l 572 358 l 322 -156 l -69 -156 l 261 492 l 163 975 l 540 975 l 611 617 l 646 617 z "},"":{"ha":1174,"x_min":14,"x_max":1160,"o":"m 14 0 l 78 378 q 105 447 85 419 q 150 492 125 475 q 201 516 175 508 q 249 524 228 524 l 715 524 q 733 529 726 524 q 742 540 740 535 q 747 573 743 549 q 756 625 751 597 q 760 651 758 639 q 764 675 763 664 q 766 685 765 681 q 767 693 767 689 q 768 696 768 694 q 768 697 768 696 q 761 708 768 703 q 751 714 757 713 q 742 715 746 715 l 136 715 l 179 975 l 988 975 q 1038 966 1008 975 q 1095 937 1068 957 q 1141 883 1122 917 q 1160 799 1160 849 q 1160 783 1160 792 q 1157 768 1160 775 l 1096 410 q 1074 347 1090 372 q 1035 303 1057 321 q 989 277 1013 286 q 944 265 965 268 l 1078 -311 l 732 -311 l 597 264 l 460 264 q 442 259 449 264 q 433 247 435 254 l 392 0 l 14 0 z "},"":{"ha":1386,"x_min":14,"x_max":1372,"o":"m 486 338 l 646 338 l 406 -156 l 14 -156 l 344 492 l 246 975 l 624 975 l 694 617 l 729 617 l 988 1131 l 1372 1131 l 1042 483 l 1140 0 l 763 0 l 690 358 l 515 358 q 501 355 506 358 q 492 346 496 351 q 486 338 489 340 z "},"":{"ha":1079,"x_min":14,"x_max":1065,"o":"m 68 322 l 399 322 l 388 260 l 533 260 q 551 265 544 260 q 560 276 557 269 q 563 290 561 282 q 567 307 564 297 q 569 319 568 313 q 571 331 571 325 q 567 339 571 333 q 556 347 564 344 l 236 468 q 200 488 219 475 q 164 521 181 500 q 136 569 147 542 q 125 633 125 597 q 128 678 125 650 q 138 733 132 706 q 148 788 143 761 q 156 829 153 814 q 182 899 163 871 q 226 943 201 926 q 278 967 251 960 q 325 975 304 975 l 1065 975 l 1011 654 l 681 654 l 692 715 l 385 715 q 368 711 374 715 q 358 694 363 707 l 513 694 l 514 675 q 528 660 514 665 l 846 538 q 882 519 863 532 q 918 485 901 506 q 946 436 935 464 q 957 372 957 408 q 953 325 957 357 q 942 260 949 293 q 931 195 936 226 q 924 147 926 164 q 897 77 917 106 q 853 32 878 49 q 801 8 828 15 q 753 0 774 0 l 14 0 l 68 322 z "},"":{"ha":1110,"x_min":14,"x_max":1096,"o":"m 319 694 l 478 694 l 472 669 q 467 642 471 663 q 459 593 464 621 q 449 531 454 565 q 438 463 443 497 q 426 394 432 426 q 415 335 419 361 q 408 294 411 310 q 406 278 406 279 q 415 265 406 269 q 432 260 425 260 l 975 260 l 931 0 l 186 0 q 136 9 165 0 q 80 38 107 18 q 33 92 53 58 q 14 176 14 126 q 15 192 14 183 q 17 207 15 200 l 122 829 q 149 899 129 871 q 193 943 168 926 q 244 967 218 960 q 292 975 271 975 l 1096 975 l 1021 529 l 690 529 l 722 715 l 346 715 q 328 711 333 715 q 319 694 322 707 z "},"":{"ha":1174,"x_min":14,"x_max":1160,"o":"m 671 260 q 688 265 682 260 q 696 276 694 269 q 701 305 697 283 q 710 357 706 326 q 722 424 715 388 q 735 499 729 461 q 748 573 742 538 q 758 635 754 608 q 765 679 763 663 q 768 697 768 696 q 761 708 768 703 q 751 714 757 713 q 742 715 746 715 l 136 715 l 181 975 l 988 975 q 1038 966 1008 975 q 1095 937 1068 957 q 1141 883 1122 917 q 1160 799 1160 849 q 1160 783 1160 792 q 1157 768 1160 775 l 1051 146 q 1025 76 1044 104 q 981 32 1006 49 q 929 8 956 15 q 882 0 903 0 l 14 0 l 110 556 l 488 556 l 439 281 l 304 281 q 286 276 292 281 q 278 260 281 272 l 671 260 z "},"":{"ha":1174,"x_min":14,"x_max":1160,"o":"m 14 0 l 78 378 q 105 447 85 419 q 150 492 125 475 q 201 516 175 508 q 249 524 228 524 l 715 524 q 733 529 726 524 q 742 540 740 535 q 747 573 743 549 q 756 625 751 597 q 760 651 758 639 q 764 675 763 664 q 766 685 765 681 q 767 693 767 689 q 768 696 768 694 q 768 697 768 696 q 761 708 768 703 q 751 714 757 713 q 742 715 746 715 l 136 715 l 179 975 l 988 975 q 1038 966 1008 975 q 1095 937 1068 957 q 1141 883 1122 917 q 1160 799 1160 849 q 1160 783 1160 792 q 1157 768 1160 775 l 1096 410 q 1074 347 1090 372 q 1035 303 1057 321 q 989 277 1013 286 q 944 265 965 268 l 1078 -311 l 732 -311 l 597 264 l 300 264 q 274 244 279 264 l 433 244 l 392 0 l 14 0 z "},"":{"ha":1176,"x_min":14,"x_max":1163,"o":"m 14 0 l 119 617 l 763 617 q 781 622 774 617 q 789 635 788 628 q 792 650 790 642 q 796 669 793 658 q 797 678 797 674 q 799 688 797 683 q 799 694 799 692 q 800 697 800 696 q 790 710 800 706 q 774 715 781 715 l 136 715 l 179 975 l 990 975 q 1041 966 1011 975 q 1098 937 1071 957 q 1144 883 1125 917 q 1163 799 1163 849 q 1160 761 1163 783 q 1156 718 1158 739 q 1149 675 1153 696 q 1143 639 1146 654 q 1128 587 1139 610 q 1101 547 1117 564 q 1065 517 1085 529 q 1026 499 1046 506 q 1084 446 1063 472 q 1106 369 1106 419 q 1102 324 1106 354 q 1093 261 1099 293 q 1083 199 1088 229 q 1076 153 1079 168 q 1051 81 1071 110 q 1006 33 1031 51 q 953 8 981 15 q 906 0 926 0 l 14 0 m 731 260 q 749 265 742 260 q 757 276 756 269 q 761 298 758 283 q 767 328 764 313 q 769 342 768 335 q 771 357 769 350 l 772 364 q 774 368 774 365 q 774 371 774 369 q 764 384 774 379 q 747 389 754 389 l 458 389 l 439 281 l 303 281 q 286 276 292 281 q 278 260 281 272 l 731 260 z "},"�":{"ha":751,"x_min":14,"x_max":738,"o":"m 738 853 l 738 119 l 14 119 l 14 853 l 738 853 m 175 214 l 175 693 l 256 693 l 256 214 l 336 214 l 336 760 l 94 760 l 94 214 l 175 214 m 415 760 l 415 533 l 658 533 l 658 600 l 497 600 l 497 693 l 658 693 l 658 760 l 415 760 m 415 214 l 658 214 l 658 440 l 415 440 l 415 374 l 576 374 l 576 279 l 415 279 l 415 214 z "}}}
